<svg xmlns="http://www.w3.org/2000/svg" width="100" height="100" viewBox="0 0 100 100">
  <g id="Grupo_66177" data-name="Grupo 66177" transform="translate(-172.916 -335.817)">
    <path id="Trazado_137295" data-name="Trazado 137295" d="M271.3,351.946v59.677a6.45,6.45,0,0,1-6.452,6.452H180.98v17.742h-6.451V411.623h88.709a1.618,1.618,0,0,0,1.613-1.613V353.559a1.618,1.618,0,0,0-1.613-1.613h-9.677v4.839l-11.29-8.065,11.29-8.064v4.838h11.29a6.45,6.45,0,0,1,6.452,6.452Zm0,0" fill="#e6e9ed"/>
    <path id="Trazado_137296" data-name="Trazado 137296" d="M243.883,396.639v5.307l5.468,1.1a3.226,3.226,0,0,1,2.6,3.161v5.419H226.142V406.2a3.226,3.226,0,0,1,2.6-3.161l5.468-1.1v-5.307l.048-.048a6.455,6.455,0,0,0,9.582,0Zm0,0" fill="#d44f4a"/>
    <path id="Trazado_137297" data-name="Trazado 137297" d="M192.271,397.107v4.839l5.468,1.1a3.226,3.226,0,0,1,2.6,3.161v5.419H174.529V406.2a3.226,3.226,0,0,1,2.6-3.161l5.468-1.1v-4.839l.274-.274a6.465,6.465,0,0,0,9.13,0Zm0,0" fill="#d44f4a"/>
    <path id="Trazado_137298" data-name="Trazado 137298" d="M218.077,396.639v5.307l5.468,1.1a3.227,3.227,0,0,1,2.6,3.161v5.419H200.335V406.2a3.227,3.227,0,0,1,2.6-3.161l5.468-1.1v-5.307l.048-.048a6.454,6.454,0,0,0,9.581,0Zm0,0" fill="#d44f4a"/>
    <path id="Trazado_137299" data-name="Trazado 137299" d="M232.593,390.656h-6.451v-8.645a3.227,3.227,0,0,1,2.6-3.162l5.468-1.1v-5.419a6.432,6.432,0,0,0,9.677,0v5.419l5.468,1.1a3.227,3.227,0,0,1,2.6,3.162v8.645Zm0,0" fill="#6bbcb1"/>
    <path id="Trazado_137300" data-name="Trazado 137300" d="M180.98,390.656h-6.451v-8.645a3.227,3.227,0,0,1,2.6-3.162l5.468-1.1v-5.419a6.433,6.433,0,0,0,9.678,0v5.419l5.468,1.1a3.227,3.227,0,0,1,2.6,3.162v8.645Zm0,0" fill="#6bbcb1"/>
    <path id="Trazado_137301" data-name="Trazado 137301" d="M192,384.478a6.456,6.456,0,0,0-11.017,4.565v3.225a6.452,6.452,0,1,0,12.9,0v-3.225A6.5,6.5,0,0,0,192,384.478Zm0,0" fill="#f0d0b4"/>
    <path id="Trazado_137302" data-name="Trazado 137302" d="M237.19,350.027l-9.129-9.13-4.807,3.743a21.446,21.446,0,0,0-2.806-1.178l-.758-6.032h-12.9l-.759,6.032a21.562,21.562,0,0,0-2.806,1.178l-4.806-3.743-9.129,9.13,3.742,4.806a22.616,22.616,0,0,0-1.742,4.854,5.069,5.069,0,0,1,.71.6,6.5,6.5,0,0,1,1.886,4.565v3.226a6.45,6.45,0,0,1-1.612,4.258v5.419l5.468,1.1a3.227,3.227,0,0,1,2.6,3.162,3.228,3.228,0,0,1,2.6-3.162l3.9-.774v-.016l-.048-.21a14.515,14.515,0,1,1,12.9,0l-.048.21v.016l3.9.774a3.228,3.228,0,0,1,2.6,3.162,3.227,3.227,0,0,1,2.6-3.162l5.468-1.1v-5.419a6.451,6.451,0,0,1-1.613-4.258v-3.226a6.393,6.393,0,0,1,2.6-5.162,22.617,22.617,0,0,0-1.742-4.854Zm0,0" fill="#ffc200"/>
    <path id="Trazado_137303" data-name="Trazado 137303" d="M207.906,377.849h10.665l-.494-.1H208.4Zm0,0" fill="#ffc200"/>
    <path id="Trazado_137304" data-name="Trazado 137304" d="M206.787,390.656h-6.452v-8.645a3.228,3.228,0,0,1,2.6-3.162l3.9-.774v-.016l1.565-.307v-5.419a6.432,6.432,0,0,0,9.677,0v5.419l1.565.307v.016l3.9.774a3.228,3.228,0,0,1,2.6,3.162v8.645Zm0,0" fill="#6bbcb1"/>
    <path id="Trazado_137305" data-name="Trazado 137305" d="M217.8,384.478a6.455,6.455,0,0,0-11.016,4.565v3.225a6.452,6.452,0,1,0,12.9,0v-3.225a6.492,6.492,0,0,0-1.887-4.565Zm0,0" fill="#f0d0b4"/>
    <path id="Trazado_137306" data-name="Trazado 137306" d="M243.609,384.478a6.455,6.455,0,0,0-11.016,4.565v3.225a6.452,6.452,0,1,0,12.9,0v-3.225a6.492,6.492,0,0,0-1.887-4.565Zm0,0" fill="#f0d0b4"/>
    <path id="Trazado_137307" data-name="Trazado 137307" d="M243.883,372.333a6.451,6.451,0,0,1-11.29-4.258v-3.226a6.476,6.476,0,0,1,6.452-6.452,6.443,6.443,0,0,1,6.451,6.452v3.226a6.446,6.446,0,0,1-1.613,4.258Zm0,0" fill="#f0d0b4"/>
    <path id="Trazado_137308" data-name="Trazado 137308" d="M191.287,359.687a5.069,5.069,0,0,1,.71.6,6.5,6.5,0,0,1,1.886,4.565v3.226a6.452,6.452,0,0,1-12.9,0v-3.226a6.44,6.44,0,0,1,10.307-5.162Zm0,0" fill="#f0d0b4"/>
    <path id="Trazado_137309" data-name="Trazado 137309" d="M218.077,372.333a6.451,6.451,0,0,1-11.29-4.258v-3.226a6.452,6.452,0,1,1,12.9,0v3.226a6.451,6.451,0,0,1-1.613,4.258Zm0,0" fill="#f0d0b4"/>
    <rect id="Rectángulo_9597" data-name="Rectángulo 9597" width="3.226" height="3.226" transform="translate(211.625 342.268)"/>
    <path id="Trazado_137310" data-name="Trazado 137310" d="M225.783,350.024l2.281-2.281,2.282,2.281-2.282,2.281Zm0,0"/>
    <path id="Trazado_137311" data-name="Trazado 137311" d="M196.131,350.023l2.282-2.281,2.28,2.281-2.28,2.28Zm0,0"/>
    <path id="Trazado_137312" data-name="Trazado 137312" d="M263.238,413.236a3.229,3.229,0,0,0,3.226-3.226V390.656h-3.226V410.01h-9.677V406.2a4.848,4.848,0,0,0-3.889-4.743l-4.176-.836v-3.567a7.988,7.988,0,0,0,1.613-4.79h6.452V382.011a4.848,4.848,0,0,0-3.889-4.744l-4.176-.835v-3.568a7.985,7.985,0,0,0,1.613-4.789v-3.226a8.074,8.074,0,0,0-8.064-8.064,7.97,7.97,0,0,0-2.841.543,23.88,23.88,0,0,0-.872-2.29l4-5.148L228.2,338.752l-5.147,4c-.375-.167-.753-.325-1.129-.471l-.808-6.467H205.363l-.808,6.467c-.377.146-.754.3-1.13.471l-5.146-4L187.14,349.89l4,5.148a24.128,24.128,0,0,0-.873,2.289,7.966,7.966,0,0,0-2.838-.542,8.074,8.074,0,0,0-8.065,8.064v3.226a7.989,7.989,0,0,0,1.613,4.789v3.568l-4.174.835a4.848,4.848,0,0,0-3.89,4.744v10.257h6.451a7.981,7.981,0,0,0,1.655,4.839h-.042v3.518l-4.174.836a4.847,4.847,0,0,0-3.89,4.743v29.613h3.226V413.236Zm-65.179-11.777-4.176-.834v-3.518h-.041a7.98,7.98,0,0,0,1.654-4.839h9.678a7.99,7.99,0,0,0,1.613,4.79v3.567l-4.174.836a4.784,4.784,0,0,0-2.278,1.148,4.794,4.794,0,0,0-2.276-1.15Zm-5.788-9.191a4.839,4.839,0,0,1-9.678,0v-3.225a4.839,4.839,0,0,1,9.678,0ZM208.4,368.075v-3.226a4.839,4.839,0,1,1,9.677,0v3.226a4.839,4.839,0,1,1-9.677,0Zm11.29,7.916v-3.127a7.991,7.991,0,0,0,1.613-4.789v-3.226a8.064,8.064,0,0,0-16.129,0v3.226a7.989,7.989,0,0,0,1.613,4.789v3.127a12.9,12.9,0,1,1,12.9,0Zm-9.677,3.082v-3.617a7.958,7.958,0,0,0,6.451,0v3.617l6.769,1.355a1.617,1.617,0,0,1,1.3,1.583v7.032H221.3a8.064,8.064,0,1,0-16.129,0h-3.226v-7.032a1.613,1.613,0,0,1,1.3-1.581Zm33.87,13.2a4.839,4.839,0,1,1-9.677,0v-3.225a4.839,4.839,0,1,1,9.677,0Zm-11.29,4.79v3.567l-4.174.836a4.785,4.785,0,0,0-2.277,1.148,4.807,4.807,0,0,0-2.276-1.15l-4.176-.834v-3.567a7.994,7.994,0,0,0,1.613-4.79h9.677a7.99,7.99,0,0,0,1.613,4.79Zm-24.193-4.79v-3.225a4.839,4.839,0,1,1,9.677,0v3.225a4.839,4.839,0,1,1-9.677,0Zm-5.155,12.354,6.768-1.355v-3.618a7.947,7.947,0,0,0,6.451,0v3.618l6.769,1.355a1.616,1.616,0,0,1,1.3,1.582v3.806H201.948V406.2a1.616,1.616,0,0,1,1.3-1.582Zm45.795,0a1.616,1.616,0,0,1,1.3,1.582v3.806H227.754V406.2a1.612,1.612,0,0,1,1.3-1.58l6.767-1.357v-3.618a7.949,7.949,0,0,0,6.452,0v3.618Zm0-24.194a1.617,1.617,0,0,1,1.3,1.583v7.032h-3.226a8.064,8.064,0,1,0-16.129,0h-3.226v-7.032a1.613,1.613,0,0,1,1.3-1.581l6.767-1.357v-3.617a7.96,7.96,0,0,0,6.452,0v3.617Zm-5.157-15.579v3.226a4.839,4.839,0,1,1-9.677,0v-3.226a4.839,4.839,0,1,1,9.677,0Zm-52.45-14.692,7.112-7.111,4.48,3.486.907-.451a21.024,21.024,0,0,1,2.611-1.087l.961-.322.707-5.629h10.055l.7,5.627.961.323a20.86,20.86,0,0,1,2.611,1.086l.907.451,4.48-3.486,7.112,7.112-3.486,4.48.45.908a20.673,20.673,0,0,1,1.34,3.6,8.062,8.062,0,0,0-2.366,5.7v3.226a7.989,7.989,0,0,0,1.613,4.789v3.568l-4.174.835a4.794,4.794,0,0,0-2.277,1.148,4.806,4.806,0,0,0-2.276-1.149l-.3-.06a16.13,16.13,0,1,0-20.655,0l-.3.06a4.8,4.8,0,0,0-2.278,1.149,4.8,4.8,0,0,0-2.276-1.149l-4.176-.834v-3.568a7.985,7.985,0,0,0,1.613-4.789v-3.226a8.036,8.036,0,0,0-2.369-5.7,20.916,20.916,0,0,1,1.342-3.6l.45-.908Zm-8.84,14.692a4.839,4.839,0,0,1,9.678,0v3.226a4.839,4.839,0,0,1-9.678,0Zm-6.451,24.194v-7.032a1.613,1.613,0,0,1,1.3-1.581l6.767-1.357v-3.617a7.96,7.96,0,0,0,6.452,0v3.617l6.769,1.355a1.617,1.617,0,0,1,1.295,1.583v7.032H195.5a8.064,8.064,0,1,0-16.129,0Zm1.3,15.579,6.767-1.355v-3.618a7.949,7.949,0,0,0,6.452,0v3.618l6.769,1.355a1.616,1.616,0,0,1,1.295,1.582v3.806h-22.58V406.2a1.616,1.616,0,0,1,1.3-1.582Zm0,0"/>
    <rect id="Rectángulo_9598" data-name="Rectángulo 9598" width="3.226" height="3.226" transform="translate(263.238 384.204)"/>
    <rect id="Rectángulo_9599" data-name="Rectángulo 9599" width="3.226" height="3.226" transform="translate(263.238 377.752)"/>
    <rect id="Rectángulo_9600" data-name="Rectángulo 9600" width="3.226" height="3.226" transform="translate(263.238 371.301)"/>
    <path id="Trazado_137313" data-name="Trazado 137313" d="M264.851,343.881h-9.677v-6.359l-15.68,11.2,15.68,11.2v-6.359h8.064v14.516h3.226V353.559a3.229,3.229,0,0,0-3.226-3.226h-11.29v3.318l-6.9-4.931,6.9-4.931v3.318h12.9a4.845,4.845,0,0,1,4.839,4.839v59.677a4.845,4.845,0,0,1-4.839,4.839H179.367v12.9h3.226v-9.677h82.258a8.074,8.074,0,0,0,8.065-8.065V351.946a8.074,8.074,0,0,0-8.065-8.065Zm0,0"/>
    <rect id="Rectángulo_9601" data-name="Rectángulo 9601" width="3.226" height="3.226" transform="translate(179.367 432.591)"/>
    <rect id="Rectángulo_9602" data-name="Rectángulo 9602" width="3.226" height="3.226" transform="translate(235.819 422.914)"/>
    <rect id="Rectángulo_9603" data-name="Rectángulo 9603" width="46.774" height="3.226" transform="translate(185.819 422.914)"/>
    <rect id="Rectángulo_9604" data-name="Rectángulo 9604" width="3.226" height="3.226" transform="translate(242.271 422.914)"/>
    <rect id="Rectángulo_9605" data-name="Rectángulo 9605" width="3.226" height="3.226" transform="translate(248.722 422.914)"/>
    <rect id="Rectángulo_9606" data-name="Rectángulo 9606" width="66.129" height="3.226" transform="translate(185.819 429.365)"/>
  </g>
</svg>
