<svg xmlns="http://www.w3.org/2000/svg" width="100" height="100" viewBox="0 0 100 100">
  <g id="Grupo_66178" data-name="Grupo 66178" transform="translate(-168.154 -469.15)">
    <path id="Trazado_137314" data-name="Trazado 137314" d="M216.541,486.892l3.226-1.613v4.839l5.629.936a4.832,4.832,0,0,1,4.048,4.774v10.419H203.638V495.828a4.831,4.831,0,0,1,4.048-4.774l5.629-.936v-3.226l.162-.774a6.489,6.489,0,0,0,3.064.774Zm0,0" fill="#ffc200"/>
    <path id="Trazado_137315" data-name="Trazado 137315" d="M185.9,486.892l3.226-1.613v4.839l5.629.936a4.832,4.832,0,0,1,4.048,4.774v10.419H172.993V495.828a4.831,4.831,0,0,1,4.048-4.774l5.629-.936v-3.226l.161-.774a6.5,6.5,0,0,0,3.065.774Zm0,0" fill="#6bbcb1"/>
    <path id="Trazado_137316" data-name="Trazado 137316" d="M222.993,477.215v3.226a6.452,6.452,0,0,1-12.9,0v-3.226a6.452,6.452,0,1,1,12.9,0Zm0,0" fill="#f0d0b4"/>
    <path id="Trazado_137317" data-name="Trazado 137317" d="M192.347,477.215v3.226a6.451,6.451,0,0,1-12.9,0v-3.226a6.452,6.452,0,1,1,12.9,0Zm0,0" fill="#f0d0b4"/>
    <path id="Trazado_137318" data-name="Trazado 137318" d="M235.9,506.247H169.767v61.29h96.774v-61.29Zm0,0" fill="#e6e9ed"/>
    <rect id="Rectángulo_9607" data-name="Rectángulo 9607" width="6.452" height="6.452" transform="translate(237.509 475.602)" fill="#6bbcb1"/>
    <rect id="Rectángulo_9608" data-name="Rectángulo 9608" width="9.677" height="6.452" transform="translate(235.896 488.505)" fill="#6bbcb1"/>
    <path id="Trazado_137319" data-name="Trazado 137319" d="M260.089,540.118v-6.452l-3.741-.742a16.287,16.287,0,0,0-1.759-4.258l2.113-3.177-4.564-4.564-3.178,2.112a16.362,16.362,0,0,0-3.387-1.515H235.9a16.394,16.394,0,0,0-3.388,1.515l-3.177-2.112-4.564,4.564,2.113,3.177a16.287,16.287,0,0,0-1.759,4.258l-3.741.742v6.452l3.741.742a16.287,16.287,0,0,0,1.759,4.258l-2.113,3.177,4.564,4.565,3.177-2.113a16.259,16.259,0,0,0,4.259,1.758l.742,3.742h6.451l.742-3.742a16.238,16.238,0,0,0,4.258-1.758l3.178,2.113,4.564-4.565-2.113-3.177a16.287,16.287,0,0,0,1.759-4.258Zm-9.725-2.371a3.676,3.676,0,0,1-.065.613c0,.032-.016.065-.016.1-.033.225-.081.451-.129.661a9.439,9.439,0,0,1-.807,2.194c-.1.161-.177.322-.274.483a6.429,6.429,0,0,1-.451.694,9.669,9.669,0,0,1-2.29,2.29,6.3,6.3,0,0,1-.694.452c-.162.1-.323.177-.484.274a9.392,9.392,0,0,1-2.194.806c-.209.049-.435.1-.661.129-.032,0-.064.017-.1.017a3.769,3.769,0,0,1-.613.065,7.424,7.424,0,0,1-.855.048,9.685,9.685,0,0,1-9.677-9.678,7.429,7.429,0,0,1,.048-.854,3.677,3.677,0,0,1,.065-.614c0-.032.016-.065.016-.1.033-.225.081-.451.129-.66a9.431,9.431,0,0,1,.807-2.2c.1-.16.177-.322.274-.483a6.431,6.431,0,0,1,.451-.694,9.506,9.506,0,0,1,3.049-2.774h9.677c.177.1.355.21.533.322.289.194.564.4.838.63.21.177.4.355.6.549a5.771,5.771,0,0,1,.516.563,2.306,2.306,0,0,1,.307.371,8.016,8.016,0,0,1,.726,1.082c.1.145.177.289.257.434.146.291.274.582.388.871.08.178.144.371.209.549a10.234,10.234,0,0,1,.42,2.113,8.02,8.02,0,0,1,.048.887,7.435,7.435,0,0,1-.048.855Zm0,0" fill="#ffc200"/>
    <rect id="Rectángulo_9609" data-name="Rectángulo 9609" width="9.677" height="32.258" transform="translate(235.896 494.957)" fill="#aab2bd"/>
    <path id="Trazado_137320" data-name="Trazado 137320" d="M245.573,527.215v4.838l-4.839,6.452-4.838-6.452v-4.838Zm0,0" fill="#6bbcb1"/>
    <path id="Trazado_137321" data-name="Trazado 137321" d="M240.734,544.957a8.054,8.054,0,0,1-6.567-12.731l-2.628-1.871a11.28,11.28,0,0,0,15.733,15.732l-1.871-2.628a8,8,0,0,1-4.667,1.5Zm0,0"/>
    <path id="Trazado_137322" data-name="Trazado 137322" d="M253.638,504.634V499.8a6.458,6.458,0,0,0-6.452-6.451v-6.452h-4.839v-3.226h3.226v-9.677H235.9v9.677h3.226v3.226h-4.839v17.742h-3.226v-8.8a6.431,6.431,0,0,0-5.391-6.364l-4.286-.715v-1.86h-.05a8.037,8.037,0,0,0,3.275-6.451v-3.226a8.064,8.064,0,1,0-16.129,0v3.226a8.038,8.038,0,0,0,3.276,6.451h-.05v1.86l-4.286.715a6.428,6.428,0,0,0-5.391,6.364v8.8h-1.613v-8.8a6.431,6.431,0,0,0-5.392-6.364l-4.286-.715v-1.86h-.049a8.037,8.037,0,0,0,3.275-6.451v-3.226a8.065,8.065,0,1,0-16.129,0v3.226a8.035,8.035,0,0,0,3.276,6.451h-.05v1.86l-4.286.715a6.427,6.427,0,0,0-5.391,6.364v8.8h-3.226V569.15h100V504.634Zm-14.516-27.419h3.225v3.226h-3.225Zm4.838,12.9v3.226h-6.451v-3.226Zm9.241,39.368a14.425,14.425,0,0,1,1.587,3.829l.25.985,3.438.687V538.8l-3.438.686-.25.986A14.473,14.473,0,0,1,253.2,544.3l-.519.872,1.944,2.921-2.692,2.692-2.921-1.945-.872.52a14.439,14.439,0,0,1-3.829,1.587l-.986.25-.686,3.44h-3.809l-.687-3.438-.985-.251a14.459,14.459,0,0,1-3.829-1.587l-.873-.519-2.921,1.945-2.692-2.692,1.946-2.921-.52-.873a14.392,14.392,0,0,1-1.587-3.829l-.251-.985-3.439-.687v-3.808l3.438-.687.25-.985a14.465,14.465,0,0,1,1.587-3.83l.519-.872-1.944-2.921L229.535,523l2.921,1.945.872-.519c.307-.182.635-.319.955-.479v8.643l6.451,8.6,6.452-8.6v-.523a8.022,8.022,0,0,1,.116,9.491l2.628,1.871a11.244,11.244,0,0,0-2.744-15.778v-3.706c.32.16.648.3.955.479l.872.519L251.934,523l2.692,2.691-1.944,2.921Zm-15.692-.658h6.451v2.688l-3.226,4.3-3.225-4.3Zm6.451-3.226h-6.451V496.57h6.451ZM211.7,477.215a4.839,4.839,0,0,1,9.678,0v3.226a4.839,4.839,0,0,1-9.678,0Zm-6.451,18.616a3.216,3.216,0,0,1,2.695-3.183l6.982-1.164v-3.142a8.063,8.063,0,0,0,3.226,0v3.142l6.982,1.163a3.218,3.218,0,0,1,2.695,3.184v8.8h-22.58Zm-24.194-18.616a4.838,4.838,0,1,1,9.677,0v3.226a4.838,4.838,0,0,1-9.677,0ZM174.6,495.831a3.217,3.217,0,0,1,2.7-3.183l6.983-1.164v-3.142a8.063,8.063,0,0,0,3.226,0v3.142l6.982,1.163a3.218,3.218,0,0,1,2.7,3.184v8.8H174.6Zm90.323,70.093H171.38V507.86h62.9v12.531a17.346,17.346,0,0,0-1.705.763l-3.457-2.3-6.43,6.43L225,528.737a17.685,17.685,0,0,0-1.158,2.792l-4.071.817v9.094l4.071.817A17.382,17.382,0,0,0,225,545.049l-2.305,3.456,6.43,6.431,3.457-2.306a17.655,17.655,0,0,0,2.792,1.159l.818,4.071h9.1l.816-4.071a17.481,17.481,0,0,0,2.792-1.159l3.457,2.306,6.43-6.431-2.305-3.456a17.723,17.723,0,0,0,1.158-2.792l4.071-.818v-9.1l-4.071-.817a17.386,17.386,0,0,0-1.158-2.792l2.305-3.456-6.43-6.43-3.457,2.3a17.349,17.349,0,0,0-1.705-.763V496.57a3.229,3.229,0,0,1,3.226,3.225v11.291a4.845,4.845,0,0,0,4.839,4.838h3.225V512.7h-3.225a1.615,1.615,0,0,1-1.613-1.613V507.86h11.29Zm0,0"/>
    <rect id="Rectángulo_9610" data-name="Rectángulo 9610" width="3.226" height="3.226" transform="translate(216.541 512.699)"/>
    <rect id="Rectángulo_9611" data-name="Rectángulo 9611" width="3.226" height="3.226" transform="translate(210.089 512.699)"/>
    <rect id="Rectángulo_9612" data-name="Rectángulo 9612" width="3.226" height="3.226" transform="translate(203.638 512.699)"/>
    <path id="Trazado_137323" data-name="Trazado 137323" d="M206.959,535.47l4.127-8.255h8.681v-3.226H209.092l-2.324,4.648-5.42-9.487H174.6v3.226h24.871Zm0,0"/>
    <rect id="Rectángulo_9613" data-name="Rectángulo 9613" width="24.194" height="3.226" transform="translate(174.605 525.602)"/>
    <rect id="Rectángulo_9614" data-name="Rectángulo 9614" width="24.194" height="3.226" transform="translate(174.605 532.053)"/>
    <path id="Trazado_137324" data-name="Trazado 137324" d="M211.7,551.408h-3.226v8.065h-3.225v-12.9h-3.226v12.9H198.8V538.505h-3.226v20.968h-3.226v-12.9h-3.225v12.9H185.9v-8.065H182.67v8.065h-3.226V562.7h35.484v-3.226H211.7Zm0,0"/>
    <rect id="Rectángulo_9615" data-name="Rectángulo 9615" width="3.226" height="3.226" transform="translate(258.476 559.473)"/>
    <rect id="Rectángulo_9616" data-name="Rectángulo 9616" width="3.226" height="3.226" transform="translate(252.025 559.473)"/>
    <rect id="Rectángulo_9617" data-name="Rectángulo 9617" width="3.226" height="3.226" transform="translate(245.573 559.473)"/>
  </g>
</svg>
