<svg xmlns="http://www.w3.org/2000/svg" width="100" height="100" viewBox="0 0 100 100">
  <g id="Grupo_66181" data-name="Grupo 66181" transform="translate(-407.714 -249.736)">
    <path id="Trazado_137348" data-name="Trazado 137348" d="M494.811,251.349v12.9H481.263l-5.807,4.839v-4.839h-6.451v-12.9Zm0,0" fill="#e6e9ed"/>
    <path id="Trazado_137349" data-name="Trazado 137349" d="M446.424,251.349v12.9h-6.452v4.839l-5.806-4.839H420.618v-12.9Zm0,0" fill="#e6e9ed"/>
    <path id="Trazado_137350" data-name="Trazado 137350" d="M431.908,338.51V307.8H415.779v37.1Zm0,0" fill="#cf9e76"/>
    <path id="Trazado_137351" data-name="Trazado 137351" d="M483.521,338.51V307.8H499.65v37.1Zm0,0" fill="#cf9e76"/>
    <path id="Trazado_137352" data-name="Trazado 137352" d="M423.843,339.914c2.29-.92,5-1.919,8.065-2.887,2.887-.92,6.032-2.113,9.468-3.081,1.677-.4,3.4-.758,5.193-1.048.064-.017.145-.017.21-.033.274-.048.548-.08.822-.112l2.049-.291h16.129c1.6.242,3.081.451,4.483.677.194.033.4.065.614.113,2.064.387,4.064.871,5.951,1.4l.145.049c5.742,1.9,10.775,3.79,14.613,5.29,2.29.887,4.177,1.662,5.516,2.21a10.894,10.894,0,0,1,4.742,3.677.12.12,0,0,1,.032.065,13.613,13.613,0,0,1,1,2.177H412.553a13.654,13.654,0,0,1,1-2.177.127.127,0,0,1,.032-.065,10.9,10.9,0,0,1,4.742-3.677c1.355-.565,3.226-1.371,5.516-2.29Zm0,0" fill="#e6e9ed"/>
    <path id="Trazado_137353" data-name="Trazado 137353" d="M465.779,299.736v32.726h-8.065V294.9h8.065Zm0,0" fill="#cf9e76"/>
    <path id="Trazado_137354" data-name="Trazado 137354" d="M457.714,294.9v37.564H449.65V294.9Zm0,0" fill="#cf9e76"/>
    <path id="Trazado_137355" data-name="Trazado 137355" d="M499.65,307.8H483.521v4.838h-6.452V292.494a3.215,3.215,0,0,1,2.339-3.1l8.951-2.564v-4.468a4.811,4.811,0,0,0,6.452,0v4.468l8.951,2.564a3.214,3.214,0,0,1,2.339,3.1v21.758H499.65V307.8Zm0,0" fill="#ffc200"/>
    <path id="Trazado_137356" data-name="Trazado 137356" d="M431.908,307.8H415.779v6.451h-6.452V292.494a3.215,3.215,0,0,1,2.339-3.1l8.952-2.564v-4.468a4.809,4.809,0,0,0,6.451,0v4.468l8.951,2.564a3.214,3.214,0,0,1,2.339,3.1v20.145h-6.451V307.8Zm0,0" fill="#6bbcb1"/>
    <path id="Trazado_137357" data-name="Trazado 137357" d="M465.779,294.9H449.65v6.451H443.2V279.591a3.215,3.215,0,0,1,2.339-3.1l8.951-2.564v-4.468a4.811,4.811,0,0,0,6.452,0v4.468l8.951,2.564a3.214,3.214,0,0,1,2.339,3.1v20.145h-6.451V294.9Zm0,0" fill="#d44f4a"/>
    <path id="Trazado_137358" data-name="Trazado 137358" d="M494.811,282.365a4.838,4.838,0,0,1-8.064-3.6v-3.226a4.839,4.839,0,1,1,9.677,0v3.226a4.742,4.742,0,0,1-1.613,3.6Zm0,0" fill="#f0d0b4"/>
    <path id="Trazado_137359" data-name="Trazado 137359" d="M460.94,269.462a4.838,4.838,0,0,1-8.064-3.6v-3.226a4.839,4.839,0,0,1,9.677,0v3.226a4.742,4.742,0,0,1-1.613,3.6Zm0,0" fill="#f0d0b4"/>
    <path id="Trazado_137360" data-name="Trazado 137360" d="M420.618,282.365a4.738,4.738,0,0,1-1.613-3.6v-3.226a4.839,4.839,0,0,1,9.677,0v3.226a4.83,4.83,0,0,1-8.064,3.6Zm0,0" fill="#f0d0b4"/>
    <path id="Trazado_137361" data-name="Trazado 137361" d="M452.876,272.714l-7.781,2.222a4.862,4.862,0,0,0-3.51,4.653v21.76h3.226v-21.76a1.619,1.619,0,0,1,1.171-1.551l10.119-2.892v-3.058a5.8,5.8,0,0,0,3.226,0v3.058l10.119,2.89a1.623,1.623,0,0,1,1.172,1.553v20.147h3.225V279.589a4.861,4.861,0,0,0-3.509-4.653l-7.781-2.222v-2.626a6.391,6.391,0,0,0,1.613-4.223v-3.226a6.451,6.451,0,0,0-12.9,0v3.226a6.394,6.394,0,0,0,1.613,4.223Zm1.612-10.075a3.226,3.226,0,0,1,6.452,0v3.226a3.226,3.226,0,1,1-6.452,0Zm0,0"/>
    <rect id="Rectángulo_9641" data-name="Rectángulo 9641" width="3.226" height="38.71" transform="translate(456.101 294.898)"/>
    <path id="Trazado_137362" data-name="Trazado 137362" d="M410.94,292.492a1.621,1.621,0,0,1,1.171-1.551l10.119-2.892v-3.058a5.8,5.8,0,0,0,3.226,0v3.058l10.119,2.89a1.623,1.623,0,0,1,1.172,1.553v20.147h3.225V292.492a4.861,4.861,0,0,0-3.509-4.653l-7.781-2.222v-2.626a6.39,6.39,0,0,0,1.613-4.222v-3.226a6.452,6.452,0,1,0-12.9,0v3.226a6.391,6.391,0,0,0,1.613,4.222v2.626l-7.781,2.222a4.862,4.862,0,0,0-3.51,4.653v21.76h3.226Zm9.678-16.949a3.225,3.225,0,1,1,6.451,0v3.226a3.225,3.225,0,0,1-6.451,0Zm0,0"/>
    <rect id="Rectángulo_9642" data-name="Rectángulo 9642" width="3.226" height="32.258" transform="translate(422.23 307.801)"/>
    <path id="Trazado_137363" data-name="Trazado 137363" d="M501.263,342.525v-49.24h-3.226v50.826l.669.482a6.533,6.533,0,0,1,1.627,1.917H415.092a6.538,6.538,0,0,1,1.632-1.917l.668-.482V293.285h-3.226v49.24a13.559,13.559,0,0,0-3.142,5.082l-.718,2.129h94.815l-.718-2.127a13.523,13.523,0,0,0-3.14-5.084Zm0,0"/>
    <path id="Trazado_137364" data-name="Trazado 137364" d="M430.3,293.285v45.966l2.2-.853a70.428,70.428,0,0,1,17.345-4.326l1.427-.165V280.381h-3.226v50.667a73.441,73.441,0,0,0-14.516,3.529V293.285Zm0,0"/>
    <rect id="Rectángulo_9643" data-name="Rectángulo 9643" width="3.226" height="3.226" transform="translate(431.908 256.188)"/>
    <rect id="Rectángulo_9644" data-name="Rectángulo 9644" width="3.226" height="3.226" transform="translate(438.359 256.188)"/>
    <rect id="Rectángulo_9645" data-name="Rectángulo 9645" width="3.226" height="3.226" transform="translate(425.456 256.188)"/>
    <path id="Trazado_137365" data-name="Trazado 137365" d="M441.585,272.534v-6.669h6.452V249.736H419.005v16.129h14.577ZM422.23,252.962h22.581v9.677h-6.452v3.009l-3.609-3.009H422.23Zm0,0"/>
    <rect id="Rectángulo_9646" data-name="Rectángulo 9646" width="3.226" height="3.226" transform="translate(480.295 256.188)"/>
    <rect id="Rectángulo_9647" data-name="Rectángulo 9647" width="3.226" height="3.226" transform="translate(473.843 256.188)"/>
    <rect id="Rectángulo_9648" data-name="Rectángulo 9648" width="3.226" height="3.226" transform="translate(486.747 256.188)"/>
    <path id="Trazado_137366" data-name="Trazado 137366" d="M473.843,272.534l8-6.669h14.578V249.736H467.392v16.129h6.451Zm-3.225-9.895v-9.677H493.2v9.677h-12.52l-3.609,3.009v-3.009Zm0,0"/>
    <path id="Trazado_137367" data-name="Trazado 137367" d="M504.2,287.839l-7.781-2.222v-2.626a6.39,6.39,0,0,0,1.613-4.222v-3.226a6.451,6.451,0,1,0-12.9,0v3.226a6.391,6.391,0,0,0,1.613,4.222v2.626l-7.782,2.222a4.862,4.862,0,0,0-3.509,4.653v20.147h3.226V292.492a1.62,1.62,0,0,1,1.171-1.551l10.119-2.892v-3.058a5.8,5.8,0,0,0,3.226,0v3.058l10.119,2.89a1.622,1.622,0,0,1,1.171,1.553v21.76h3.226v-21.76a4.861,4.861,0,0,0-3.509-4.653Zm-15.846-9.07v-3.226a3.226,3.226,0,1,1,6.452,0v3.226a3.226,3.226,0,0,1-6.452,0Zm0,0"/>
    <rect id="Rectángulo_9649" data-name="Rectángulo 9649" width="3.226" height="32.258" transform="translate(489.972 307.801)"/>
    <path id="Trazado_137368" data-name="Trazado 137368" d="M464.166,280.381v53.526l1.427.166a70.367,70.367,0,0,1,17.344,4.327l2.2.851V293.285h-3.226v41.292a73.6,73.6,0,0,0-14.516-3.529V280.381Zm0,0"/>
  </g>
</svg>
