<svg xmlns="http://www.w3.org/2000/svg" xmlns:xlink="http://www.w3.org/1999/xlink" width="100" height="100" viewBox="0 0 100 100">
  <defs>
    <clipPath id="clip-path">
      <rect id="Rectángulo_9580" data-name="Rectángulo 9580" width="100" height="100" transform="translate(185.004 -14)" fill="none"/>
    </clipPath>
  </defs>
  <g id="Grupo_66174" data-name="Grupo 66174" transform="translate(-185.004 14)">
    <path id="Trazado_137233" data-name="Trazado 137233" d="M217.5-2.774a16.132,16.132,0,1,0-1.854,16.193V6.129a16.414,16.414,0,0,1,.161-2.371,18.091,18.091,0,0,1,2.016-6.371Zm0,0" fill="#d44f4a"/>
    <path id="Trazado_137234" data-name="Trazado 137234" d="M202.746,13.419v6.452A16.135,16.135,0,0,1,186.617,3.742h6.451a9.685,9.685,0,0,0,9.678,9.677Zm0,0" fill="#ffc200"/>
    <path id="Trazado_137235" data-name="Trazado 137235" d="M212.423,3.742a9.678,9.678,0,1,1-9.677-9.677,9.678,9.678,0,0,1,9.677,9.677Zm0,0" fill="#e6e9ed"/>
    <path id="Trazado_137236" data-name="Trazado 137236" d="M222.1,10.209a6.6,6.6,0,0,0-6.419,5.807c-.016.21-.032.42-.032.629V6.129a16.414,16.414,0,0,1,.161-2.371,18.091,18.091,0,0,1,2.016-6.371A18.521,18.521,0,0,1,242.2-10.548a18.433,18.433,0,0,1,6.436,5.113l.887,1.112A10.752,10.752,0,0,1,253.069-.4a10.761,10.761,0,0,1,1.289,5.129V16.645c0-.209-.015-.419-.032-.629a6.6,6.6,0,0,0-6.419-5.807,1.679,1.679,0,0,0-.274-.015A7.105,7.105,0,0,1,242.6,8.113l-1.145-1.145a30.438,30.438,0,0,1-13.661,3.226h-5.42a1.685,1.685,0,0,0-.274.015Zm0,0" fill="#b27946"/>
    <path id="Trazado_137237" data-name="Trazado 137237" d="M201.133,66.645V52a9.673,9.673,0,0,1,7.774-9.484l13.419-2.693,25.775.08,13,2.613A9.673,9.673,0,0,1,268.875,52V66.645Zm0,0" fill="#d44f4a"/>
    <path id="Trazado_137238" data-name="Trazado 137238" d="M244.681,39.226l3.42.677-.194.936-4.839,11.29L235,45.677Zm0,0" fill="#e6e9ed"/>
    <path id="Trazado_137239" data-name="Trazado 137239" d="M225.326,39.226,235,45.677l-8.065,6.452-4.613-12.306Zm0,0" fill="#e6e9ed"/>
    <path id="Trazado_137240" data-name="Trazado 137240" d="M244.681,31.629v7.6L235,45.677l-9.678-6.451v-7.6c.177.21.355.4.548.6a12.913,12.913,0,0,0,18.807-.6Zm0,0" fill="#f0d0b4"/>
    <path id="Trazado_137241" data-name="Trazado 137241" d="M254.358,16.645a6.46,6.46,0,0,1-6.451,6.452V10.209a6.6,6.6,0,0,1,6.419,5.807c.017.21.032.42.032.629Zm0,0" fill="#f0d0b4"/>
    <path id="Trazado_137242" data-name="Trazado 137242" d="M244.681,31.629a12.913,12.913,0,0,1-18.807.6c-.193-.194-.371-.387-.548-.6A12.881,12.881,0,0,1,222.1,23.1V10.209a1.685,1.685,0,0,1,.274-.015h5.42a30.438,30.438,0,0,0,13.661-3.226L242.6,8.113a7.105,7.105,0,0,0,5.033,2.081,1.679,1.679,0,0,1,.274.015V23.1a12.881,12.881,0,0,1-3.226,8.532Zm0,0" fill="#f0d0b4"/>
    <path id="Trazado_137243" data-name="Trazado 137243" d="M222.1,10.209V23.1a6.46,6.46,0,0,1-6.451-6.452c0-.209.016-.419.032-.629a6.6,6.6,0,0,1,6.419-5.807Zm0,0" fill="#f0d0b4"/>
    <path id="Trazado_137244" data-name="Trazado 137244" d="M254.358,76.323v8.064h-33.87V52.129H249.52V66.645Zm0,0" fill="#e6e9ed"/>
    <path id="Trazado_137245" data-name="Trazado 137245" d="M265.649,66.645V74.71a1.619,1.619,0,0,1-1.613,1.613H243.068a4.839,4.839,0,0,1,0-9.678Zm0,0" fill="#f0d0b4"/>
    <path id="Trazado_137246" data-name="Trazado 137246" d="M226.939,66.645a4.839,4.839,0,0,1,0,9.678H205.971a1.619,1.619,0,0,1-1.613-1.613V66.645Zm0,0" fill="#f0d0b4"/>
    <path id="Trazado_137247" data-name="Trazado 137247" d="M230.165,16.645a1.613,1.613,0,1,1-1.613-1.613,1.613,1.613,0,0,1,1.613,1.613Zm0,0"/>
    <path id="Trazado_137248" data-name="Trazado 137248" d="M243.068,16.645a1.613,1.613,0,1,1-1.613-1.613,1.613,1.613,0,0,1,1.613,1.613Zm0,0"/>
    <path id="Trazado_137249" data-name="Trazado 137249" d="M235,27.935a3.229,3.229,0,0,1-3.226-3.225h-3.226a6.451,6.451,0,0,0,12.9,0h-3.226A3.228,3.228,0,0,1,235,27.935Zm0,0"/>
    <rect id="Rectángulo_9576" data-name="Rectángulo 9576" width="14.516" height="3.226" transform="translate(197.907 32.774)"/>
    <path id="Trazado_137250" data-name="Trazado 137250" d="M281.778,6.968V-10.774h-3.226V6.968h-3.226v-12.9H272.1v12.9h-3.225V2.129h-3.226V6.968h-2.61l-2.229,4.458-.616-1.232h-4.223V4.718A12.454,12.454,0,0,0,250.629-5.52l-.74-.925A20.041,20.041,0,0,0,234.167-14a20.1,20.1,0,0,0-16.336,8.411,17.738,17.738,0,1,0-16.7,26.991v8.146h11.29V26.323h-8.065V21.392a17.51,17.51,0,0,0,9.73-4,7.988,7.988,0,0,0,6.474,7.151,14.443,14.443,0,0,0,3.151,7.654v5.7L208.6,40.928A11.32,11.32,0,0,0,199.52,52v16.26h3.226V74.71a3.228,3.228,0,0,0,3.225,3.225h12.9V86h37.1V77.935h8.065a3.229,3.229,0,0,0,3.226-3.225V68.258h3.226V52a11.321,11.321,0,0,0-9.076-11.07L246.294,37.9V32.2a14.452,14.452,0,0,0,3.152-7.654,7.941,7.941,0,0,0,6.48-7.9h.045V13.419H258.2l2.61,5.22,4.223-8.445H285V6.968ZM234.167-10.774a16.82,16.82,0,0,1,13.2,6.345l.893,1.114.365.336a9.232,9.232,0,0,1,4.12,7.7v5.613a8.459,8.459,0,0,0-3.226-1.513V5.355h-3.226V8.4a5.474,5.474,0,0,1-2.558-1.43l-1.963-1.962-1.041.519a29.075,29.075,0,0,1-12.941,3.055h-4.078V5.355h-3.225V8.818a8.445,8.445,0,0,0-3.226,1.513v-4.2a16.925,16.925,0,0,1,16.905-16.905ZM215.923-2.322a19.9,19.9,0,0,0-1.484,4.451h-.532a11.3,11.3,0,0,0-9.549-9.548v-3.237a14.508,14.508,0,0,1,11.565,8.334ZM202.746,11.806a8.064,8.064,0,1,1,8.064-8.064,8.073,8.073,0,0,1-8.064,8.064Zm-1.613-22.485v3.26a11.3,11.3,0,0,0-9.548,9.548h-3.26a14.535,14.535,0,0,1,12.808-12.808ZM188.325,5.355h3.26a11.3,11.3,0,0,0,9.548,9.548v3.26A14.535,14.535,0,0,1,188.325,5.355Zm16.033,12.811V14.9a11.3,11.3,0,0,0,9.549-9.548h.167c-.009.26-.038.514-.038.776v6.7a14.361,14.361,0,0,1-9.678,5.332Zm12.927-2a4.868,4.868,0,0,1,3.2-4.01v9.027a4.762,4.762,0,0,1-3.2-5.017Zm7.7,24.772,7.287,4.859-4.6,3.683L224.5,41.036ZM235,47.743l3.464,2.773h-6.93Zm2.73-1.947,7.287-4.859,1,.2-3.6,8.407Zm5.334-7.433L235,43.739l-8.065-5.376v-3.2a14.473,14.473,0,0,0,16.129,0ZM202.746,65.032V52a8.084,8.084,0,0,1,6.483-7.907L221.3,41.677l3.315,8.839h-5.737V65.032h-6.452v-12.9H209.2v12.9Zm3.225,3.226h20.968a3.226,3.226,0,1,1,0,6.452H205.971Zm58.065,6.452h-11.29v8.064H222.1V77.935h4.839a6.451,6.451,0,1,0,0-12.9H222.1V53.742h25.807v11.29h-4.839a6.451,6.451,0,0,0,0,12.9h6.452V74.71h-6.452a3.226,3.226,0,0,1,0-6.452h20.968ZM267.262,52V65.032H260.81v-12.9h-3.226v12.9h-6.451V50.516h-5.619l3.741-8.731,11.523,2.306A8.085,8.085,0,0,1,267.262,52ZM235,34.387A11.3,11.3,0,0,1,223.713,23.1V11.806h4.078A32.361,32.361,0,0,0,241.12,8.915l.335.335a8.656,8.656,0,0,0,4.839,2.426V23.1A11.3,11.3,0,0,1,235,34.387ZM251.49,19.9a4.834,4.834,0,0,1-1.97,1.282V12.153a4.872,4.872,0,0,1,3.2,4.01A4.818,4.818,0,0,1,251.49,19.9Zm0,0"/>
    <g id="Grupo_66173" data-name="Grupo 66173">
      <g id="Grupo_66172" data-name="Grupo 66172" clip-path="url(#clip-path)">
        <rect id="Rectángulo_9577" data-name="Rectángulo 9577" width="22.581" height="3.226" transform="translate(255.971 26.323)"/>
        <rect id="Rectángulo_9578" data-name="Rectángulo 9578" width="3.226" height="3.226" transform="translate(281.778 26.323)"/>
        <rect id="Rectángulo_9579" data-name="Rectángulo 9579" width="29.032" height="3.226" transform="translate(255.971 32.774)"/>
      </g>
    </g>
    <rect id="Rectángulo_9581" data-name="Rectángulo 9581" width="3.226" height="3.226" transform="translate(191.455 32.774)"/>
    <rect id="Rectángulo_9582" data-name="Rectángulo 9582" width="3.226" height="3.226" transform="translate(185.004 32.774)"/>
  </g>
</svg>
