<svg xmlns="http://www.w3.org/2000/svg" width="100" height="100" viewBox="0 0 100 100">
  <g id="Grupo_66182" data-name="Grupo 66182" transform="translate(-394.527 -373.179)">
    <path id="Trazado_137369" data-name="Trazado 137369" d="M402.592,403.825v4.838H396.14v-4.838a3.249,3.249,0,0,1,3.226-3.226,3.235,3.235,0,0,1,3.226,3.226Zm0,0" fill="#ffc200"/>
    <path id="Trazado_137370" data-name="Trazado 137370" d="M402.592,408.663v20.968l-3.226,4.839-3.226-4.839V408.663Zm0,0" fill="#6bbcb1"/>
    <path id="Trazado_137371" data-name="Trazado 137371" d="M421.947,374.792v19.355h-4.839v4.839l-8.871-4.839h-12.1V374.792Zm0,0" fill="#e6e9ed"/>
    <path id="Trazado_137372" data-name="Trazado 137372" d="M442.785,438.809,426.3,442.47a9.662,9.662,0,0,0-7.581,9.435v19.662h74.194V451.9a9.662,9.662,0,0,0-7.581-9.435l-16.484-3.661Zm0,0" fill="#e6e9ed"/>
    <path id="Trazado_137373" data-name="Trazado 137373" d="M459.044,455.438l3.225,16.129h-12.9l3.226-16.129Zm0,0" fill="#ffc200"/>
    <path id="Trazado_137374" data-name="Trazado 137374" d="M460.657,448.986l-1.613,6.452h-6.452l-1.613-6.452,4.839-3.226Zm0,0" fill="#ffc200"/>
    <path id="Trazado_137375" data-name="Trazado 137375" d="M481.624,407.05v11.291a4.832,4.832,0,0,1-4.838,4.838H471.2a15.973,15.973,0,0,0,.742-4.838V402.212h4.839a4.267,4.267,0,0,1,1.516.258,4.8,4.8,0,0,1,3.322,4.58Zm0,0" fill="#838f9b"/>
    <path id="Trazado_137376" data-name="Trazado 137376" d="M471.947,400.519a10.78,10.78,0,0,1-5.823,1.693H434.85a4.267,4.267,0,0,0-1.516.258l-.1-.258V395.76a20.933,20.933,0,0,1,39.661-9.354l.662,1.322a7.092,7.092,0,0,1,4.838,6.71v7.774l-.1.258a4.267,4.267,0,0,0-1.516-.258h-4.839Zm0,0" fill="#b27946"/>
    <path id="Trazado_137377" data-name="Trazado 137377" d="M471.2,423.179a16.119,16.119,0,0,1-7.564,9.259,16.144,16.144,0,0,1-19.226-2.694,16.09,16.09,0,0,1-4.726-11.4V402.212h26.435a10.78,10.78,0,0,0,5.823-1.693v17.822a15.973,15.973,0,0,1-.742,4.838Zm0,0" fill="#f0d0b4"/>
    <path id="Trazado_137378" data-name="Trazado 137378" d="M468.85,438.793v.016l-3.355,13.4-9.677-6.452,8.064-8.064Zm0,0" fill="#ccd1d9"/>
    <path id="Trazado_137379" data-name="Trazado 137379" d="M463.882,432.857V437.7l-8.064,8.064-8.065-8.064v-4.839l.242-.419a16.075,16.075,0,0,0,15.646,0Zm0,0" fill="#f0d0b4"/>
    <path id="Trazado_137380" data-name="Trazado 137380" d="M457.431,419.954a3.235,3.235,0,0,1,3.226,3.225,3.249,3.249,0,0,1-3.226,3.226H454.2a3.235,3.235,0,0,1-3.226-3.226,3.247,3.247,0,0,1,3.226-3.225Zm0,0" fill="#656d78"/>
    <path id="Trazado_137381" data-name="Trazado 137381" d="M455.818,445.76l-9.678,6.452-3.355-13.4v-.016l4.968-1.1Zm0,0" fill="#ccd1d9"/>
    <path id="Trazado_137382" data-name="Trazado 137382" d="M440.415,423.132l-.726.047H434.85a4.832,4.832,0,0,1-4.839-4.838V407.05a4.8,4.8,0,0,1,3.323-4.58,4.267,4.267,0,0,1,1.516-.258h4.839v16.129a16.17,16.17,0,0,0,.726,4.791Zm0,0" fill="#838f9b"/>
    <path id="Trazado_137383" data-name="Trazado 137383" d="M485.687,440.888,465.495,436.4v-3.211a17.82,17.82,0,0,0,6.832-8.4h4.459a6.458,6.458,0,0,0,6.451-6.452v-11.29a6.429,6.429,0,0,0-3.226-5.555v-7.053a8.676,8.676,0,0,0-5.29-8l-.384-.769a22.547,22.547,0,0,0-42.713,10.085V401.5a6.43,6.43,0,0,0-3.226,5.554v11.291a6.458,6.458,0,0,0,6.452,6.451h4.458a17.827,17.827,0,0,0,6.832,8.4V436.4l-20.192,4.485a11.223,11.223,0,0,0-8.84,11.021v21.269h77.419V451.91a11.225,11.225,0,0,0-8.84-11.022Zm-18.805-.873-2.4,9.585-6.138-4.089,6.049-6.049ZM453.914,457.05h3.809l2.58,12.9h-8.969Zm3.87-3.225h-3.933l-1.033-4.128,3-2,3,2Zm22.227-35.484a3.229,3.229,0,0,1-3.225,3.226h-3.534a17.693,17.693,0,0,0,.308-3.226V403.825h3.226a3.228,3.228,0,0,1,3.225,3.225ZM434.85,395.76a19.32,19.32,0,0,1,36.6-8.64l.967,1.929.634.212a5.457,5.457,0,0,1,3.734,5.183V400.6H473.56V395.76h-3.226v3.806a9.223,9.223,0,0,1-3.869,1.01,12.491,12.491,0,0,0,1.985-2.308l-2.684-1.789a9.225,9.225,0,0,1-7.369,4.1,12.521,12.521,0,0,0,1.989-2.311l-2.684-1.789a9.227,9.227,0,0,1-7.369,4.1,12.556,12.556,0,0,0,1.988-2.311l-2.684-1.789a9.24,9.24,0,0,1-7.7,4.12H441.3V395.76h-3.226V400.6H434.85Zm0,25.807a3.229,3.229,0,0,1-3.226-3.226V407.05a3.229,3.229,0,0,1,3.226-3.225h3.226v14.516a17.693,17.693,0,0,0,.308,3.226Zm6.452-3.226V403.825h.637a12.447,12.447,0,0,0,5.814-1.441v1.441H450a12.448,12.448,0,0,0,5.815-1.441v1.441h2.25a12.447,12.447,0,0,0,5.814-1.441v1.441h2.25a12.417,12.417,0,0,0,4.2-.762v15.278a14.483,14.483,0,0,1-.374,3.226h-7.989a4.832,4.832,0,0,0-4.542-3.226H454.2a4.839,4.839,0,0,0,0,9.677h3.226a4.832,4.832,0,0,0,4.542-3.226h6.83a14.5,14.5,0,0,1-27.5-6.451Zm17.742,4.838a1.615,1.615,0,0,1-1.613,1.613H454.2a1.613,1.613,0,1,1,0-3.225h3.226a1.614,1.614,0,0,1,1.613,1.612Zm-3.226,12.9a17.613,17.613,0,0,0,6.451-1.233v2.178l-6.451,6.451-6.452-6.451V434.85a17.618,17.618,0,0,0,6.452,1.233Zm-8.579,3.379,6.048,6.049L447.15,449.6l-2.4-9.585Zm-26.9,12.448a8.015,8.015,0,0,1,6.314-7.872l14.957-3.324,3.526,14.109,4.838-3.226.97,3.881-2.895,14.476H433.237V452.212h-3.226v17.742h-9.677ZM491.3,469.954h-9.678V452.212H478.4v17.742H463.592l-2.9-14.476.969-3.881,4.839,3.226,3.526-14.109,14.956,3.324a8.016,8.016,0,0,1,6.315,7.872Zm0,0"/>
    <path id="Trazado_137384" data-name="Trazado 137384" d="M467.108,408.663a1.613,1.613,0,1,1-1.613-1.613,1.613,1.613,0,0,1,1.613,1.613Zm0,0"/>
    <path id="Trazado_137385" data-name="Trazado 137385" d="M447.753,408.663a1.613,1.613,0,1,1-1.613-1.613,1.613,1.613,0,0,1,1.613,1.613Zm0,0"/>
    <rect id="Rectángulo_9650" data-name="Rectángulo 9650" width="16.129" height="3.226" transform="translate(400.979 379.631)"/>
    <rect id="Rectángulo_9651" data-name="Rectángulo 9651" width="16.129" height="3.226" transform="translate(400.979 386.083)"/>
    <path id="Trazado_137386" data-name="Trazado 137386" d="M418.721,401.7V395.76h4.839V373.179H394.527V395.76h13.3Zm-20.968-25.3h22.581v16.129h-4.839v3.734l-6.841-3.734h-10.9Zm0,0"/>
    <path id="Trazado_137387" data-name="Trazado 137387" d="M428.4,432.857H402.379l1.826-2.737V403.825a4.839,4.839,0,1,0-9.678,0V430.12l3.976,5.963h29.9Zm-29.032-30.645a1.615,1.615,0,0,1,1.613,1.613v3.225h-3.226v-3.225a1.615,1.615,0,0,1,1.613-1.613Zm0,29.349-1.613-2.419V410.276h3.226v18.866Zm0,0"/>
    <rect id="Rectángulo_9652" data-name="Rectángulo 9652" width="3.226" height="3.226" transform="translate(425.173 426.405)"/>
    <rect id="Rectángulo_9653" data-name="Rectángulo 9653" width="14.516" height="3.226" transform="translate(407.431 426.405)"/>
    <rect id="Rectángulo_9654" data-name="Rectángulo 9654" width="14.516" height="3.226" transform="translate(407.431 419.954)"/>
    <rect id="Rectángulo_9655" data-name="Rectángulo 9655" width="3.226" height="3.226" transform="translate(418.721 413.502)"/>
    <rect id="Rectángulo_9656" data-name="Rectángulo 9656" width="8.065" height="3.226" transform="translate(407.431 413.502)"/>
  </g>
</svg>
