<svg xmlns="http://www.w3.org/2000/svg" width="100" height="100" viewBox="0 0 100 100">
  <g id="Grupo_66183" data-name="Grupo 66183" transform="translate(-429.326 -488.564)">
    <path id="Trazado_137388" data-name="Trazado 137388" d="M493.051,567.032l8.856-2.661,4.838,3.225,4.839-3.225,11.532,3.451a6.471,6.471,0,0,1,4.6,6.194v12.935H500.294V574.016a6.471,6.471,0,0,0-4.6-6.194Zm0,0" fill="#ffc200"/>
    <path id="Trazado_137389" data-name="Trazado 137389" d="M456.745,564.371l8.856,2.661-2.646.79a6.471,6.471,0,0,0-4.6,6.194v12.935H430.939V574.016a6.471,6.471,0,0,1,4.6-6.194l11.532-3.451,4.839,3.225Zm0,0" fill="#6bbcb1"/>
    <path id="Trazado_137390" data-name="Trazado 137390" d="M500.294,574.016v12.935H458.358V574.016a6.471,6.471,0,0,1,4.6-6.194l2.646-.79h.015l8.871-2.661,4.839,3.225,4.839-3.225,8.871,2.661h.015l2.646.79a6.471,6.471,0,0,1,4.6,6.194Zm0,0" fill="#d44f4a"/>
    <path id="Trazado_137391" data-name="Trazado 137391" d="M516.423,546.629h-6.064a15.281,15.281,0,0,1-6.839-1.613,5.512,5.512,0,0,1-3.888,1.613h-2.564a9.677,9.677,0,1,1,19.355,0Zm0,0" fill="#b27946"/>
    <path id="Trazado_137392" data-name="Trazado 137392" d="M489,546.629h-6.064a15.287,15.287,0,0,1-6.839-1.613,5.508,5.508,0,0,1-3.887,1.613h-2.564a9.677,9.677,0,1,1,19.354,0Zm0,0" fill="#b27946"/>
    <path id="Trazado_137393" data-name="Trazado 137393" d="M461.584,546.629H459.02a5.512,5.512,0,0,1-3.888-1.613,15.281,15.281,0,0,1-6.839,1.613h-6.064a9.678,9.678,0,1,1,19.355,0Zm0,0" fill="#b27946"/>
    <path id="Trazado_137394" data-name="Trazado 137394" d="M516.423,546.629v4.838a9.672,9.672,0,0,1-4.839,8.371v4.533l-4.839,3.225-4.838-3.225v-4.533a9.672,9.672,0,0,1-4.839-8.371v-4.838h2.564a5.512,5.512,0,0,0,3.888-1.613,15.281,15.281,0,0,0,6.839,1.613Zm0,0" fill="#f0d0b4"/>
    <path id="Trazado_137395" data-name="Trazado 137395" d="M489,546.629v4.838a9.671,9.671,0,0,1-4.838,8.371v4.533l-4.839,3.225-4.839-3.225v-4.533a9.671,9.671,0,0,1-4.838-8.371v-4.838h2.564a5.508,5.508,0,0,0,3.887-1.613,15.287,15.287,0,0,0,6.839,1.613Zm0,0" fill="#f0d0b4"/>
    <path id="Trazado_137396" data-name="Trazado 137396" d="M461.584,546.629v4.838a9.672,9.672,0,0,1-4.839,8.371v4.533l-4.838,3.225-4.839-3.225v-4.533a9.672,9.672,0,0,1-4.839-8.371v-4.838h6.064a15.281,15.281,0,0,0,6.839-1.613,5.512,5.512,0,0,0,3.888,1.613Zm0,0" fill="#f0d0b4"/>
    <path id="Trazado_137397" data-name="Trazado 137397" d="M492.229,503.08h19.355a11.291,11.291,0,1,1,0,22.581,2.992,2.992,0,0,0-2.5,1.339l-2.339,3.5-2.339-3.5a2.99,2.99,0,0,0-2.5-1.339H484.165a2.992,2.992,0,0,0-2.5,1.339l-2.339,3.5-2.339-3.5a2.992,2.992,0,0,0-2.5-1.339H456.745a2.99,2.99,0,0,0-2.5,1.339l-2.339,3.5-2.339-3.5a2.992,2.992,0,0,0-2.5-1.339,11.291,11.291,0,0,1,0-22.581Zm0,0" fill="#e6e9ed"/>
    <path id="Trazado_137398" data-name="Trazado 137398" d="M490.39,500.855l1.839.612v3.226l-1.839.613a11.412,11.412,0,0,1-1.661,4.032l.855,1.726-2.274,2.274-1.726-.854a11.413,11.413,0,0,1-4.032,1.661l-.613,1.838h-3.226l-.613-1.838a11.413,11.413,0,0,1-4.032-1.661l-1.726.854-2.274-2.274.855-1.726a11.412,11.412,0,0,1-1.661-4.032l-1.839-.613v-3.226l1.839-.612a11.417,11.417,0,0,1,1.661-4.033l-.855-1.726,2.274-2.274,1.726.855a11.412,11.412,0,0,1,4.032-1.661l.613-1.839h3.226l.613,1.839a11.412,11.412,0,0,1,4.032,1.661l1.726-.855,2.274,2.274-.855,1.726a11.417,11.417,0,0,1,1.661,4.033Zm0,0" fill="#ffc200"/>
    <path id="Trazado_137399" data-name="Trazado 137399" d="M484.165,503.08a4.839,4.839,0,1,1-4.839-4.838,4.84,4.84,0,0,1,4.839,4.838Zm0,0" fill="#ffc200"/>
    <path id="Trazado_137400" data-name="Trazado 137400" d="M479.326,509.532a6.452,6.452,0,1,0-6.452-6.452,6.459,6.459,0,0,0,6.452,6.452Zm0-9.678a3.226,3.226,0,1,1-3.226,3.226,3.229,3.229,0,0,1,3.226-3.226Zm0,0"/>
    <path id="Trazado_137401" data-name="Trazado 137401" d="M523.579,566.285,513.2,563.17v-2.448a11.33,11.33,0,0,0,4.839-9.255v-4.838a11.291,11.291,0,1,0-22.581,0v4.838a11.328,11.328,0,0,0,4.839,9.255v2.448l-7.258,2.178-7.258-2.178v-2.448a11.329,11.329,0,0,0,4.838-9.255v-4.838a11.29,11.29,0,1,0-22.58,0v4.838a11.327,11.327,0,0,0,4.838,9.255v2.448l-7.258,2.178-7.258-2.178v-2.448a11.33,11.33,0,0,0,4.839-9.255v-4.838a11.29,11.29,0,1,0-22.581,0v4.838a11.328,11.328,0,0,0,4.839,9.255v2.448l-10.382,3.115a8.016,8.016,0,0,0-5.747,7.724v14.555h100V574.009a8.016,8.016,0,0,0-5.747-7.724Zm-16.834-27.721a8.08,8.08,0,0,1,7.9,6.452h-4.295a13.719,13.719,0,0,1-6.112-1.444l-1.04-.519-.822.822a3.914,3.914,0,0,1-2.752,1.141h-.782a8.08,8.08,0,0,1,7.9-6.452Zm-8.064,12.9v-3.225h.945a7.058,7.058,0,0,0,4.15-1.335,16.964,16.964,0,0,0,6.576,1.335h4.458v3.225a8.1,8.1,0,0,1-4.034,6.978l-.8.466v4.6l-3.226,2.15-3.225-2.15v-4.6l-.8-.466a8.1,8.1,0,0,1-4.034-6.978Zm-19.355-12.9a8.078,8.078,0,0,1,7.9,6.452h-4.295a13.718,13.718,0,0,1-6.111-1.444l-1.041-.519-.822.822a3.912,3.912,0,0,1-2.751,1.141h-.782a8.078,8.078,0,0,1,7.9-6.452Zm-8.065,12.9v-3.225h.946a7.058,7.058,0,0,0,4.15-1.335,16.96,16.96,0,0,0,6.575,1.335h4.459v3.225a8.1,8.1,0,0,1-4.034,6.978l-.8.466v4.6l-3.226,2.15-3.226-2.15v-4.6l-.8-.466a8.1,8.1,0,0,1-4.034-6.978Zm2.963,14.666,5.1,3.4,5.1-3.4,10.8,3.242a4.807,4.807,0,0,1,3.449,4.634v11.329h-38.71V574.009a4.807,4.807,0,0,1,3.449-4.634Zm-22.317-27.569a8.08,8.08,0,0,1,7.9,6.452h-.782a3.918,3.918,0,0,1-2.753-1.141l-.823-.822-1.041.519a13.71,13.71,0,0,1-6.109,1.444h-4.295a8.08,8.08,0,0,1,7.9-6.452Zm-8.065,12.9v-3.225H448.3a16.957,16.957,0,0,0,6.576-1.335,7.06,7.06,0,0,0,4.15,1.335h.945v3.225a8.1,8.1,0,0,1-4.034,6.978l-.805.466v4.6l-3.225,2.15-3.226-2.15v-4.6l-.8-.466a8.1,8.1,0,0,1-4.034-6.978Zm-11.29,22.542A4.807,4.807,0,0,1,436,569.375l10.8-3.242,5.1,3.4,5.1-3.4,3.528,1.059a7.992,7.992,0,0,0-3.791,6.817v11.329H432.552ZM526.1,585.338H501.907V574.009a7.99,7.99,0,0,0-3.791-6.817l3.528-1.059,5.1,3.4,5.1-3.4,10.8,3.242a4.807,4.807,0,0,1,3.448,4.634Zm0,0"/>
    <path id="Trazado_137402" data-name="Trazado 137402" d="M447.068,527.274a1.4,1.4,0,0,1,1.166.624l3.673,5.51,3.672-5.51a1.4,1.4,0,0,1,1.166-.624h17.742a1.4,1.4,0,0,1,1.167.624l3.672,5.51L483,527.9a1.4,1.4,0,0,1,1.167-.624h17.742a1.4,1.4,0,0,1,1.166.624l3.672,5.51,3.673-5.51a1.4,1.4,0,0,1,1.166-.624,12.9,12.9,0,0,0,0-25.807H493.842V500.3l-2.087-.7a12.575,12.575,0,0,0-1.187-2.86l.985-1.969-3.925-3.926-1.97.985a12.8,12.8,0,0,0-2.86-1.187l-.7-2.087h-5.551l-.7,2.087A12.549,12.549,0,0,0,473,491.838l-1.97-.985-3.926,3.926.985,1.969a12.8,12.8,0,0,0-1.187,2.86l-2.088.7v1.163H447.068a12.9,12.9,0,0,0,0,25.807Zm20.968-24.643,1.619-.541.184-.918a9.578,9.578,0,0,1,1.43-3.449l.52-.78-.765-1.529.637-.637,1.529.765.78-.52a9.54,9.54,0,0,1,3.449-1.43l.919-.185.538-1.617h.9l.541,1.619.918.184a9.582,9.582,0,0,1,3.45,1.431l.779.519,1.529-.764.637.637-.765,1.528.52.78a9.537,9.537,0,0,1,1.43,3.45l.184.918,1.616.539v.9l-1.619.542-.184.917a9.6,9.6,0,0,1-1.43,3.45l-.52.779.765,1.529-.637.637-1.529-.765-.78.52a9.541,9.541,0,0,1-3.449,1.43l-.919.184-.538,1.617h-.9l-.541-1.62-.918-.184a9.58,9.58,0,0,1-3.45-1.43l-.779-.52-1.529.765-.637-.637.765-1.529-.52-.78a9.533,9.533,0,0,1-1.43-3.449l-.184-.918-1.616-.539Zm-20.968,2.062H464.81v1.163l2.087.7a12.548,12.548,0,0,0,1.187,2.859l-.985,1.97,3.925,3.926,1.97-.985a12.746,12.746,0,0,0,2.86,1.186l.7,2.087H482.1l.7-2.087a12.588,12.588,0,0,0,2.859-1.186l1.97.985,3.926-3.926-.985-1.97a12.807,12.807,0,0,0,1.187-2.859l2.088-.7v-1.163h17.742a9.677,9.677,0,0,1,0,19.355,4.622,4.622,0,0,0-3.85,2.059l-.989,1.484-.988-1.484a4.622,4.622,0,0,0-3.85-2.059H484.165a4.624,4.624,0,0,0-3.851,2.059l-.988,1.484-.988-1.484a4.624,4.624,0,0,0-3.851-2.059H456.745a4.623,4.623,0,0,0-3.85,2.059l-.988,1.484-.989-1.484a4.622,4.622,0,0,0-3.85-2.059,9.677,9.677,0,0,1,0-19.355Zm0,0"/>
    <rect id="Rectángulo_9657" data-name="Rectángulo 9657" width="3.226" height="3.226" transform="translate(443.842 512.758)"/>
    <rect id="Rectángulo_9658" data-name="Rectángulo 9658" width="3.226" height="3.226" transform="translate(450.294 512.758)"/>
    <rect id="Rectángulo_9659" data-name="Rectángulo 9659" width="3.226" height="3.226" transform="translate(456.745 512.758)"/>
    <rect id="Rectángulo_9660" data-name="Rectángulo 9660" width="3.226" height="3.226" transform="translate(498.681 512.758)"/>
    <rect id="Rectángulo_9661" data-name="Rectángulo 9661" width="3.226" height="3.226" transform="translate(505.132 512.758)"/>
    <rect id="Rectángulo_9662" data-name="Rectángulo 9662" width="3.226" height="3.226" transform="translate(511.584 512.758)"/>
  </g>
</svg>
