<svg xmlns="http://www.w3.org/2000/svg" width="36" height="36" viewBox="0 0 36 36">
  <g id="Grupo_67490" data-name="Grupo 67490" transform="translate(-373 -3911)">
    <circle id="Elipse_5623" data-name="Elipse 5623" cx="18" cy="18" r="18" transform="translate(373 3911)" fill="#d44f4a"/>
    <path id="Trazado_138555" data-name="Trazado 138555" d="M14.082,21h-3.3V10.492l-3.242.947v-2.5l6.24-2.158h.3Zm14.16-5.811a6.789,6.789,0,0,1-1.294,4.443A4.471,4.471,0,0,1,23.3,21.2a4.5,4.5,0,0,1-3.672-1.572,6.779,6.779,0,0,1-1.3-4.434v-2.6a6.789,6.789,0,0,1,1.294-4.443,4.483,4.483,0,0,1,3.657-1.562,4.484,4.484,0,0,1,3.662,1.572,6.8,6.8,0,0,1,1.3,4.443Zm-3.291-3.018a5.071,5.071,0,0,0-.4-2.29,1.338,1.338,0,0,0-1.27-.757,1.307,1.307,0,0,0-1.235.7,4.777,4.777,0,0,0-.415,2.129V15.59a5.109,5.109,0,0,0,.4,2.329,1.343,1.343,0,0,0,1.27.737,1.325,1.325,0,0,0,1.24-.718,4.878,4.878,0,0,0,.41-2.251Z" transform="translate(374 3918)" fill="#fff"/>
  </g>
</svg>
