<svg xmlns="http://www.w3.org/2000/svg" width="36" height="36" viewBox="0 0 36 36">
  <g id="Grupo_67499" data-name="Grupo 67499" transform="translate(-285 -4096)">
    <circle id="Elipse_5680" data-name="Elipse 5680" cx="18" cy="18" r="18" transform="translate(285 4096)" fill="#d44f4a"/>
    <path id="Trazado_138567" data-name="Trazado 138567" d="M19.063,15.5a3.476,3.476,0,0,1-2.383.957,3.847,3.847,0,0,1-3.066-1.309,5.156,5.156,0,0,1-1.133-3.5,5.247,5.247,0,0,1,.635-2.539A4.763,4.763,0,0,1,14.9,7.26a4.859,4.859,0,0,1,2.534-.684,4.717,4.717,0,0,1,2.544.708,4.767,4.767,0,0,1,1.772,2A6.877,6.877,0,0,1,22.4,12.27v1.26a8.548,8.548,0,0,1-.923,4.082,6.371,6.371,0,0,1-2.632,2.656,8.224,8.224,0,0,1-3.984.928h-.205V18.559l.625-.01Q18.682,18.383,19.063,15.5Zm-1.494-1.416a1.6,1.6,0,0,0,1.543-.928V11.791a3.555,3.555,0,0,0-.459-2.021,1.44,1.44,0,0,0-1.24-.654,1.361,1.361,0,0,0-1.162.742,3.3,3.3,0,0,0-.469,1.8,2.956,2.956,0,0,0,.479,1.772A1.531,1.531,0,0,0,17.568,14.086Z" transform="translate(286 4103)" fill="#fff"/>
  </g>
</svg>
