<svg xmlns="http://www.w3.org/2000/svg" xmlns:xlink="http://www.w3.org/1999/xlink" width="400" height="294" viewBox="0 0 400 294">
  <defs>
    <clipPath id="clip-path">
      <rect id="Rect치ngulo_9235" data-name="Rect치ngulo 9235" width="400" height="294" transform="translate(180 21642)" fill="#fff" stroke="#707070" stroke-width="1"/>
    </clipPath>
  </defs>
  <g id="Enmascarar_grupo_71" data-name="Enmascarar grupo 71" transform="translate(-180 -21642)" clip-path="url(#clip-path)">
    <g id="Grupo_13566" data-name="Grupo 13566" transform="translate(167.085 21802.219)">
      <path id="Trazado_12656" data-name="Trazado 12656" d="M421.051,95.293l.14-.233-42-25.442,14.536-19.679h.014V-11.135h-.028l-.421-.948-31.879-4.529L413.7-29.07v26h.545V-105.284H413.7v44.711L342.872-89.61h.068v-12.918l17.682,9.259v10.688h1.088V-93.6h-.542l.255-.48L317.1-117.658v-.145h-.273l-6.177-3.286,39.817-29.321-.323-.438-40.028,29.476L290.335-131.9v-.144h-.269l-7.774-4.135v-18.412h-.548v18.118l-14.888-7.921H264.68L242.118-108.6H185.852l-4.25-21.5h-2.177l-33.957,12.535-13.1-18.948v-18.076h-.545V-137.3l-4.91-7.1h-1.633L69.991-114.065-.571-154.83l-.272.471,70.276,40.6L43.358-99.455l-69.95-26.938-.194.508L42.737-99.112-4.789-73.043V-85.9h-.545v56.917h.545V-44.133l11.139-.743V26.015H6.9l-.378.391L25.923,45.192-5.181,60.41l-.421.244v41.1l.039.2L6.445,131.927l1.01-.4-11.971-29.87v-38.9l33.438,60.2v7.727H31.1v-7.641l1.8-1.726v9.367h.545v-9.889l3.4-3.265v13.291h.545V117.007l3.4-3.265v16.939h.545V113.221l4.133-3.966v21.565h.545V108.733l4.71-4.52v26.608h.547V103.69l5.442-5.223v32.213h.545V97.946l6.394-6.136v36.07l-3.766,4.684.652.527.195.157h0l.421.34L100.918,84.12l50.21,38.346v7.655h2.177V84.86h2.449v44.23h.545V84.86h7.795v44.916h.545V84.86h10.7v45.232h.545V84.86h13.778v45.084h.545V84.86h27.582v44.816h.541V84.86h9.614v44.6h.545V84.86h6.63v44.768h.545V84.86h3.762v46.865H241.6V83.772l-9.059-26.2L242.6,53.5l38.685,79.932.746-.361.234-.112h0l.49-.237L243.789,52.209h.181V5.432l-42.808-42.5L299.91,31.375V130.12h2.177V31.375l1.184-.549V130.8h.545V30.574l1.86-.862V130.2h.545V29.46l2.258-1.046V129.966h.545V28.162l.389-.181,2.867,1.737v98.737h.545V30.048l3.912,2.37v95.99h.545V32.747l3.792,2.3V128h.545V35.373l5.015,3.038v90.062h.545V38.741l4.354,2.633v89.666h.545V41.707l5.561,3.371v78.686h.228l-4.541,6.151.875.647,44.674-60.5,41.861,25.36-9.966,34.627.527.152,10.024-34.828Zm-28.4-45.731L378.261,69.049l-2.528-1.528V-2.748l7.959-3.687V60.718h.545v-67.4l8.412-3.9ZM343.375,12.247V47.918l-5.2-3.147V14.655Zm.545-.253,6.265-2.9V52.039l-6.265-3.792Zm21.515-9.969V61.281l-7.077-4.287V5.305Zm-7.621,54.639-7.085-4.292V8.84l7.085-3.282Zm-7.629-3.985v54.395l-6.265,8.484V48.88Zm.545.33,7.085,4.292V96.743l-7.085,9.594Zm7.629,4.622,7.077,4.288v24.5l-7.077,9.586Zm7.621,4.617,9.216,5.583v4.643h.539l-9.755,13.209Zm0-.632V1.774l9.216-4.269V67.2ZM392-11.495,321.341,20.329h-.272v.122l-4.062,1.83h-.272V22.4l-4.183,1.884h-.273v.123l-4.424,1.994L203.45-36.844l-.792-.541,99.8,34.311h2.177L359.494-16.15ZM33.574-15.35v1.911L25.41-15.757V-56.99l86.211-15.59L131-65.117V-48.33l-27.436,1.024.02.544L131-47.785v34.094L88.633,2.215,34.666-13.134v-2.22ZM145.44-115.541l33.99,49.021v15.342L157.717-63.4,132.105-78.191h0l-27.7-16v-6.722Zm-11.247-16.222v18.356l-1.824.673v-21.66Zm5.85,16.2v-7.759l2.317,3.335v3.57Zm-.545.2-2.107.778v-12.564l2.107,3.041Zm-2.653.979-2.107.778v-17.37l2.107,3.041Zm-5.022,1.853-1.441.527v-25.249l1.441,2.078Zm-1.985.737-1.361.5V-140l1.361,1.961Zm159.954-18.562v23.949l-7.773,5.724V-134.43ZM307.025-119.1l-8.046,5.925v-12.375l8.322,4.356h-.276Zm0,.676v14.115l-2.388-.979H302.46l-3.476,2.2V-112.5Zm12.483,21.4v49.585l-5.093.336V-99.052ZM233.263,31.242l-4.769-9.9V10.8h-.273l5.041-1.1Zm.272-21.594,4.247-.924v31.9l-3.974-8.251V9.643Zm-5.583,10.57-4.079-8.467,4.079-.888Zm-9.619-7.267,4.424-.964V30.31l-4.424-13.127Zm-.545,2.62L217,13.241l.787-.172Zm5.518-3.7h.016l4.625,9.6V45.68l-4.638-13.76Zm-7-.7-15.623-46.3L222.35,9.851Zm-16.192,3.526V.344l-.779-37.8,16.445,48.735ZM120.475,47.346V36.53l5.623-5.4v9.99Zm-40.9,28.426.548-.527.09,16.682-.632.706ZM38.523-10.789V21.036l-2.01.755V-11.374Zm.545.159,2.566.751V19.867l-2.566.963Zm3.111.91,2.785.815V18.617l-2.785,1.046Zm3.33.975L48.4-7.9V17.321l-2.895,1.087Zm3.439,1.007,3.709,1.086V15.729l-3.709,1.393ZM53.2-6.491l3.53,1.033V14.2L53.2,15.524ZM57.275-5.3l3.769,1.1V12.58l-3.771,1.415Zm4.314,1.264,4.365,1.279V10.736l-4.362,1.638ZM66.5-2.6,70.314-1.48V9.1L66.5,10.536ZM86.144,3.155,70.857,8.9V-1.322Zm.869.255,15.193,4.448-15,7.34L71.445,9.255ZM131-65.7l-18.345-7.065L131-76.084ZM270.715-83.187h.017V-83.2l31.728-19.741v56.632l-101.8,6.7Zm4.969-5.161v-6.993l5.793-4.266v7.594ZM336.156-20.2l-8.979-1.275V-47.39l8.979-.592Zm.545-27.816,9.611-.632v29.892L336.7-20.128ZM326.633-21.555l-6.58-.934V-46.924l6.58-.434Zm-7.125-1.011-5.093-.724V-46.556l5.093-.336Zm-5.637-.8-3.565-.506V-46.278l3.565-.235Zm-4.108-.584-2.194-.316V-46.1l2.194-.144Zm-2.739-.389-2.388-.339V-45.9l2.388-.157Zm-139.7,69.175,17.39-45.7,13.215,2.13v55.1ZM133.53,32.666V24L163.072-4.349l3.569.575-32.962,36.5ZM89.085,82.1V66.644l2.268-2.176V79.588ZM185.418-2.723l13.291-34.929L197.948-.747ZM169-5.314l23.447-26.166-21.3,26.5Zm.772,2.041L139.519,34.36l-4.54-1.711L167.5-3.639ZM155.657-17.694V-6.67L147.978-.845V-13.939Zm-7.679,3.152v-4.942l7.679-2.884V-18.3ZM156.2-17.96l10.485-5.131v8.055L156.2-7.083Zm11.029-5.4,11.921-5.835v4.7L167.23-15.448ZM179.694-24.9v-4.555l16.2-7.926-3.762,3.048Zm18.082-14.01-1.314.643-16.768,6.3V-46.366l18.49,7.121Zm-6.419,3.142L179.7-30.063v-1.328Zm-12.21,5.97-11.921,5.834v-2.747l11.921-4.477Zm-12.46,6.1L156.2-18.567v-4l10.485-3.937Zm-10.485.546V-48.727l10.485-.391v22.027Zm-.545.2-7.679,2.883V-48.42l7.679-.287Zm-8.223,3.087-5.118,1.922v-30.27l5.118-.191Zm0,.581v5l-5.118,2.5v-5.583Zm0,5.608V-.435l-5.118,3.883V-11.163Zm0,13.919V1.9l-5.118,4.149V4.134Zm.545-.413,7.679-5.825v1.13h.105l-7.788,6.313ZM156.2-6.4l10.485-7.953v.644L156.2-5.213Zm11.029-8.365,11.8-8.946-11.8,9.561ZM179.7-46.949V-49.6l.142-.005,15.7,8.757Zm-.545-.211-5.739-2.212,5.739-.211Zm0,.584v14.805L167.23-27.3V-49.139l4.8-.179ZM167.23-49.682v-1.483l3.512,1.353Zm-.545.02-10.485.391v-6.142l10.485,4.038Zm-11.029.412-7.679.287V-58.58l7.679,2.957Zm-8.223.307-5.118.191V-60.762l5.118,1.971Zm-5.118-12.4v-9.2l5.118,2.857v8.322Zm-.545-.211-3.616-1.393v-9.924l3.616,2.018Zm0,.584v12.238l-3.616.135V-62.364Zm0,12.783v30.453l-3.616,1.358V-48.054Zm0,31.034v5.648l-3.616,1.77V-15.8Zm0,6.254V3.86L138.155,6.6V-9.131Zm0,15.443V6.485l-3.616,2.93V7.286Zm-4.16,5.314-2.541,2.059V9.625L137.611,7.7Zm-3.085,2.5-1.348,1.092V11.063l1.348-1.023Zm-14.6,9.439v5.739l-5.056-1.906Zm.545-.413,5.623-4.265V29.864l-5.623-2.12Zm6.167-4.678,1.612-1.222,3.687,1.081.5-.105.549-.453v7.757l-6.35,6.093Zm2.875-2.864L131,12.71v1.556Zm4.012,1.722L160.416-6.643l-1.888,1.559,3.869.624-28.868,27.7V15.565ZM160.441-6.662l30.484-25.175L164.095-6.086Zm33.278-27.1L168.15-5.446l-3.38-.533Zm4.424-3.947L184.87-2.81,171.759-4.878ZM178.918-50.118l-6.8.254-4.894-1.884v-4.895Zm-12.237-1.84L156.2-56v-6.8l10.485,5.851Zm-11.029-4.247-7.679-2.957v-8.225l7.679,4.285ZM137.613-73.174v10.019l-2.541-.979V-74.592Zm0,10.6v13.995l-2.541.095V-63.552Zm0,14.536v31.86l-2.541.954V-47.939Zm0,32.444v6.121l-2.541,1.244v-6.412Zm0,6.727V7.014L135.073,8.94V-7.622ZM134.528,9.358,133.18,10.38V-6.7l1.348-.659ZM131,12.031l-2.147,1.628-23.566-6.7L131-5.629ZM88.542,45.6V66.414l-2.086,2V47.183ZM81.468,50.97V73.2l-.813.781-.119-22.307Zm.545-.413,1.542-1.169V71.2l-1.542,1.475Zm2.086-1.58L85.912,47.6V68.94L84.1,70.68Zm1.814,20.718V85.619L84.1,87.628V71.43Zm.545-.527,2.086-2V82.7l-2.091,2.307Zm2.633-3.278v-20.7l2.268-1.72V63.717ZM91.9,43.056l2.633-2V60.668L91.9,63.2Zm3.175-2.408,2.633-2v18.97L95.076,60.15Zm3.173-2.408,3.991-3.027V53.269l-3.991,3.826Zm4.536-3.44,5.073-3.848V47.879l-5.073,4.869Zm5.618-4.261,5.448-4.132V42.13L108.4,47.357Zm5.993-4.507,5.533,2.087V36.3L114.4,41.607Zm6.077,2.292,5.575,2.107-5.575,5.351Zm12.517-3.8v7.941l-5.942-2.241Zm37.4-27.691L184.167-.952l-17.354,45.6L140.057,34.562ZM302.461-24.99,202.573-39.182l99.885-6.584Zm2.177-21.462v-56.506l2.388.954v55.393ZM193.732-43.128v-2.759l3.136,4.523Zm-.545-.307-2.976-1.674v-5.856l2.976,4.292Zm-3.52-1.98-2.758-1.552v-8.76l2.758,3.977Zm-3.3-1.857-1.769-1V-59.063l1.769,2.55ZM133.182-75.649l1.348.752v10.553l-1.348-.519Zm1.348,11.888v15.3l-1.348.051V-64.281Zm0,15.843v32.9l-1.348.506v-33.36Zm0,33.485v6.472l-1.348.659v-6.626ZM131-6.235l-26.5,12.967L89.521,2.469,131.005-13.11ZM102.985,8.09l23.32,6.829L113.074,24.956,87.911,15.467ZM79.575,52.413,80,52.091l.12,22.416-.545.527ZM80.754,91.34l-.088-16.6.809-.776V90.541Zm1.264-17.9,1.542-1.475V88.236l-1.542,1.708Zm10.465,6.648V92.017L82.7,104.191V91Zm.272-.3,1.01-1.127,5.861,4.477-6.6,8.209V79.776Zm-.851-.791V63.942l2.633-2.528V76.066ZM95.078,60.9l2.633-2.528V72.558l-2.633,2.913Zm3.171-3.052,3.991-3.83V67.537l-3.991,4.424Zm4.536-4.352,5.073-4.868V61.317l-5.073,5.618Zm5.618-5.39,5.448-5.228v11.8L108.4,60.713Zm5.993-5.749,5.533-5.309v10.9L114.4,54.079Zm12.244-11.713,6.35,2.394v.449l-6.35,7.03Zm175.822-54.97V-5.11L202.436-38.645Zm2.177.316,2.388.341V-5.652l-2.388.549Zm2.933.421,2.194.316V-6.282l-2.194.5Zm2.739.392,3.565.511V-7.234l-3.565.82Zm4.108.589,5.093.729V-8.53l-5.093,1.171Zm5.637.807,6.58.943v10.691l-6.58,1.514Zm7.125,1.021,8.979,1.286v7.137l-8.979,2.066Zm9.523,1.364,9.611,1.377v3.348L336.7-12.475Zm10.154,1.454,8.427,1.206-8.427,1.938Zm0-.72V-48.69l9.164-.6v31.916Zm0-30.548V-86.1l9.164,3.659v32.6Zm-.545.036-9.611.632V-90.151l9.611,3.838Zm-10.154.669-8.979.592V-93.957l8.979,3.581Zm-9.523.632-6.58.434V-96.8l6.58,2.628Zm-12.761.843-3.565.235v-53.882l3.565,1.424Zm-4.108.271-2.194.144v-55.155l2.194.876Zm-11.332-55.963-8.1,5.121v-8.515l8.1-5.963ZM289.8-97.273l-7.773,4.916v-7.651l7.773-5.724Zm-8.322-3.011-5.793,4.266v-41.729l5.793,3.034Zm-6.337-37.605v42.272l-4.408,3.246v-47.97l4.68,2.45Zm0,42.949v6.832h.162l-4.568,2.894v-6.48Zm-4.951,10.067-3.327,2.107v-6.077l3.327-2.45Zm-5.477,3.465-56.25,35.576L264.68-87.24v5.831ZM193.729-47.82V-62.462l4.224,20.745Zm-.545-.787-2.976-4.3V-79.746l2.976,14.618Zm-3.52-5.088-2.758-3.986V-95.964l2.758,13.545Zm-3.3-4.772-1.769-2.557v-46.3l1.769,8.687Zm-2.317-3.343-1.2-1.728v-52.33l1.2,5.872Zm0,1.957v11.271l-1.2-.673V-61.579Zm-1.74,10.295-.709-.4V-63.379l.709,1.023Zm-51.031-28.48L109.59-73.943l-5.2-2V-93.562Zm-22.7,4.281-4.179.787v-2.4Zm-72.6,62.219V21.994l-1.3.489v-34.4Zm34.7,21.082,15.863,5.981L50.6,33.116,35.14,22.89Zm16.562,6.245,25.321,9.548L78.215,51.381,51.123,33.461Zm-9.842,37.2V77.115L68.9,85.266,27.379,45.087,49.721,34.153Zm0,24.872V93.482l-8.1-7.841ZM77.7,95.293h1.169l.7-.808h0l2.579-2.878v13.254l-9.7,12.072V90.208ZM94.125,78.242l28.32-31.6,5.223,2.466L100.4,83.034Zm28.7-32.022L133.81,33.96l4.635,1.745L128.016,48.673Zm16.154-10.313,26.744,10.075L159.028,63.31l-30.5-14.4Zm51.876,19.544,1.174.442h-.265V71.769l-.909.369Zm1.454.548,1,.375v14.77l-1,.4Zm1.541.58,2.515.948h-.27V70.012l-2.247.911Zm2.79,1.053,2.089.787.112-.062V68.893l-2.2.893Zm2.745.421.721-.4V16.919l1.357-.295V67.832l-2.077.843Zm2.349-41.486,3.723-.81V66.195h.053l-3.5,1.42V16.565Zm4-.87,4.081-.888v49.64L206,65.995V15.7Zm4.625-1.006,3.084-.672V62.978l-3.084,1.25Zm3.628-.79,2.488-.541,1.321,3.915V61.214l-3.809,1.544Zm4.351,4.983,4.424,13.126V59.188l-4.424,1.8Zm4.973,14.738,4.641,13.754v9.712l-4.641,1.882Zm5.186,15.366,2.338,6.931-2.338.948Zm0-1.7V22.6l4.769,9.9V54.934l-1.926.781ZM233.8,33.625l3.974,8.25V53.1L233.8,54.714ZM238.323,43l3.469,7.2v1.264l-3.469,1.406Zm3.469,5.946-3.469-7.2V8.66h-.273l3.742-.814ZM222.9,9.724,200.121-37.552,241.378,5.7ZM356.559-17.311V-49.334l4.624-.3-.037-.544-4.587.3V-82.218l12.448,4.972v57.329l-11.769,2.707ZM382.383-23,369.55-20.05V-77.037l12.833,5.126Zm.545-48.694,14.047,5.61v39.729l-14.047,3.231ZM413.7-30.2,397.518-26.48V-65.865L413.7-59.4ZM342.4-89.8,327.72-95.822V-110.5l14.678,7.69Zm-15.221-20.979v14.74L317.1-100.172V-116.06Zm-10.62-5.561V-100.4l-8.988-3.687v-14.739l1.769-1.3Zm-8.988-3.155v-1.552l1.231.645Zm-8.864-6.192h-.272v12.918l-8.1,5.964v-23.266Zm-28.246-14.792h-.272V-91.97l-3.327,2.45v-52.848ZM264.68-87.916l-62.725,46.2-1.171.737,63.9-100.2Zm-22.905-20.144-42.491,67.4-13.326-67.4Zm-59.468-10.482V-64.32l-.709-1.025v-56.681Zm-2.886-9.108V-68.49l-32.834-47.461ZM142.895-116.62V-119.2l1.426,2.057ZM127.93-140.789V-111.1l-1.021.377v-31.54Zm-2.653-1.824v32.5l-22.516,8.309v6.675L71.37-113.265ZM70.817-112.961l31.948,18.455v17.929L44.909-98.857ZM-4.789-71.8l49.07-26.715L102.762-76v3.332L24.77-57.98l-.442.534v10.28L-4.788-45.225ZM7.439,25.786V-44.947l16.888-1.126v30.719l.391.527,8.86,2.594V22.861l.243.454L49.2,33.79,26.963,44.68ZM-4.436,60.652,26.339,45.589,67.721,85.641,30.3,121.548ZM64.19,91.288,68.9,86.773,71.9,89.681v27.93L64.19,127.2Zm36.638-7.927,27.345-34.017,30.658,14.476-7.7,19.951V121.78Zm52.674-.678,13.748-36.13,21.426,8.072V73.749l1.5,1.008L231.025,58.19l8.265,24.492ZM299.919,29,211.745-31.193l95.515,57.864L302.1,29Zm10.1-1.291,2.272-1.053v2.429Zm2.817,1.706V26.4l3.912-1.813V31.78Zm4.457,2.7V24.335l3.792-1.756V34.407Zm4.333,2.625V22.328L326.638,20v17.77Zm5.559,3.371V19.753l4.354-2.017V40.742Zm4.9,2.967V17.488l5.561-2.577V44.446Zm6.11,4.336,5.2,3.147v67.736l-5.2,7.036Zm37.548,27.064V68.155l2.2,1.331Z" fill="#595651"/>
      <rect id="Rect치ngulo_2735" data-name="Rect치ngulo 2735" width="0.545" height="45.105" transform="translate(205.455 84.86)" fill="#595651"/>
    </g>
  </g>
</svg>
