<svg xmlns="http://www.w3.org/2000/svg" width="453" height="392" viewBox="0 0 453 392">
  <g id="Grupo_65469" data-name="Grupo 65469" transform="translate(-318 -23983)">
    <rect id="Rectángulo_9236" data-name="Rectángulo 9236" width="453" height="392" transform="translate(318 23983)" fill="none"/>
    <g id="layer1" transform="translate(322.575 24036.5)">
      <g id="g2897" transform="translate(0.425 0.5)">
        <path id="path2896" d="M158.325,149.091l4.222,3.529M135.1,128.068l17.168,15.9M180.007,96.69.69.674l98.324,91.9" transform="translate(-0.445 -0.513)" fill="none" stroke="green" stroke-width="1"/>
        <path id="path2902" d="M1.4.5H443.4" transform="translate(-0.5 -0.5)" fill="none" stroke="purple" stroke-width="1"/>
        <path id="path2951-6-4-6-7-0-5-6-2-9" d="M134.42,103.942c-18.54-18.008-41.152-1.068-36.8,20.78l2.878,20.755,3.679,3.507" transform="translate(-7.868 -7.882)" fill="none" stroke="#666" stroke-width="1"/>
        <path id="path2931" d="M92.525,132.116l7.668-3.1" transform="translate(-7.517 -10.397)" fill="none" stroke="#000" stroke-width="1"/>
        <path id="path2933" d="M91.641,127.888l7.668-2.937" transform="translate(-7.449 -10.084)" fill="none" stroke="#000" stroke-width="1"/>
        <path id="path2935" d="M91.641,124.753l6.771-2.366" transform="translate(-7.449 -9.886)" fill="none" stroke="#000" stroke-width="1"/>
        <path id="path2937" d="M91.375,122.529l5.221-2" transform="translate(-7.429 -9.743)" fill="none" stroke="#000" stroke-width="1"/>
        <path id="path3042-8-2" d="M138.457,104.576c17.075-13.889,42.426,1.7,36.156,27.476l-5.94,24.419-7.122,2.937" transform="translate(-11.054 -8.114)" fill="none" stroke="#666" stroke-width="1"/>
        <path id="path2939" d="M175.637,145.034l-6.037-5.058" transform="translate(-13.453 -11.241)" fill="none" stroke="#000" stroke-width="1"/>
        <path id="path2941" d="M176.37,140.859l-6.241-4.773" transform="translate(-13.493 -10.941)" fill="none" stroke="#000" stroke-width="1"/>
        <path id="path2943" d="M175.437,137.038l-5.751-3.957" transform="translate(-13.459 -10.71)" fill="none" stroke="#000" stroke-width="1"/>
        <path id="path2945" d="M117.182,188.068l7.886-3.514,4.138,4.848" transform="translate(-9.416 -14.673)" fill="none" stroke="#666" stroke-width="1"/>
        <path id="path2947" d="M125.3,178.723l-1.305-23.495c-.66-21.125,8.338-49.06,13.383-50.254" transform="translate(-9.938 -8.545)" fill="none" stroke="#666" stroke-width="1"/>
        <path id="path2949" d="M114.975,163.677l8.484-4.079,5.058,5.547" transform="translate(-9.246 -12.752)" fill="none" stroke="#666" stroke-width="1"/>
        <path id="path2951" d="M113.914,158.727l9.138-4.079,6.057,6.276" transform="translate(-9.164 -12.37)" fill="none" stroke="#666" stroke-width="1"/>
        <path id="path2951-3" d="M112.677,154.091l10.769-4.569,6.853,6.852" transform="translate(-9.069 -11.976)" fill="none" stroke="#666" stroke-width="1"/>
        <path id="path2951-6" d="M111.131,148.623l13.014-4.935,8.362,7.71" transform="translate(-8.95 -11.526)" fill="none" stroke="#666" stroke-width="1"/>
        <path id="path2951-6-2" d="M108.832,141.253l16.194-5.874,11.34,9.871" transform="translate(-8.773 -10.887)" fill="none" stroke="#666" stroke-width="1"/>
        <path id="path2951-6-0" d="M106.666,135.828l19.5-6.812,13.42,12.115" transform="translate(-8.606 -10.397)" fill="none" stroke="#666" stroke-width="1"/>
        <path id="path2951-6-5" d="M104.1,130.185l23.658-8.24,15.783,14.929" transform="translate(-8.409 -9.852)" fill="none" stroke="#666" stroke-width="1"/>
        <path id="path2951-6-9" d="M101.863,125.294l27.731-9.558,18.634,17.4" transform="translate(-8.236 -9.374)" fill="none" stroke="#666" stroke-width="1"/>
        <path id="path2951-6-4" d="M99.552,122.759l31.613-10.891,21.375,18.927" transform="translate(-8.058 -9.076)" fill="none" stroke="#666" stroke-width="1"/>
        <path id="path3042" d="M97.343,119.873l57.985-19.526" transform="translate(-7.888 -8.189)" fill="none" stroke="#666" stroke-width="1"/>
        <path id="path3042-8" d="M122.137,96.5l37.2,31.525" transform="translate(-9.798 -7.892)" fill="none" stroke="#666" stroke-width="1"/>
        <path id="path3092" d="M170.629,133.909c-11.205-15.331-36.024-26.233-38.112-26.139-7.168.322-16.832,2.977-22.244,5.122l-14.749,5.845" transform="translate(-7.748 -8.76)" fill="none" stroke="#666" stroke-width="1"/>
        <path id="path2927" d="M130.118,185.365l-.3-20.5c-.8-12.645,12.82-28.433,26.6-33.285,11.793-4.153,18.266,4.141,16.316,10.932l-5.873,23.657-6.363-4.731,5.711-22.19c1.03-3.4.34-5.935-.327-8.484" transform="translate(-10.387 -10.508)" fill="none" stroke="#000" stroke-width="1"/>
        <path id="path2904" d="M112.028,180.63.425.5,107.8,122.6" transform="translate(-0.425 -0.5)" fill="none" stroke="green" stroke-width="1"/>
        <path id="path2898" d="M80.474,91.655l45.743,200.171L113.95,129.241" transform="translate(-6.589 -7.52)" fill="none" stroke="blue" stroke-width="1"/>
        <path id="path2951-6-4-6" d="M140.316,109.089l21.344-7.315" transform="translate(-11.198 -8.299)" fill="none" stroke="#666" stroke-width="1"/>
        <path id="path2951-6-4-6-4" d="M144.833,110.8l20.767-6.738" transform="translate(-11.545 -8.475)" fill="none" stroke="#666" stroke-width="1"/>
        <path id="path2951-6-4-6-6" d="M149.956,114.042l19.037-6.853" transform="translate(-11.94 -8.716)" fill="none" stroke="#666" stroke-width="1"/>
        <path id="path2951-6-4-6-49" d="M154.957,116.975l16.96-6.161" transform="translate(-12.325 -8.995)" fill="none" stroke="#666" stroke-width="1"/>
        <path id="path2951-6-4-6-9" d="M161.582,121.59l13.73-4.776" transform="translate(-12.835 -9.457)" fill="none" stroke="#666" stroke-width="1"/>
        <path id="path2951-6-4-6-0" d="M167.081,126.158l10.038-3.969" transform="translate(-13.259 -9.871)" fill="none" stroke="#666" stroke-width="1"/>
        <path id="path2951-6-4-6-7" d="M172.833,130.11l5.076-1.546" transform="translate(-13.702 -10.362)" fill="none" stroke="#666" stroke-width="1"/>
        <path id="path2951-6-4-6-7-9" d="M175.394,133.177l2.423-.738" transform="translate(-13.899 -10.66)" fill="none" stroke="#666" stroke-width="1"/>
        <path id="path2951-6-4-6-7-8" d="M142.4,110.615l22.036,17.375" transform="translate(-11.358 -8.98)" fill="none" stroke="#666" stroke-width="1"/>
        <path id="path2951-6-4-6-7-0" d="M153.9,116.364l16.037,13.453" transform="translate(-12.243 -9.422)" fill="none" stroke="#666" stroke-width="1"/>
        <path id="path2951-6-4-6-7-0-0" d="M115.771,96.739l12.576,10.8" transform="translate(-9.307 -7.911)" fill="none" stroke="#666" stroke-width="1"/>
        <path id="path2951-6-4-6-7-0-2" d="M111.52,98.114l11.768,10.338" transform="translate(-8.98 -8.017)" fill="none" stroke="#666" stroke-width="1"/>
        <path id="path2951-6-4-6-7-0-5" d="M107.708,99.74l11.019,9.934" transform="translate(-8.686 -8.142)" fill="none" stroke="#666" stroke-width="1"/>
        <path id="path2951-6-4-6-7-0-5-6" d="M103.911,103.5l8.768,8.03" transform="translate(-8.394 -8.432)" fill="none" stroke="#666" stroke-width="1"/>
        <path id="path2951-6-4-6-7-0-5-6-2" d="M101.02,106.927l6.807,6.934" transform="translate(-8.171 -8.696)" fill="none" stroke="#666" stroke-width="1"/>
        <path id="path2951-6-4-6-7-0-51" d="M128.082,98.24l7.845,6.646" transform="translate(-10.255 -8.027)" fill="none" stroke="#666" stroke-width="1"/>
        <path id="path2951-6-4-6-7-0-5-6-2-2" d="M137.9,105.038l15.691-5.411" transform="translate(-11.011 -8.133)" fill="none" stroke="#666" stroke-width="1"/>
        <path id="path2900" d="M140.771,99.927l1.142-22.353m48.3,24.637-60.187,188.5,10.015-152.319" transform="translate(-10.405 -6.435)" fill="none" stroke="blue" stroke-width="1"/>
        <path id="path2894" d="M114.356,122.79,449.407.5,80.435,85.057" transform="translate(-6.586 -0.5)" fill="none" stroke="red" stroke-width="1"/>
        <path id="path2892" d="M96.077,139.663l-1.809.625m14.55-5.024-5.86,1.975m16.623,42.735L451.126.5,171.507,110.92" transform="translate(-7.652 -0.5)" fill="none" stroke="red" stroke-width="1"/>
        <path id="path2929" d="M115.343,183.826l-2.2-22.89c-1.446-14.355-12.192-41.166-18.6-41.117-4.4-.246-3.445,4.411-2.774,8.811l4.847,25,7.064-2.487-3.916-22.108c-.581-2.6-.073-3.338.285-4.892" transform="translate(-7.414 -9.688)" fill="none" stroke="#000" stroke-width="1"/>
      </g>
    </g>
  </g>
</svg>
