<svg xmlns="http://www.w3.org/2000/svg" width="453" height="392" viewBox="0 0 453 392">
  <g id="Grupo_65464" data-name="Grupo 65464" transform="translate(-318 -23302)">
    <rect id="Rectángulo_9236" data-name="Rectángulo 9236" width="453" height="392" transform="translate(318 23302)" fill="none"/>
    <g id="_2-punktperspektive" data-name=" 2-punktperspektive" transform="translate(324 23399.445)">
      <path id="path1888" d="M0,165.188l441.438-.008" fill="none" stroke="blue" stroke-width="1.016"/>
      <path id="path1890" d="M140.692,187.209,441.479,177.08" fill="none" stroke="red" stroke-width="1"/>
      <path id="path1886" d="M296.365,190.5l-282.4-25.421L188.27,195.455" fill="none" stroke="green" stroke-width="1"/>
      <path id="path1894" d="M198.137,197.111,441.479,184.08" fill="none" stroke="red" stroke-width="1"/>
      <path id="path1873" d="M140.566,186.978l.145-135.447L198.174.556,325.053,36l.034,154.542-14.288,1.2-14.425-1.274c-.127-69.845.094-61.393-.376-75.369-.509-14.858-10.966-25.453-21.794-33.9-23.549,18.315-22.051,19.9-21.9,103.763l-12.2.113-8.861-1.144c.052-67.774,2.225-70.313-11.144-86.328l-1,98.444-21,1.154-9.945-1.189c.095-108.782-.924-98.613-2.12-111.625-26.98,17.5-21.464,29.678-22.1,103.95l-16.593.068Z" fill="#fff" stroke="#000" stroke-width="1" fill-rule="evenodd"/>
      <path id="path1878" d="M198.089,197.248,198.144.558" fill="none" stroke="#000" stroke-width="1"/>
      <path id="path1880" d="M274.2,81.189c-11.29-9.075-30.008-12.051-46.276-10.751C244.118,101.92,239.41,119.28,240.1,184.956" fill="none" stroke="#000" stroke-linejoin="bevel" stroke-width="1"/>
      <path id="path1882" d="M147.387,188.308c-.025-13.683.272-25.152.1-49.782-.179-25.327.479-46.766,5.632-61.592,8.562-24.638,28.494-27.61,32.918,7.514" fill="none" stroke="#000" stroke-width="1"/>
      <path id="path1892" d="M198.108.7l243.4,67.252" fill="none" stroke="red" stroke-width="1"/>
      <path id="path1896" d="M140.726,51.443,441.51,103.882" fill="none" stroke="red" stroke-width="1"/>
      <g id="g5546">
        <g id="g5535">
          <path id="path1898" d="M147.411,118.828l17.029.878" fill="none" stroke="#000" stroke-width="1"/>
          <path id="path1900" d="M147.461,111.069l17.81,1.122" fill="none" stroke="#000" stroke-width="1"/>
          <path id="path1902" d="M148.436,102.14l19.81,1.27" fill="none" stroke="#000" stroke-width="1"/>
          <path id="path1904" d="M149.558,92.235l24.348,2.342" fill="none" stroke="#000" stroke-width="1"/>
          <path id="path1906" d="M151.705,83.307l30.838,3.513" fill="none" stroke="#000" stroke-width="1"/>
          <path id="path1908" d="M154.046,74.474l30.789,4.587" fill="none" stroke="#000" stroke-width="1"/>
          <path id="path1910" d="M157.17,67.692l26.347,4.343" fill="none" stroke="#000" stroke-width="1"/>
          <path id="path1912" d="M161.365,62.666l19.274,3.22" fill="none" stroke="#000" stroke-linecap="round" stroke-width="1"/>
          <path id="path1914" d="M166.391,59.251c.293.1,10.979,2,10.979,2" fill="none" stroke="#000" stroke-linecap="round" stroke-width="1"/>
        </g>
        <g id="g5514">
          <path id="path1916" d="M296.206,115.7c.121.025,14.516-2.39,14.516-2.39" fill="none" stroke="#000" stroke-width="1"/>
          <path id="path1918" d="M294.669,106.531l15.614-3.122" fill="none" stroke="#000" stroke-width="1"/>
          <path id="path1920" d="M290.521,98.094l18.054-4.732" fill="none" stroke="#000" stroke-width="1"/>
          <path id="path1922" d="M284.081,89.6l20.4-6.149" fill="none" stroke="#000" stroke-width="1"/>
          <path id="path1924" d="M275.054,81.7l24.884-8.2" fill="none" stroke="#000" stroke-width="1"/>
          <path id="path1926" d="M264.6,75.785l28.9-9.85" fill="none" stroke="#000" stroke-width="1"/>
          <path id="path1928" d="M251.926,71.742l33.911-12.784" fill="none" stroke="#000" stroke-linecap="round" stroke-linejoin="round" stroke-width="1"/>
          <path id="path1930" d="M239.971,70.278l37.717-16.1" fill="none" stroke="#000" stroke-width="1"/>
          <path id="path1932" d="M228.748,70.376l40.938-19.029" fill="none" stroke="#000" stroke-width="1"/>
          <path id="path1934" d="M235.775,61.447l24.4-11.027" fill="none" stroke="#000" stroke-width="1"/>
          <path id="path1936" d="M252.194,126.731l-12.15-1.414-8.807,1.537" fill="none" stroke="#000" stroke-width="1"/>
          <path id="path1938" d="M231.188,120.1l8.807-1.44,12.735,1.561" fill="none" stroke="#000" stroke-width="1"/>
          <path id="path1940" d="M253.682,112.434l-14.3-1.805L229.038,113" fill="none" stroke="#000" stroke-width="1"/>
          <path id="path1942" d="M225.822,105.848l12-3.659,17.711,2.293" fill="none" stroke="#000" stroke-width="1"/>
          <path id="path1944" d="M258.464,96.871,236.9,93.455l-15.418,5.562" fill="none" stroke="#000" stroke-width="1"/>
          <path id="path1946" d="M220.161,91.4l14.54-5.074,28.252,4.342" fill="none" stroke="#000" stroke-width="1"/>
          <path id="path1948" d="M268.613,85.305,232.7,79.011l-10.978,4.441" fill="none" stroke="#000" stroke-width="1"/>
          <path id="path1950" d="M224.358,76.427l6.1-2.878,42.6,8.295" fill="none" stroke="#000" stroke-width="1"/>
          <path id="path1952" d="M267.926,77.049c-.244,0-35.762-6.869-35.762-6.869" fill="none" stroke="#000" stroke-width="1"/>
        </g>
      </g>
      <path id="path1955" d="M310.815,191.729c.045-19.766-.231-46.14.045-77.229.155-17.466-5.768-35.114-15.978-47.117-17.415-20.474-45.814-26.021-67.011,2.943-7.306,11.714-7.656,19.163-7.758,27.519" fill="none" stroke="#000" stroke-width="1"/>
      <path id="path1884" d="M140.795,51.478,13.551,165.232,325.087,35.987" fill="none" stroke="green" stroke-width="1"/>
    </g>
  </g>
</svg>
