<svg xmlns="http://www.w3.org/2000/svg" width="100" height="100" viewBox="0 0 100 100">
  <g id="Grupo_66179" data-name="Grupo 66179" transform="translate(-396.908 19.861)">
    <rect id="Rectángulo_9618" data-name="Rectángulo 9618" width="38.71" height="9.677" transform="translate(427.554 68.849)" fill="#838f9b"/>
    <path id="Trazado_137325" data-name="Trazado 137325" d="M495.3,59.171V62.4a6.451,6.451,0,0,1-6.452,6.452H404.973a6.45,6.45,0,0,1-6.452-6.452V55.946h24.194l3.226,3.225Zm0,0" fill="#969faa"/>
    <path id="Trazado_137326" data-name="Trazado 137326" d="M480.779,1.107h8.065A6.451,6.451,0,0,1,495.3,7.559V59.171H425.941l-3.226-3.225H398.521V7.559a6.45,6.45,0,0,1,6.452-6.452Zm0,0" fill="#6bbcb1"/>
    <path id="Trazado_137327" data-name="Trazado 137327" d="M454.973-18.248V7.559h6.452V12.4l8.064-4.838h11.29V-18.248Zm0,0" fill="#e6e9ed"/>
    <path id="Trazado_137328" data-name="Trazado 137328" d="M447.247,17.881l8.888,1.613a6.466,6.466,0,0,1,5.29,6.355V49.494H413.037V25.849a6.466,6.466,0,0,1,5.29-6.355l8.936-1.613Zm0,0" fill="#ffeaa7"/>
    <path id="Trazado_137329" data-name="Trazado 137329" d="M438.844,30.139l1.613,9.678-3.226,3.225-3.226-3.225,1.613-9.678Zm0,0" fill="#ef7385"/>
    <path id="Trazado_137330" data-name="Trazado 137330" d="M441.8,25.719l-2.952,4.42h-3.226l-2.952-4.42,4.565-3.644Zm0,0" fill="#ed5565"/>
    <path id="Trazado_137331" data-name="Trazado 137331" d="M441.8,25.719l-4.565-3.644,6.452-4.839,3.564.645L445.3,28.526Zm0,0" fill="#ffc200"/>
    <path id="Trazado_137332" data-name="Trazado 137332" d="M432.666,25.719l-3.5,2.807-1.9-10.645,3.516-.645,6.452,4.839Zm0,0" fill="#ffc200"/>
    <path id="Trazado_137333" data-name="Trazado 137333" d="M443.683,12.623v4.613l-6.452,4.839-6.452-4.839V12.623a6.4,6.4,0,0,0,3.985,1.387H439.7a6.4,6.4,0,0,0,3.985-1.387Zm0,0" fill="#f0d0b4"/>
    <path id="Trazado_137334" data-name="Trazado 137334" d="M445.3-10.183l-1.839-1.839a10.266,10.266,0,0,0-7.258-3,10.67,10.67,0,0,0-7.259,2.71,9.32,9.32,0,0,0-3,6.967V2.817a6.321,6.321,0,0,0,.677,2.87l2.371,4.759a6.516,6.516,0,0,0,5.775,3.564H439.7a6.516,6.516,0,0,0,5.775-3.564l2.371-4.759a6.321,6.321,0,0,0,.677-2.87V-4.957a5.828,5.828,0,0,0-3.225-5.226Zm0,0" fill="#f0d0b4"/>
    <rect id="Rectángulo_9619" data-name="Rectángulo 9619" width="3.226" height="3.226" transform="translate(403.36 60.784)"/>
    <rect id="Rectángulo_9620" data-name="Rectángulo 9620" width="3.226" height="3.226" transform="translate(409.812 60.784)"/>
    <rect id="Rectángulo_9621" data-name="Rectángulo 9621" width="3.226" height="3.226" transform="translate(416.263 60.784)"/>
    <rect id="Rectángulo_9622" data-name="Rectángulo 9622" width="3.226" height="3.226" transform="translate(466.263 -13.409)"/>
    <rect id="Rectángulo_9623" data-name="Rectángulo 9623" width="3.226" height="3.226" transform="translate(459.812 -13.409)"/>
    <rect id="Rectángulo_9624" data-name="Rectángulo 9624" width="3.226" height="3.226" transform="translate(472.715 -13.409)"/>
    <path id="Trazado_137335" data-name="Trazado 137335" d="M488.844-.506h-9.678V5.946H469.042l-6.005,3.6v-3.6h-6.451V-16.635h22.58v12.9h3.226V-19.861H453.36V9.171h6.452v6.075l10.124-6.075h12.456V2.72h6.452a4.845,4.845,0,0,1,4.839,4.839v50H426.608l-3.225-3.226H400.134V7.559a4.845,4.845,0,0,1,4.839-4.839h19.355v.09a8.14,8.14,0,0,0,.85,3.607l2.376,4.748a8.056,8.056,0,0,0,1.612,2.177v2.547l-11.12,2.021a8.063,8.063,0,0,0-6.621,7.935V51.107h51.612V25.845a8.059,8.059,0,0,0-6.621-7.933L445.3,15.891V13.344a8.044,8.044,0,0,0,1.612-2.178l2.376-4.749a8.141,8.141,0,0,0,.85-3.607V-4.963a7.4,7.4,0,0,0-3.871-6.533l-1.658-1.658a11.8,11.8,0,0,0-8.4-3.481A11.891,11.891,0,0,0,424.328-4.758h3.226a8.66,8.66,0,0,1,8.651-8.651,8.6,8.6,0,0,1,6.118,2.533l2.016,2.018.236.118a4.2,4.2,0,0,1,2.333,3.776V2.809a4.867,4.867,0,0,1-.509,2.164l-2.376,4.748A4.809,4.809,0,0,1,439.7,12.4h-4.93a4.81,4.81,0,0,1-4.327-2.674l-2.376-4.748a4.887,4.887,0,0,1-.508-2.165V-.506H404.973a8.074,8.074,0,0,0-8.065,8.065V62.4a8.074,8.074,0,0,0,8.065,8.065h20.968v6.451h-6.452v3.226h54.839V76.913h-6.452V70.462h20.968a8.074,8.074,0,0,0,8.064-8.065V7.559a8.074,8.074,0,0,0-8.064-8.065ZM437.231,24.14l2.4,1.917-1.645,2.469h-1.5l-1.647-2.469Zm6.855-5.191,1.136.206-1.067,6.393-4.292-3.433ZM438.73,39.264l-1.5,1.5-1.5-1.5,1.252-7.512h.494ZM430.3,25.548l-1.066-6.393,1.136-.206,4.223,3.167Zm29.507.3V47.881H453.36V26.913h-3.226V47.881H424.328V26.913H421.1V47.881H414.65V25.845a4.838,4.838,0,0,1,3.973-4.76l7.444-1.354L428.028,31.5l4.278-3.422,1.617,2.422-1.645,9.867,4.953,4.954,4.953-4.954L440.539,30.5l1.617-2.422,4.278,3.422,1.961-11.771,7.444,1.354a4.839,4.839,0,0,1,3.973,4.76ZM439.7,15.623a8.155,8.155,0,0,0,2.375-.361V16.43l-4.839,3.629-4.839-3.629V15.26a8.085,8.085,0,0,0,2.375.363Zm49.149,51.613H432.392v3.226H464.65v6.451H429.166V67.236H404.973a4.845,4.845,0,0,1-4.839-4.839V57.559h21.913l3.226,3.225h68.41V62.4a4.845,4.845,0,0,1-4.839,4.839Zm0,0"/>
    <rect id="Rectángulo_9625" data-name="Rectángulo 9625" width="16.129" height="3.226" transform="translate(459.812 -6.958)"/>
    <rect id="Rectángulo_9626" data-name="Rectángulo 9626" width="16.129" height="3.226" transform="translate(459.812 -0.506)"/>
  </g>
</svg>
