<svg xmlns="http://www.w3.org/2000/svg" width="36" height="36" viewBox="0 0 36 36">
  <g id="Grupo_67488" data-name="Grupo 67488" transform="translate(-825 -1550)">
    <circle id="Elipse_5620" data-name="Elipse 5620" cx="18" cy="18" r="18" transform="translate(825 1550)" fill="#dd9c18"/>
    <path id="Trazado_138556" data-name="Trazado 138556" d="M22.5,21H12.578V18.852l4.57-4.8q1.689-1.924,1.689-3.057a2.126,2.126,0,0,0-.4-1.4,1.43,1.43,0,0,0-1.162-.479,1.447,1.447,0,0,0-1.221.64,2.629,2.629,0,0,0-.469,1.6h-3.3a4.67,4.67,0,0,1,.654-2.417A4.588,4.588,0,0,1,14.756,7.2a5.4,5.4,0,0,1,2.6-.625A5.308,5.308,0,0,1,20.9,7.641,3.8,3.8,0,0,1,22.148,10.7a4.439,4.439,0,0,1-.312,1.636A7.173,7.173,0,0,1,20.864,14a24.476,24.476,0,0,1-2.124,2.339L16.9,18.461h5.6Z" transform="translate(826 1557)" fill="#fff"/>
  </g>
</svg>
