<svg xmlns="http://www.w3.org/2000/svg" width="100" height="100" viewBox="0 0 100 100">
  <g id="Grupo_66180" data-name="Grupo 66180" transform="translate(-404.784 -106.879)">
    <path id="Trazado_137336" data-name="Trazado 137336" d="M499.3,172.363a24.2,24.2,0,0,0-3.032-7.29l2.29-3.194-6.839-6.839-3.193,2.29a24.237,24.237,0,0,0-7.291-3.032l-.645-3.87h-9.677l-.645,3.87a24.22,24.22,0,0,0-7.29,3.032l-3.194-2.29-6.839,6.839,2.29,3.194a24.221,24.221,0,0,0-3.032,7.29l-3.871.645v9.678l3.871.645a24.232,24.232,0,0,0,3.032,7.29l-2.29,3.193,6.839,6.84,3.194-2.291a24.2,24.2,0,0,0,7.29,3.032l.645,3.871h9.677l.645-3.871a24.212,24.212,0,0,0,7.291-3.032l3.193,2.291,6.839-6.84-2.29-3.193a24.206,24.206,0,0,0,3.032-7.29l3.871-.645v-9.678Zm-23.548,16.774a11.29,11.29,0,1,1,11.29-11.29,11.29,11.29,0,0,1-11.29,11.29Zm0,0" fill="#ffc200"/>
    <path id="Trazado_137337" data-name="Trazado 137337" d="M408.01,114.944v-6.452h32.258v12.9H408.01Zm0,0" fill="#6bbcb1"/>
    <path id="Trazado_137338" data-name="Trazado 137338" d="M414.461,158.492a6.45,6.45,0,0,1-6.451,6.452,1.619,1.619,0,0,1-1.613-1.613V139.137l4.838-8.064v-9.678h25.807v9.678l3.226,9.677v27.419a3.249,3.249,0,0,1-3.226,3.226,3.235,3.235,0,0,1-3.226-3.226V171.4a3.235,3.235,0,0,1-3.226,3.226,3.247,3.247,0,0,1-3.225-3.226v3.226a3.236,3.236,0,0,1-3.226,3.226,3.249,3.249,0,0,1-3.226-3.226V171.4a3.235,3.235,0,0,1-3.226,3.226,3.249,3.249,0,0,1-3.226-3.226Zm0,0" fill="#f0d0b4"/>
    <path id="Trazado_137339" data-name="Trazado 137339" d="M486.962,113.331h16.209v25.806H480.59l-4.838,4.839-4.839-4.839H448.332V113.331Zm0,0" fill="#e6e9ed"/>
    <path id="Trazado_137340" data-name="Trazado 137340" d="M486.962,113.331a3.831,3.831,0,0,1,.08.871,5.7,5.7,0,0,1-1.677,4.032l-9.613,9.613-9.613-9.613a5.7,5.7,0,0,1-1.678-4.032,3.774,3.774,0,0,1,.081-.871,5.614,5.614,0,0,1,1.6-3.162,5.686,5.686,0,0,1,8.064,0l1.549,1.549,1.548-1.549a5.687,5.687,0,0,1,8.065,0,5.621,5.621,0,0,1,1.6,3.162Zm0,0" fill="#ed5565"/>
    <path id="Trazado_137341" data-name="Trazado 137341" d="M475.752,160.1a17.742,17.742,0,1,0,17.742,17.742A17.731,17.731,0,0,0,475.752,160.1Zm9.032,24.5-2.274,2.274a11.278,11.278,0,0,1-15.791-15.79l2.275-2.275a11.278,11.278,0,0,1,15.79,15.791Zm0,0" fill="#ffc200"/>
    <path id="Trazado_137342" data-name="Trazado 137342" d="M406.4,123.008h3.226v7.618l-4.839,8.065v24.64a3.229,3.229,0,0,0,3.226,3.226,7.98,7.98,0,0,0,4.838-1.655V171.4a4.824,4.824,0,0,0,6.64,4.484,4.811,4.811,0,0,0,9.3,0,4.8,4.8,0,0,0,6.452-3.226,4.8,4.8,0,0,0,1.8.355,4.845,4.845,0,0,0,4.839-4.839v-27.68l-3.226-9.678v-7.8h3.226V106.879H406.4Zm32.258,18v27.157a1.613,1.613,0,0,1-3.226,0V148.815H432.2V171.4a1.613,1.613,0,0,1-3.226,0v-22.58h-3.225v25.806a1.613,1.613,0,0,1-3.226,0V148.815H419.3V171.4a1.613,1.613,0,1,1-3.226,0V147.869l1.627-1.627a10.884,10.884,0,0,0,3.212-7.751V134.3h-3.226v4.193a7.7,7.7,0,0,1-2.266,5.472l-2.573,2.571v11.958a4.845,4.845,0,0,1-4.838,4.839V139.584l4.838-8.065v-8.511h22.581v8.326Zm0-30.907v3.226H432.2v3.226h6.452v3.225H409.623v-3.225h19.354v-3.226H409.623v-3.226Zm0,0"/>
    <path id="Trazado_137343" data-name="Trazado 137343" d="M498.2,165.161l2.468-3.456-8.776-8.776-3.457,2.468a25.556,25.556,0,0,0-5.782-2.4l-.7-4.181h-12.41l-.7,4.184a25.551,25.551,0,0,0-5.782,2.4l-3.457-2.468-8.776,8.777,2.468,3.456a25.466,25.466,0,0,0-2.4,5.783l-4.185.7v12.41l4.185.7a25.512,25.512,0,0,0,2.4,5.782l-2.468,3.457,8.776,8.776,3.457-2.468a25.509,25.509,0,0,0,5.782,2.4l.7,4.184h12.41l.7-4.184a25.554,25.554,0,0,0,5.782-2.4l3.457,2.468,8.776-8.776L498.2,190.53a25.517,25.517,0,0,0,2.4-5.782l4.184-.7v-12.41l-4.184-.7a25.569,25.569,0,0,0-2.4-5.785Zm3.358,16.158-3.589.6-.243,1.048a22.367,22.367,0,0,1-2.82,6.792l-.571.915,2.118,2.966-4.909,4.909-2.966-2.117-.915.571a22.386,22.386,0,0,1-6.792,2.819l-1.049.243-.6,3.589h-6.945l-.6-3.589-1.049-.243A22.349,22.349,0,0,1,463.841,197l-.915-.571-2.966,2.117-4.91-4.909,2.118-2.966-.571-.915a22.391,22.391,0,0,1-2.82-6.792l-.243-1.048-3.589-.6v-6.945l3.589-.6.243-1.048a22.323,22.323,0,0,1,2.82-6.792l.571-.915-2.118-2.966,4.91-4.91,2.966,2.118.915-.571a22.381,22.381,0,0,1,6.791-2.819l1.049-.244.6-3.589h6.945l.6,3.589,1.049.244a22.355,22.355,0,0,1,6.792,2.819l.915.571,2.966-2.118,4.909,4.91-2.118,2.966.571.915a22.353,22.353,0,0,1,2.82,6.792l.243,1.048,3.589.6Zm0,0"/>
    <path id="Trazado_137344" data-name="Trazado 137344" d="M475.752,158.492a19.355,19.355,0,1,0,19.354,19.355,19.376,19.376,0,0,0-19.354-19.355Zm0,35.484a16.129,16.129,0,1,1,16.129-16.129,16.147,16.147,0,0,1-16.129,16.129Zm0,0"/>
    <path id="Trazado_137345" data-name="Trazado 137345" d="M475.752,187.524a9.687,9.687,0,0,1-9.678-9.677,9.587,9.587,0,0,1,1.936-5.785l-2.582-1.935a12.888,12.888,0,0,0,18.043,18.044l-1.934-2.583a9.58,9.58,0,0,1-5.785,1.936Zm0,0"/>
    <path id="Trazado_137346" data-name="Trazado 137346" d="M475.752,164.944a12.791,12.791,0,0,0-7.72,2.579l1.934,2.582a9.588,9.588,0,0,1,5.786-1.936,9.687,9.687,0,0,1,9.677,9.678,9.58,9.58,0,0,1-1.936,5.785l2.583,1.934a12.887,12.887,0,0,0-10.324-20.622Zm0,0"/>
    <path id="Trazado_137347" data-name="Trazado 137347" d="M488.193,111.718a7.288,7.288,0,0,0-12.027-2.695l-.414.414-.415-.414a7.288,7.288,0,0,0-12.027,2.695H446.719V140.75h23.526l5.507,5.507,5.506-5.507h23.526V111.718Zm-18.028-1.613a4.065,4.065,0,0,1,2.892,1.2l2.7,2.694,2.695-2.694a4.089,4.089,0,1,1,5.783,5.783l-8.478,8.479-8.479-8.479a4.089,4.089,0,0,1,2.892-6.982Zm31.393,27.419H479.923l-4.171,4.171-4.171-4.171H449.945v-22.58h12.976a7.241,7.241,0,0,0,2.07,4.424l10.761,10.76,10.759-10.76a7.231,7.231,0,0,0,2.071-4.424h12.976Zm0,0"/>
    <rect id="Rectángulo_9627" data-name="Rectángulo 9627" width="3.226" height="3.226" transform="translate(453.171 131.073)"/>
    <rect id="Rectángulo_9628" data-name="Rectángulo 9628" width="3.226" height="3.226" transform="translate(459.623 131.073)"/>
    <rect id="Rectángulo_9629" data-name="Rectángulo 9629" width="3.226" height="3.226" transform="translate(466.074 131.073)"/>
    <rect id="Rectángulo_9630" data-name="Rectángulo 9630" width="3.226" height="3.226" transform="translate(482.203 131.073)"/>
    <rect id="Rectángulo_9631" data-name="Rectángulo 9631" width="3.226" height="3.226" transform="translate(488.655 131.073)"/>
    <rect id="Rectángulo_9632" data-name="Rectángulo 9632" width="3.226" height="3.226" transform="translate(495.106 131.073)"/>
    <rect id="Rectángulo_9633" data-name="Rectángulo 9633" width="3.226" height="3.226" transform="translate(409.623 203.653)"/>
    <rect id="Rectángulo_9634" data-name="Rectángulo 9634" width="3.226" height="12.903" transform="translate(409.623 187.524)"/>
    <rect id="Rectángulo_9635" data-name="Rectángulo 9635" width="3.226" height="3.226" transform="translate(422.526 203.653)"/>
    <rect id="Rectángulo_9636" data-name="Rectángulo 9636" width="3.226" height="12.903" transform="translate(422.526 187.524)"/>
    <rect id="Rectángulo_9637" data-name="Rectángulo 9637" width="3.226" height="22.581" transform="translate(416.074 182.686)"/>
    <rect id="Rectángulo_9638" data-name="Rectángulo 9638" width="3.226" height="3.226" transform="translate(435.429 203.653)"/>
    <rect id="Rectángulo_9639" data-name="Rectángulo 9639" width="3.226" height="12.903" transform="translate(435.429 187.524)"/>
    <rect id="Rectángulo_9640" data-name="Rectángulo 9640" width="3.226" height="22.581" transform="translate(428.977 182.686)"/>
  </g>
</svg>
