<svg xmlns="http://www.w3.org/2000/svg" width="507.176" height="514.071" viewBox="0 0 507.176 514.071">
  <g id="Grupo_65545" data-name="Grupo 65545" transform="translate(-16.266 -16.2)">
    <g id="Grupo_65513" data-name="Grupo 65513" transform="translate(81.909 380.125)">
      <g id="Grupo_65511" data-name="Grupo 65511" transform="translate(9.111)">
        <path id="Trazado_134716" data-name="Trazado 134716" d="M26.616,116.644c-.476-.559-.6-1.253-.249-1.548L85.423,64.534c.34-.294,1.012-.075,1.495.483s.6,1.253.257,1.555L28.111,117.149C27.771,117.429,27.107,117.21,26.616,116.644Z" transform="translate(-26.168 -64.403)" fill="#e9a419"/>
      </g>
      <g id="Grupo_65512" data-name="Grupo 65512" transform="translate(0 40.79)">
        <path id="Trazado_134717" data-name="Trazado 134717" d="M42.433,88.436A10.586,10.586,0,1,1,43.588,73.5,10.573,10.573,0,0,1,42.433,88.436Z" transform="translate(-24.961 -69.805)" fill="#e9a419"/>
      </g>
    </g>
    <g id="Grupo_65516" data-name="Grupo 65516" transform="translate(383.068 380.125)">
      <g id="Grupo_65514" data-name="Grupo 65514">
        <path id="Trazado_134718" data-name="Trazado 134718" d="M125.607,116.644c.476-.559.589-1.253.249-1.548L66.793,64.534c-.332-.294-1-.075-1.487.483s-.6,1.253-.257,1.555L124.1,117.149C124.452,117.429,125.116,117.21,125.607,116.644Z" transform="translate(-64.85 -64.403)" fill="#d4184c"/>
      </g>
      <g id="Grupo_65515" data-name="Grupo 65515" transform="translate(49.147 40.79)">
        <path id="Trazado_134719" data-name="Trazado 134719" d="M75.064,88.436A10.586,10.586,0,1,0,73.9,73.5,10.565,10.565,0,0,0,75.064,88.436Z" transform="translate(-71.359 -69.805)" fill="#d4184c"/>
      </g>
    </g>
    <g id="Grupo_65519" data-name="Grupo 65519" transform="translate(375.575 102.759)">
      <g id="Grupo_65517" data-name="Grupo 65517" transform="translate(0 9.093)">
        <path id="Trazado_134720" data-name="Trazado 134720" d="M124.611,29.484c.476.559.589,1.253.257,1.548L65.8,81.609c-.34.3-1.019.076-1.487-.483-.491-.574-.6-1.268-.264-1.563L123.108,29C123.456,28.706,124.127,28.925,124.611,29.484Z" transform="translate(-63.857 -28.87)" fill="#4d3b36"/>
      </g>
      <g id="Grupo_65518" data-name="Grupo 65518" transform="translate(49.143)">
        <path id="Trazado_134721" data-name="Trazado 134721" d="M74.064,30.208a10.594,10.594,0,1,1-1.155,14.926A10.585,10.585,0,0,1,74.064,30.208Z" transform="translate(-70.366 -27.665)" fill="#4d3b36"/>
      </g>
    </g>
    <g id="Grupo_65522" data-name="Grupo 65522" transform="translate(81.911 102.759)">
      <g id="Grupo_65520" data-name="Grupo 65520" transform="translate(9.113 9.093)">
        <path id="Trazado_134722" data-name="Trazado 134722" d="M26.621,29.484c-.483.559-.6,1.253-.257,1.548L85.427,81.609c.34.3,1.012.076,1.487-.483.483-.574.6-1.268.257-1.563L28.115,29C27.776,28.706,27.1,28.925,26.621,29.484Z" transform="translate(-26.168 -28.87)" fill="#11728d"/>
      </g>
      <g id="Grupo_65521" data-name="Grupo 65521">
        <path id="Trazado_134723" data-name="Trazado 134723" d="M42.431,30.208a10.589,10.589,0,1,0,1.155,14.926A10.576,10.576,0,0,0,42.431,30.208Z" transform="translate(-24.961 -27.665)" fill="#11728d"/>
      </g>
    </g>
    <g id="Grupo_65523" data-name="Grupo 65523" transform="translate(206.663 349.206)" opacity="0.1" style="mix-blend-mode: multiply;isolation: isolate">
      <path id="Trazado_134724" data-name="Trazado 134724" d="M87.6,188.348a61.036,61.036,0,1,0-44.25-74.11A61.12,61.12,0,0,0,87.6,188.348Z" transform="translate(-41.485 -9.138)" fill="#fff" fill-rule="evenodd"/>
      <path id="Trazado_134725" data-name="Trazado 134725" d="M87.608,187.976a61.035,61.035,0,1,0-44.25-74.11A61.124,61.124,0,0,0,87.608,187.976Z" transform="translate(-41.415 -11.574)" fill="#f3f3f3" fill-rule="evenodd"/>
      <path id="Trazado_134726" data-name="Trazado 134726" d="M87.616,187.6a61.036,61.036,0,1,0-44.25-74.11A61.12,61.12,0,0,0,87.616,187.6Z" transform="translate(-41.347 -14.009)" fill="#e7e7e7" fill-rule="evenodd"/>
      <path id="Trazado_134727" data-name="Trazado 134727" d="M87.629,187.23a61.035,61.035,0,1,0-44.25-74.11A61.124,61.124,0,0,0,87.629,187.23Z" transform="translate(-41.277 -16.445)" fill="#dbdbdb" fill-rule="evenodd"/>
      <path id="Trazado_134728" data-name="Trazado 134728" d="M87.633,186.858a61.036,61.036,0,1,0-44.243-74.11A61.12,61.12,0,0,0,87.633,186.858Z" transform="translate(-41.206 -18.882)" fill="#cecece" fill-rule="evenodd"/>
      <path id="Trazado_134729" data-name="Trazado 134729" d="M87.65,186.486a61.035,61.035,0,1,0-44.25-74.11A61.124,61.124,0,0,0,87.65,186.486Z" transform="translate(-41.14 -21.318)" fill="#c2c2c2" fill-rule="evenodd"/>
      <path id="Trazado_134730" data-name="Trazado 134730" d="M87.654,186.114A61.036,61.036,0,1,0,43.411,112,61.12,61.12,0,0,0,87.654,186.114Z" transform="translate(-41.068 -23.755)" fill="#b6b6b6" fill-rule="evenodd"/>
      <path id="Trazado_134731" data-name="Trazado 134731" d="M87.671,185.742a61.035,61.035,0,1,0-44.25-74.11A61.113,61.113,0,0,0,87.671,185.742Z" transform="translate(-41.002 -26.191)" fill="#aaa" fill-rule="evenodd"/>
      <path id="Trazado_134732" data-name="Trazado 134732" d="M87.675,185.362a61.033,61.033,0,1,0-44.243-74.1A61.116,61.116,0,0,0,87.675,185.362Z" transform="translate(-40.93 -28.628)" fill="#9e9e9e" fill-rule="evenodd"/>
      <path id="Trazado_134733" data-name="Trazado 134733" d="M87.692,184.99a61.032,61.032,0,1,0-44.25-74.1A61.108,61.108,0,0,0,87.692,184.99Z" transform="translate(-40.865 -31.064)" fill="#929292" fill-rule="evenodd"/>
      <path id="Trazado_134734" data-name="Trazado 134734" d="M87.7,184.618a61.033,61.033,0,1,0-44.243-74.1A61.116,61.116,0,0,0,87.7,184.618Z" transform="translate(-40.792 -33.501)" fill="#868686" fill-rule="evenodd"/>
      <path id="Trazado_134735" data-name="Trazado 134735" d="M87.713,184.246a61.033,61.033,0,1,0-44.25-74.1A61.111,61.111,0,0,0,87.713,184.246Z" transform="translate(-40.727 -35.938)" fill="#797979" fill-rule="evenodd"/>
      <path id="Trazado_134736" data-name="Trazado 134736" d="M87.717,183.878a61.036,61.036,0,1,0-44.243-74.1A61.116,61.116,0,0,0,87.717,183.878Z" transform="translate(-40.655 -38.378)" fill="#6d6d6d" fill-rule="evenodd"/>
      <path id="Trazado_134737" data-name="Trazado 134737" d="M87.734,183.506a61.036,61.036,0,1,0-44.25-74.1A61.111,61.111,0,0,0,87.734,183.506Z" transform="translate(-40.589 -40.815)" fill="#616161" fill-rule="evenodd"/>
      <path id="Trazado_134738" data-name="Trazado 134738" d="M87.738,183.134a61.036,61.036,0,1,0-44.243-74.1A61.119,61.119,0,0,0,87.738,183.134Z" transform="translate(-40.517 -43.251)" fill="#555" fill-rule="evenodd"/>
      <path id="Trazado_134739" data-name="Trazado 134739" d="M87.755,182.762a61.036,61.036,0,1,0-44.25-74.1A61.111,61.111,0,0,0,87.755,182.762Z" transform="translate(-40.451 -45.688)" fill="#494949" fill-rule="evenodd"/>
      <path id="Trazado_134740" data-name="Trazado 134740" d="M87.759,182.39a61.036,61.036,0,1,0-44.243-74.1A61.119,61.119,0,0,0,87.759,182.39Z" transform="translate(-40.38 -48.125)" fill="#3d3d3d" fill-rule="evenodd"/>
      <path id="Trazado_134741" data-name="Trazado 134741" d="M87.776,182.018a61.036,61.036,0,1,0-44.25-74.1A61.111,61.111,0,0,0,87.776,182.018Z" transform="translate(-40.314 -50.561)" fill="#313131" fill-rule="evenodd"/>
      <path id="Trazado_134742" data-name="Trazado 134742" d="M87.78,181.646a61.036,61.036,0,1,0-44.243-74.1A61.119,61.119,0,0,0,87.78,181.646Z" transform="translate(-40.242 -52.998)" fill="#242424" fill-rule="evenodd"/>
      <path id="Trazado_134743" data-name="Trazado 134743" d="M87.793,181.274a61.036,61.036,0,1,0-44.243-74.1A61.111,61.111,0,0,0,87.793,181.274Z" transform="translate(-40.172 -55.434)" fill="#181818" fill-rule="evenodd"/>
      <path id="Trazado_134744" data-name="Trazado 134744" d="M87.8,180.9a61.036,61.036,0,1,0-44.243-74.1A61.108,61.108,0,0,0,87.8,180.9Z" transform="translate(-40.104 -57.871)" fill="#0c0c0c" fill-rule="evenodd"/>
      <path id="Trazado_134745" data-name="Trazado 134745" d="M87.814,180.522a61.033,61.033,0,1,0-44.243-74.1A61.1,61.1,0,0,0,87.814,180.522Z" transform="translate(-40.035 -60.307)" fill-rule="evenodd"/>
    </g>
    <g id="Grupo_65524" data-name="Grupo 65524" transform="translate(205.833 16.2)" opacity="0.1" style="mix-blend-mode: multiply;isolation: isolate">
      <path id="Trazado_134746" data-name="Trazado 134746" d="M117.557,18.055a61.035,61.035,0,1,0,44.258,74.118A61.112,61.112,0,0,0,117.557,18.055Z" transform="translate(-39.934 -16.2)" fill="#fff" fill-rule="evenodd"/>
      <path id="Trazado_134747" data-name="Trazado 134747" d="M117.547,18.417a61.035,61.035,0,1,0,44.25,74.11A61.114,61.114,0,0,0,117.547,18.417Z" transform="translate(-39.999 -13.829)" fill="#f3f3f3" fill-rule="evenodd"/>
      <path id="Trazado_134748" data-name="Trazado 134748" d="M117.532,18.775A61.035,61.035,0,1,0,161.79,92.893,61.113,61.113,0,0,0,117.532,18.775Z" transform="translate(-40.067 -11.462)" fill="#e7e7e7" fill-rule="evenodd"/>
      <path id="Trazado_134749" data-name="Trazado 134749" d="M117.526,19.14a61.035,61.035,0,1,0,44.25,74.11A61.114,61.114,0,0,0,117.526,19.14Z" transform="translate(-40.137 -9.094)" fill="#dbdbdb" fill-rule="evenodd"/>
      <path id="Trazado_134750" data-name="Trazado 134750" d="M117.511,19.5a61.032,61.032,0,1,0,44.258,74.11A61.1,61.1,0,0,0,117.511,19.5Z" transform="translate(-40.205 -6.723)" fill="#cecece" fill-rule="evenodd"/>
      <path id="Trazado_134751" data-name="Trazado 134751" d="M117.5,19.863a61.035,61.035,0,1,0,44.25,74.118A61.114,61.114,0,0,0,117.5,19.863Z" transform="translate(-40.274 -4.358)" fill="#c2c2c2" fill-rule="evenodd"/>
      <path id="Trazado_134752" data-name="Trazado 134752" d="M117.49,20.225a61.035,61.035,0,1,0,44.258,74.11A61.1,61.1,0,0,0,117.49,20.225Z" transform="translate(-40.342 -1.987)" fill="#b6b6b6" fill-rule="evenodd"/>
      <path id="Trazado_134753" data-name="Trazado 134753" d="M117.484,20.587a61.032,61.032,0,1,0,44.25,74.11A61.115,61.115,0,0,0,117.484,20.587Z" transform="translate(-40.412 0.384)" fill="#aaa" fill-rule="evenodd"/>
      <path id="Trazado_134754" data-name="Trazado 134754" d="M117.469,20.948a61.035,61.035,0,1,0,44.258,74.118A61.1,61.1,0,0,0,117.469,20.948Z" transform="translate(-40.48 2.749)" fill="#9e9e9e" fill-rule="evenodd"/>
      <path id="Trazado_134755" data-name="Trazado 134755" d="M117.463,21.31a61.035,61.035,0,1,0,44.25,74.11A61.115,61.115,0,0,0,117.463,21.31Z" transform="translate(-40.549 5.12)" fill="#929292" fill-rule="evenodd"/>
      <path id="Trazado_134756" data-name="Trazado 134756" d="M117.446,21.669A61.035,61.035,0,1,0,161.7,95.786,61.112,61.112,0,0,0,117.446,21.669Z" transform="translate(-40.615 7.486)" fill="#868686" fill-rule="evenodd"/>
      <path id="Trazado_134757" data-name="Trazado 134757" d="M117.442,22.033a61.035,61.035,0,1,0,44.25,74.11A61.115,61.115,0,0,0,117.442,22.033Z" transform="translate(-40.687 9.855)" fill="#797979" fill-rule="evenodd"/>
      <path id="Trazado_134758" data-name="Trazado 134758" d="M117.425,22.395a61.032,61.032,0,1,0,44.258,74.11A61.107,61.107,0,0,0,117.425,22.395Z" transform="translate(-40.753 12.226)" fill="#6d6d6d" fill-rule="evenodd"/>
      <path id="Trazado_134759" data-name="Trazado 134759" d="M117.421,22.756a61.035,61.035,0,1,0,44.25,74.118A61.115,61.115,0,0,0,117.421,22.756Z" transform="translate(-40.824 14.591)" fill="#616161" fill-rule="evenodd"/>
      <path id="Trazado_134760" data-name="Trazado 134760" d="M117.4,23.118a61.035,61.035,0,1,0,44.258,74.11A61.107,61.107,0,0,0,117.4,23.118Z" transform="translate(-40.89 16.962)" fill="#555" fill-rule="evenodd"/>
      <path id="Trazado_134761" data-name="Trazado 134761" d="M117.4,23.48a61.032,61.032,0,1,0,44.25,74.11A61.116,61.116,0,0,0,117.4,23.48Z" transform="translate(-40.962 19.333)" fill="#494949" fill-rule="evenodd"/>
      <path id="Trazado_134762" data-name="Trazado 134762" d="M117.383,23.841a61.035,61.035,0,1,0,44.258,74.118A61.11,61.11,0,0,0,117.383,23.841Z" transform="translate(-41.028 21.698)" fill="#3d3d3d" fill-rule="evenodd"/>
      <path id="Trazado_134763" data-name="Trazado 134763" d="M117.379,24.2a61.035,61.035,0,1,0,44.25,74.11A61.115,61.115,0,0,0,117.379,24.2Z" transform="translate(-41.1 24.069)" fill="#313131" fill-rule="evenodd"/>
      <path id="Trazado_134764" data-name="Trazado 134764" d="M117.362,24.562A61.035,61.035,0,1,0,161.62,98.679,61.116,61.116,0,0,0,117.362,24.562Z" transform="translate(-41.166 26.435)" fill="#242424" fill-rule="evenodd"/>
      <path id="Trazado_134765" data-name="Trazado 134765" d="M117.358,24.926a61.035,61.035,0,1,0,44.25,74.118A61.115,61.115,0,0,0,117.358,24.926Z" transform="translate(-41.237 28.804)" fill="#181818" fill-rule="evenodd"/>
      <path id="Trazado_134766" data-name="Trazado 134766" d="M117.341,25.288A61.031,61.031,0,1,0,161.6,99.4,61.112,61.112,0,0,0,117.341,25.288Z" transform="translate(-41.303 31.175)" fill="#0c0c0c" fill-rule="evenodd"/>
      <path id="Trazado_134767" data-name="Trazado 134767" d="M117.337,25.649a61.035,61.035,0,1,0,44.25,74.118A61.115,61.115,0,0,0,117.337,25.649Z" transform="translate(-41.375 33.54)" fill-rule="evenodd"/>
    </g>
    <g id="Grupo_65525" data-name="Grupo 65525" transform="translate(16.266 214.699)" opacity="0.1" style="mix-blend-mode: multiply;isolation: isolate">
      <path id="Trazado_134768" data-name="Trazado 134768" d="M17.434,92.263a61.033,61.033,0,1,0,71.732-48A61.1,61.1,0,0,0,17.434,92.263Z" transform="translate(-16.266 -38.589)" fill="#fff" fill-rule="evenodd"/>
      <path id="Trazado_134769" data-name="Trazado 134769" d="M17.81,92.227a61.034,61.034,0,1,0,71.74-48A61.106,61.106,0,0,0,17.81,92.227Z" transform="translate(-13.789 -38.772)" fill="#f3f3f3" fill-rule="evenodd"/>
      <path id="Trazado_134770" data-name="Trazado 134770" d="M18.188,92.206a61.033,61.033,0,1,0,71.74-48A61.115,61.115,0,0,0,18.188,92.206Z" transform="translate(-11.312 -38.962)" fill="#e7e7e7" fill-rule="evenodd"/>
      <path id="Trazado_134771" data-name="Trazado 134771" d="M18.569,92.17a61.034,61.034,0,1,0,71.732-48A61.1,61.1,0,0,0,18.569,92.17Z" transform="translate(-8.832 -39.145)" fill="#dbdbdb" fill-rule="evenodd"/>
      <path id="Trazado_134772" data-name="Trazado 134772" d="M18.947,92.144a61.034,61.034,0,1,0,71.74-48A61.1,61.1,0,0,0,18.947,92.144Z" transform="translate(-6.356 -39.331)" fill="#cecece" fill-rule="evenodd"/>
      <path id="Trazado_134773" data-name="Trazado 134773" d="M19.323,92.121a61.033,61.033,0,1,0,71.74-48A61.11,61.11,0,0,0,19.323,92.121Z" transform="translate(-3.879 -39.519)" fill="#c2c2c2" fill-rule="evenodd"/>
      <path id="Trazado_134774" data-name="Trazado 134774" d="M19.7,92.085a61.038,61.038,0,1,0,71.74-48A61.111,61.111,0,0,0,19.7,92.085Z" transform="translate(-1.402 -39.702)" fill="#b6b6b6" fill-rule="evenodd"/>
      <path id="Trazado_134775" data-name="Trazado 134775" d="M20.082,92.059a61.034,61.034,0,1,0,71.74-48A61.1,61.1,0,0,0,20.082,92.059Z" transform="translate(1.078 -39.887)" fill="#aaa" fill-rule="evenodd"/>
      <path id="Trazado_134776" data-name="Trazado 134776" d="M20.46,92.036a61.033,61.033,0,1,0,71.74-48A61.1,61.1,0,0,0,20.46,92.036Z" transform="translate(3.554 -40.075)" fill="#9e9e9e" fill-rule="evenodd"/>
      <path id="Trazado_134777" data-name="Trazado 134777" d="M20.836,92a61.038,61.038,0,1,0,71.74-48A61.115,61.115,0,0,0,20.836,92Z" transform="translate(6.032 -40.259)" fill="#929292" fill-rule="evenodd"/>
      <path id="Trazado_134778" data-name="Trazado 134778" d="M21.217,91.978a61.034,61.034,0,1,0,71.732-48A61.1,61.1,0,0,0,21.217,91.978Z" transform="translate(8.512 -40.448)" fill="#868686" fill-rule="evenodd"/>
      <path id="Trazado_134779" data-name="Trazado 134779" d="M21.595,91.943a61.034,61.034,0,1,0,71.74-48A61.1,61.1,0,0,0,21.595,91.943Z" transform="translate(10.988 -40.632)" fill="#797979" fill-rule="evenodd"/>
      <path id="Trazado_134780" data-name="Trazado 134780" d="M21.973,91.915a61.038,61.038,0,1,0,71.74-48A61.11,61.11,0,0,0,21.973,91.915Z" transform="translate(13.464 -40.816)" fill="#6d6d6d" fill-rule="evenodd"/>
      <path id="Trazado_134781" data-name="Trazado 134781" d="M22.352,91.893a61.033,61.033,0,1,0,71.732-48A61.108,61.108,0,0,0,22.352,91.893Z" transform="translate(15.946 -41.005)" fill="#616161" fill-rule="evenodd"/>
      <path id="Trazado_134782" data-name="Trazado 134782" d="M22.73,91.858a61.034,61.034,0,1,0,71.74-48A61.1,61.1,0,0,0,22.73,91.858Z" transform="translate(18.422 -41.189)" fill="#555" fill-rule="evenodd"/>
      <path id="Trazado_134783" data-name="Trazado 134783" d="M23.108,91.832a61.034,61.034,0,1,0,71.74-48A61.114,61.114,0,0,0,23.108,91.832Z" transform="translate(20.898 -41.374)" fill="#494949" fill-rule="evenodd"/>
      <path id="Trazado_134784" data-name="Trazado 134784" d="M23.489,91.808a61.033,61.033,0,1,0,71.732-48A61.1,61.1,0,0,0,23.489,91.808Z" transform="translate(23.379 -41.562)" fill="#3d3d3d" fill-rule="evenodd"/>
      <path id="Trazado_134785" data-name="Trazado 134785" d="M23.865,91.773a61.034,61.034,0,1,0,71.74-48A61.108,61.108,0,0,0,23.865,91.773Z" transform="translate(25.856 -41.745)" fill="#313131" fill-rule="evenodd"/>
      <path id="Trazado_134786" data-name="Trazado 134786" d="M24.243,91.747a61.034,61.034,0,1,0,71.74-48A61.114,61.114,0,0,0,24.243,91.747Z" transform="translate(28.333 -41.931)" fill="#242424" fill-rule="evenodd"/>
      <path id="Trazado_134787" data-name="Trazado 134787" d="M24.624,91.723a61.033,61.033,0,1,0,71.732-48A61.1,61.1,0,0,0,24.624,91.723Z" transform="translate(30.813 -42.119)" fill="#181818" fill-rule="evenodd"/>
      <path id="Trazado_134788" data-name="Trazado 134788" d="M25,91.688a61.034,61.034,0,1,0,71.74-48A61.1,61.1,0,0,0,25,91.688Z" transform="translate(33.289 -42.302)" fill="#0c0c0c" fill-rule="evenodd"/>
      <path id="Trazado_134789" data-name="Trazado 134789" d="M25.378,91.666a61.034,61.034,0,1,0,71.74-48A61.114,61.114,0,0,0,25.378,91.666Z" transform="translate(35.767 -42.492)" fill-rule="evenodd"/>
    </g>
    <g id="Grupo_65526" data-name="Grupo 65526" transform="translate(342.454 212.455)" opacity="0.1" style="mix-blend-mode: multiply;isolation: isolate">
      <path id="Trazado_134790" data-name="Trazado 134790" d="M188.186,91.965a61.033,61.033,0,1,1-71.74-48A61.106,61.106,0,0,1,188.186,91.965Z" transform="translate(-8.363 -38.296)" fill="#fff" fill-rule="evenodd"/>
      <path id="Trazado_134791" data-name="Trazado 134791" d="M187.821,91.929a61.038,61.038,0,1,1-71.74-48A61.111,61.111,0,0,1,187.821,91.929Z" transform="translate(-10.799 -38.479)" fill="#f3f3f3" fill-rule="evenodd"/>
      <path id="Trazado_134792" data-name="Trazado 134792" d="M187.443,91.9a61.034,61.034,0,1,1-71.74-48A61.106,61.106,0,0,1,187.443,91.9Z" transform="translate(-13.23 -38.665)" fill="#e7e7e7" fill-rule="evenodd"/>
      <path id="Trazado_134793" data-name="Trazado 134793" d="M187.07,91.88a61.033,61.033,0,1,1-71.74-48A61.1,61.1,0,0,1,187.07,91.88Z" transform="translate(-15.666 -38.852)" fill="#dbdbdb" fill-rule="evenodd"/>
      <path id="Trazado_134794" data-name="Trazado 134794" d="M186.7,91.844a61.034,61.034,0,1,1-71.74-48A61.112,61.112,0,0,1,186.7,91.844Z" transform="translate(-18.096 -39.036)" fill="#cecece" fill-rule="evenodd"/>
      <path id="Trazado_134795" data-name="Trazado 134795" d="M186.328,91.823a61.034,61.034,0,1,1-71.74-48A61.1,61.1,0,0,1,186.328,91.823Z" transform="translate(-20.533 -39.226)" fill="#c2c2c2" fill-rule="evenodd"/>
      <path id="Trazado_134796" data-name="Trazado 134796" d="M185.954,91.787a61.034,61.034,0,1,1-71.732-48A61.1,61.1,0,0,1,185.954,91.787Z" transform="translate(-22.967 -39.409)" fill="#b6b6b6" fill-rule="evenodd"/>
      <path id="Trazado_134797" data-name="Trazado 134797" d="M185.584,91.759a61.034,61.034,0,1,1-71.74-48A61.11,61.11,0,0,1,185.584,91.759Z" transform="translate(-25.399 -39.593)" fill="#aaa" fill-rule="evenodd"/>
      <path id="Trazado_134798" data-name="Trazado 134798" d="M185.212,91.738a61.033,61.033,0,1,1-71.74-48A61.1,61.1,0,0,1,185.212,91.738Z" transform="translate(-27.836 -39.783)" fill="#9e9e9e" fill-rule="evenodd"/>
      <path id="Trazado_134799" data-name="Trazado 134799" d="M184.842,91.7a61.034,61.034,0,1,1-71.74-48A61.116,61.116,0,0,1,184.842,91.7Z" transform="translate(-30.266 -39.966)" fill="#929292" fill-rule="evenodd"/>
      <path id="Trazado_134800" data-name="Trazado 134800" d="M184.469,91.676a61.034,61.034,0,1,1-71.74-48A61.1,61.1,0,0,1,184.469,91.676Z" transform="translate(-32.702 -40.151)" fill="#868686" fill-rule="evenodd"/>
      <path id="Trazado_134801" data-name="Trazado 134801" d="M184.091,91.652a61.03,61.03,0,1,1-71.74-48A61.109,61.109,0,0,1,184.091,91.652Z" transform="translate(-35.132 -40.339)" fill="#797979" fill-rule="evenodd"/>
      <path id="Trazado_134802" data-name="Trazado 134802" d="M183.727,91.617a61.034,61.034,0,1,1-71.74-48A61.1,61.1,0,0,1,183.727,91.617Z" transform="translate(-37.569 -40.523)" fill="#6d6d6d" fill-rule="evenodd"/>
      <path id="Trazado_134803" data-name="Trazado 134803" d="M183.352,91.591a61.034,61.034,0,1,1-71.74-48A61.108,61.108,0,0,1,183.352,91.591Z" transform="translate(-40.004 -40.708)" fill="#616161" fill-rule="evenodd"/>
      <path id="Trazado_134804" data-name="Trazado 134804" d="M182.983,91.567a61.033,61.033,0,1,1-71.74-48A61.114,61.114,0,0,1,182.983,91.567Z" transform="translate(-42.436 -40.896)" fill="#555" fill-rule="evenodd"/>
      <path id="Trazado_134805" data-name="Trazado 134805" d="M182.61,91.532a61.034,61.034,0,1,1-71.74-48A61.1,61.1,0,0,1,182.61,91.532Z" transform="translate(-44.87 -41.079)" fill="#494949" fill-rule="evenodd"/>
      <path id="Trazado_134806" data-name="Trazado 134806" d="M182.233,91.51a61.03,61.03,0,1,1-71.74-48A61.109,61.109,0,0,1,182.233,91.51Z" transform="translate(-47.302 -41.269)" fill="#3d3d3d" fill-rule="evenodd"/>
      <path id="Trazado_134807" data-name="Trazado 134807" d="M181.867,91.475a61.034,61.034,0,1,1-71.74-48A61.1,61.1,0,0,1,181.867,91.475Z" transform="translate(-49.737 -41.452)" fill="#313131" fill-rule="evenodd"/>
      <path id="Trazado_134808" data-name="Trazado 134808" d="M181.49,91.447a61.03,61.03,0,1,1-71.74-48A61.109,61.109,0,0,1,181.49,91.447Z" transform="translate(-52.169 -41.636)" fill="#242424" fill-rule="evenodd"/>
      <path id="Trazado_134809" data-name="Trazado 134809" d="M181.124,91.425a61.033,61.033,0,1,1-71.74-48A61.114,61.114,0,0,1,181.124,91.425Z" transform="translate(-54.604 -41.826)" fill="#181818" fill-rule="evenodd"/>
      <path id="Trazado_134810" data-name="Trazado 134810" d="M180.747,91.39a61.03,61.03,0,1,1-71.74-48A61.109,61.109,0,0,1,180.747,91.39Z" transform="translate(-57.036 -42.009)" fill="#0c0c0c" fill-rule="evenodd"/>
      <path id="Trazado_134811" data-name="Trazado 134811" d="M180.373,91.364a61.03,61.03,0,1,1-71.74-48A61.1,61.1,0,0,1,180.373,91.364Z" transform="translate(-59.47 -42.195)" fill-rule="evenodd"/>
    </g>
    <circle id="Elipse_5617" data-name="Elipse 5617" cx="61.152" cy="61.152" r="61.152" transform="translate(207.87 71.253)" fill="#11728d"/>
    <circle id="Elipse_5618" data-name="Elipse 5618" cx="61.152" cy="61.152" r="61.152" transform="translate(207.87 348.434)" fill="#4d3b36"/>
    <path id="Trazado_134812" data-name="Trazado 134812" d="M146.653,103.4A61.151,61.151,0,1,1,85.5,42.256,61.16,61.16,0,0,1,146.653,103.4Z" transform="translate(52.954 170.663)" fill="#d4184c"/>
    <path id="Trazado_134813" data-name="Trazado 134813" d="M181.764,103.4a61.147,61.147,0,1,1-61.147-61.147A61.153,61.153,0,0,1,181.764,103.4Z" transform="translate(282.982 170.663)" fill="#e9a419"/>
    <g id="Grupo_65527" data-name="Grupo 65527" transform="translate(114.926 113.886)">
      <path id="Trazado_134814" data-name="Trazado 134814" d="M122.523,92.546a113.871,113.871,0,0,1-32.08-34.533A70.811,70.811,0,0,1,49.356,71.089a71.268,71.268,0,0,1-20.022-2.877,173.076,173.076,0,0,0,87.285,88.848,71.162,71.162,0,0,1,5.9-64.514Z" transform="translate(-29.334 159.978)" fill="#e9a419"/>
      <path id="Trazado_134815" data-name="Trazado 134815" d="M57.064,87.9a113.731,113.731,0,0,1,43.4,38.543,71.239,71.239,0,0,1,65.911-.974,172.956,172.956,0,0,0-95.733-96.33,70.956,70.956,0,0,1,1.578,14.873A70.886,70.886,0,0,1,57.064,87.9Z" transform="translate(152.296 -29.139)" fill="#4d3b36"/>
      <path id="Trazado_134816" data-name="Trazado 134816" d="M90.443,126.751a113.757,113.757,0,0,1,39.373-39.282A70.884,70.884,0,0,1,111.508,39.82a72.35,72.35,0,0,1,.717-10.041,173.132,173.132,0,0,0-82.891,86.764,71.153,71.153,0,0,1,61.109,10.208Z" transform="translate(-29.334 -24.947)" fill="#11728d"/>
      <path id="Trazado_134817" data-name="Trazado 134817" d="M94.489,58.609a113.851,113.851,0,0,1-36.512,34.76,70.836,70.836,0,0,1,8.267,33.3,70.982,70.982,0,0,1-7.331,31.468A172.92,172.92,0,0,0,160.4,59.568a70.645,70.645,0,0,1-32,7.61A71,71,0,0,1,94.489,58.609Z" transform="translate(158.276 163.888)" fill="#d4184c"/>
    </g>
    <g id="Grupo_65531" data-name="Grupo 65531" transform="translate(251.014 109.817)">
      <g id="Grupo_65530" data-name="Grupo 65530">
        <g id="Grupo_65528" data-name="Grupo 65528">
          <path id="Trazado_134818" data-name="Trazado 134818" d="M57.891,71.567a10.046,10.046,0,0,1-5.844-1.653,9.023,9.023,0,0,1-3.526-4.379,16.537,16.537,0,0,1-1.163-6.455V41.057c0-3.85.868-6.916,2.642-9.1,1.744-2.257,4.387-3.36,7.89-3.36,3.481,0,6.108,1.132,7.875,3.36q2.639,3.318,2.635,9.1V59.079c0,3.79-.9,6.825-2.688,9.068A9.4,9.4,0,0,1,57.891,71.567Zm0-4.953c3,0,4.507-2.507,4.507-7.535V41.057c0-.823-.038-1.608-.091-2.257a10.49,10.49,0,0,0-.393-2.008,5.867,5.867,0,0,0-.785-1.721,3.5,3.5,0,0,0-1.3-1.117,4.3,4.3,0,0,0-1.94-.4,4.481,4.481,0,0,0-1.971.4,3.343,3.343,0,0,0-1.268,1.117,6.294,6.294,0,0,0-.815,1.721,14.424,14.424,0,0,0-.37,2.008c-.06.649-.106,1.434-.106,2.257V59.079a15.876,15.876,0,0,0,.219,2.741,10.225,10.225,0,0,0,.68,2.378,4.126,4.126,0,0,0,1.389,1.767A3.9,3.9,0,0,0,57.891,66.614Z" transform="translate(-47.359 -28.6)" fill="#fff"/>
        </g>
        <g id="Grupo_65529" data-name="Grupo 65529" transform="translate(24.809 0.423)">
          <path id="Trazado_134819" data-name="Trazado 134819" d="M55.137,70.739V37.7H50.645V33.186c3.05-1.095,5.021-2.6,6-4.53h4.507V70.739Z" transform="translate(-50.645 -28.656)" fill="#fff"/>
        </g>
      </g>
    </g>
    <g id="Grupo_65535" data-name="Grupo 65535" transform="translate(386.604 255.697)">
      <g id="Grupo_65534" data-name="Grupo 65534">
        <g id="Grupo_65532" data-name="Grupo 65532">
          <path id="Trazado_134820" data-name="Trazado 134820" d="M74.9,86.895a9.511,9.511,0,0,1-5.315-1.472,8.858,8.858,0,0,1-3.224-3.986A15.2,15.2,0,0,1,65.318,75.6V59.217a13.1,13.1,0,0,1,2.408-8.29c1.578-1.986,3.979-3,7.172-3,3.156,0,5.549,1.019,7.142,3,1.608,2.054,2.408,4.779,2.408,8.29V75.6A12.753,12.753,0,0,1,82,83.8,8.482,8.482,0,0,1,74.9,86.895Zm0-4.5q4.043,0,4.047-6.795V59.217c0-.74,0-1.457-.038-2.054a8.077,8.077,0,0,0-.362-1.827,4.8,4.8,0,0,0-.695-1.548,2.963,2.963,0,0,0-1.208-.989,3.443,3.443,0,0,0-1.744-.393,3.486,3.486,0,0,0-1.774.393,2.8,2.8,0,0,0-1.185.989,4.654,4.654,0,0,0-.7,1.548,7.668,7.668,0,0,0-.355,1.827c-.06.6-.076,1.314-.076,2.054V75.6a20.256,20.256,0,0,0,.166,2.461,9.2,9.2,0,0,0,.619,2.167,4.121,4.121,0,0,0,1.283,1.608A3.312,3.312,0,0,0,74.9,82.4Z" transform="translate(-65.318 -47.922)" fill="#fff"/>
        </g>
        <g id="Grupo_65533" data-name="Grupo 65533" transform="translate(22.695)">
          <path id="Trazado_134821" data-name="Trazado 134821" d="M68.324,86.51V81.044L77.882,67.4c.091-.151.355-.483.755-1.034.362-.529.627-.883.755-1.1.113-.181.347-.521.672-1a12.37,12.37,0,0,0,.649-1.117c.121-.287.294-.627.483-1.14a8.589,8.589,0,0,0,.445-1.3c.068-.355.159-.793.227-1.314a11.528,11.528,0,0,0,.1-1.533,6.951,6.951,0,0,0-1.042-3.873,3.455,3.455,0,0,0-3.043-1.578,3.712,3.712,0,0,0-2.008.574,3.926,3.926,0,0,0-1.268,1.578,9.409,9.409,0,0,0-.634,2.2,15.49,15.49,0,0,0-.2,2.461v1.389H68.332V59.217c0-3.571.747-6.342,2.3-8.328s3.934-2.967,7.255-2.967c3.126,0,5.459.868,7.1,2.627,1.623,1.721,2.431,4.168,2.431,7.308a17.223,17.223,0,0,1-.294,3.292,12.205,12.205,0,0,1-.974,2.952A22.883,22.883,0,0,1,84.9,66.427c-.37.6-.906,1.389-1.563,2.318l-9.566,12.3H87.418V86.51Z" transform="translate(-68.324 -47.922)" fill="#fff"/>
        </g>
      </g>
    </g>
    <g id="Grupo_65539" data-name="Grupo 65539" transform="translate(246.349 391.43)">
      <g id="Grupo_65538" data-name="Grupo 65538">
        <g id="Grupo_65536" data-name="Grupo 65536">
          <path id="Trazado_134822" data-name="Trazado 134822" d="M56.933,107.44a9.742,9.742,0,0,1-5.662-1.578,9.36,9.36,0,0,1-3.45-4.228,16.686,16.686,0,0,1-1.08-6.236V77.92c0-3.745.861-6.651,2.514-8.788,1.729-2.152,4.273-3.231,7.678-3.231,3.36,0,5.9,1.08,7.6,3.231,1.737,2.137,2.59,5.1,2.59,8.788V95.4a13.631,13.631,0,0,1-2.62,8.743C62.77,106.353,60.24,107.44,56.933,107.44Zm0-4.756c2.9,0,4.349-2.439,4.349-7.286V77.92c0-.823-.03-1.533-.068-2.167a14.243,14.243,0,0,0-.385-1.978,5.331,5.331,0,0,0-.785-1.623,3.3,3.3,0,0,0-1.231-1.072,3.99,3.99,0,0,0-1.88-.4,4.044,4.044,0,0,0-1.9.4,3.461,3.461,0,0,0-1.261,1.072,4.969,4.969,0,0,0-.74,1.623,9.783,9.783,0,0,0-.4,1.978c-.053.634-.053,1.344-.053,2.167V95.4a16.087,16.087,0,0,0,.174,2.635,9.933,9.933,0,0,0,.649,2.258,3.662,3.662,0,0,0,3.533,2.393Z" transform="translate(-46.741 -65.9)" fill="#fff"/>
        </g>
        <g id="Grupo_65537" data-name="Grupo 65537" transform="translate(24.303)">
          <path id="Trazado_134823" data-name="Trazado 134823" d="M60.152,107.44c-3.307,0-5.806-.929-7.58-2.8-1.736-1.842-2.612-4.439-2.612-7.814V95.4H55.8c0,.9.015,1.676.076,2.325a12.477,12.477,0,0,0,.347,1.963,4.635,4.635,0,0,0,.687,1.608,3.654,3.654,0,0,0,1.276.974,4.424,4.424,0,0,0,1.971.415,4.236,4.236,0,0,0,1.948-.415,3.453,3.453,0,0,0,1.291-.974,4.924,4.924,0,0,0,.717-1.608,12.37,12.37,0,0,0,.325-1.963,21.085,21.085,0,0,0,.091-2.325A9.51,9.51,0,0,0,63.18,90a5.208,5.208,0,0,0-4.47-1.872V82.3c2.1,0,3.616-.408,4.485-1.3.9-.868,1.329-2.386,1.329-4.522a7.934,7.934,0,0,0-.959-4.326,3.736,3.736,0,0,0-3.413-1.472,4.422,4.422,0,0,0-1.971.4,3.534,3.534,0,0,0-1.276.959,4.817,4.817,0,0,0-.687,1.638,11.721,11.721,0,0,0-.347,1.948c-.06.634-.076,1.382-.076,2.3H49.96V76.478A10.929,10.929,0,0,1,52.6,68.693c1.744-1.865,4.251-2.793,7.55-2.793,3.322,0,5.829.929,7.573,2.778s2.59,4.447,2.59,7.8a9.744,9.744,0,0,1-1.533,5.662,7.743,7.743,0,0,1-4.258,3.1,7.705,7.705,0,0,1,4.349,3.541A13.646,13.646,0,0,1,70.315,95.4c0,3.82-.808,6.765-2.416,8.871C66.23,106.413,63.648,107.44,60.152,107.44Z" transform="translate(-49.96 -65.9)" fill="#fff"/>
        </g>
      </g>
    </g>
    <g id="Grupo_65543" data-name="Grupo 65543" transform="translate(107.165 255.667)">
      <g id="Grupo_65542" data-name="Grupo 65542">
        <g id="Grupo_65540" data-name="Grupo 65540">
          <path id="Trazado_134824" data-name="Trazado 134824" d="M38.121,87.88a9.636,9.636,0,0,1-5.444-1.457,9,9,0,0,1-3.292-4.1,15.079,15.079,0,0,1-1.08-6V59.507q0-5.436,2.454-8.509c1.631-2.061,4.085-3.08,7.361-3.08,3.239,0,5.685,1.019,7.316,3.111,1.646,2.069,2.484,4.9,2.484,8.479V76.321a13.183,13.183,0,0,1-2.507,8.433C43.746,86.861,41.3,87.88,38.121,87.88Zm0-4.575c2.793,0,4.2-2.341,4.2-6.984V59.507a18.972,18.972,0,0,0-.1-2.091,7.881,7.881,0,0,0-.362-1.887,5.127,5.127,0,0,0-.71-1.593,3.263,3.263,0,0,0-1.2-1.019,4.527,4.527,0,0,0-3.654,0,3.039,3.039,0,0,0-1.2,1.019,4.964,4.964,0,0,0-.747,1.593,7.835,7.835,0,0,0-.317,1.887,15.548,15.548,0,0,0-.121,2.091V76.321a14.571,14.571,0,0,0,.2,2.537,8.519,8.519,0,0,0,.6,2.2,3.881,3.881,0,0,0,1.314,1.631A3.5,3.5,0,0,0,38.121,83.3Z" transform="translate(-28.306 -47.918)" fill="#fff"/>
        </g>
        <g id="Grupo_65541" data-name="Grupo 65541" transform="translate(23.541 0.355)">
          <path id="Trazado_134825" data-name="Trazado 134825" d="M42.621,87.217V77.13h-11.2V70.909l9.785-22.944H48.2V71.838h4.349V77.13H48.2V87.217Zm-5.61-15.379h5.61V54.971Z" transform="translate(-31.424 -47.965)" fill="#fff"/>
        </g>
      </g>
    </g>
    <g id="Grupo_65544" data-name="Grupo 65544" transform="translate(114.828 115.253)" opacity="0.25" style="mix-blend-mode: multiply;isolation: isolate">
      <path id="Trazado_134826" data-name="Trazado 134826" d="M187.319,321.617A134.3,134.3,0,1,1,321.625,187.3,134.315,134.315,0,0,1,187.319,321.617Zm0-292.3A158.006,158.006,0,1,0,345.324,187.3,157.99,157.99,0,0,0,187.319,29.32Z" transform="translate(-29.321 -29.32)" fill="#fff" opacity="0"/>
      <path id="Trazado_134827" data-name="Trazado 134827" d="M185.649,318.3A132.66,132.66,0,1,1,318.317,185.619,132.672,132.672,0,0,1,185.649,318.3Zm0-288.726A156.073,156.073,0,1,0,341.721,185.619,156.06,156.06,0,0,0,185.649,29.576Z" transform="translate(-27.651 -27.643)" fill="#f5f5f5" opacity="0.048"/>
      <path id="Trazado_134828" data-name="Trazado 134828" d="M183.979,314.993A131.018,131.018,0,1,1,315,183.948,131.037,131.037,0,0,1,183.979,314.993Zm0-285.162a154.147,154.147,0,1,0,154.14,154.117A154.131,154.131,0,0,0,183.979,29.831Z" transform="translate(-25.974 -25.973)" fill="#ececec" opacity="0.095"/>
      <path id="Trazado_134829" data-name="Trazado 134829" d="M182.3,311.678A129.38,129.38,0,1,1,311.693,182.272,129.4,129.4,0,0,1,182.3,311.678Zm0-281.591A152.215,152.215,0,1,0,334.516,182.272,152.2,152.2,0,0,0,182.3,30.087Z" transform="translate(-24.304 -24.296)" fill="#e2e2e2" opacity="0.143"/>
      <path id="Trazado_134830" data-name="Trazado 134830" d="M180.625,308.369A127.742,127.742,0,1,1,308.37,180.6,127.761,127.761,0,0,1,180.625,308.369Zm0-278.027A150.286,150.286,0,1,0,330.914,180.6,150.27,150.27,0,0,0,180.625,30.342Z" transform="translate(-22.627 -22.626)" fill="#d8d8d8" opacity="0.19"/>
      <path id="Trazado_134831" data-name="Trazado 134831" d="M178.955,305.047A126.1,126.1,0,1,1,305.062,178.924,126.112,126.112,0,0,1,178.955,305.047Zm0-274.449A148.357,148.357,0,1,0,327.311,178.924,148.34,148.34,0,0,0,178.955,30.6Z" transform="translate(-20.957 -20.949)" fill="#cecece" opacity="0.238"/>
      <path id="Trazado_134832" data-name="Trazado 134832" d="M177.278,301.738A124.457,124.457,0,1,1,301.747,177.254,124.475,124.475,0,0,1,177.278,301.738Zm0-270.885a146.428,146.428,0,1,0,146.431,146.4A146.419,146.419,0,0,0,177.278,30.853Z" transform="translate(-19.28 -19.279)" fill="#c5c5c5" opacity="0.286"/>
      <path id="Trazado_134833" data-name="Trazado 134833" d="M175.6,298.423a122.819,122.819,0,1,1,122.83-122.845A122.838,122.838,0,0,1,175.6,298.423Zm0-267.314A144.5,144.5,0,1,0,320.1,175.577,144.483,144.483,0,0,0,175.6,31.109Z" transform="translate(-17.603 -17.602)" fill="#bbb" opacity="0.333"/>
      <path id="Trazado_134834" data-name="Trazado 134834" d="M173.931,295.114A121.181,121.181,0,1,1,295.123,173.907,121.2,121.2,0,0,1,173.931,295.114Zm0-263.75A142.57,142.57,0,1,0,316.5,173.907,142.559,142.559,0,0,0,173.931,31.364Z" transform="translate(-15.933 -15.932)" fill="#b1b1b1" opacity="0.381"/>
      <path id="Trazado_134835" data-name="Trazado 134835" d="M172.254,291.8A119.542,119.542,0,1,1,291.808,172.23,119.558,119.558,0,0,1,172.254,291.8Zm0-260.179A140.641,140.641,0,1,0,312.895,172.23,140.623,140.623,0,0,0,172.254,31.62Z" transform="translate(-14.256 -14.255)" fill="#a8a8a8" opacity="0.429"/>
      <path id="Trazado_134836" data-name="Trazado 134836" d="M170.584,288.483A117.9,117.9,0,1,1,288.492,170.56,117.914,117.914,0,0,1,170.584,288.483Zm0-256.608A138.712,138.712,0,1,0,309.292,170.56,138.7,138.7,0,0,0,170.584,31.875Z" transform="translate(-12.586 -12.585)" fill="#9e9e9e" opacity="0.476"/>
      <path id="Trazado_134837" data-name="Trazado 134837" d="M168.907,285.168A116.258,116.258,0,1,1,285.176,168.883,116.278,116.278,0,0,1,168.907,285.168Zm0-253.037A136.779,136.779,0,1,0,305.69,168.883,136.762,136.762,0,0,0,168.907,32.131Z" transform="translate(-10.909 -10.908)" fill="#949494" opacity="0.524"/>
      <path id="Trazado_134838" data-name="Trazado 134838" d="M167.237,281.859A114.62,114.62,0,1,1,281.868,167.213,114.641,114.641,0,0,1,167.237,281.859Zm0-249.473a134.854,134.854,0,1,0,134.85,134.827A134.844,134.844,0,0,0,167.237,32.386Z" transform="translate(-9.239 -9.238)" fill="#8a8a8a" opacity="0.571"/>
      <path id="Trazado_134839" data-name="Trazado 134839" d="M165.56,278.544A112.981,112.981,0,1,1,278.553,165.536,113,113,0,0,1,165.56,278.544Zm0-245.9A132.921,132.921,0,1,0,298.485,165.536,132.907,132.907,0,0,0,165.56,32.642Z" transform="translate(-7.562 -7.561)" fill="#818181" opacity="0.619"/>
      <path id="Trazado_134840" data-name="Trazado 134840" d="M163.89,275.236A111.339,111.339,0,1,1,275.244,163.866,111.361,111.361,0,0,1,163.89,275.236Zm0-242.339A131,131,0,1,0,294.882,163.866,130.983,130.983,0,0,0,163.89,32.9Z" transform="translate(-5.892 -5.891)" fill="#777" opacity="0.667"/>
      <path id="Trazado_134841" data-name="Trazado 134841" d="M162.213,271.92A109.7,109.7,0,1,1,271.929,162.189,109.724,109.724,0,0,1,162.213,271.92Zm0-238.767A129.063,129.063,0,1,0,291.28,162.189,129.052,129.052,0,0,0,162.213,33.153Z" transform="translate(-4.215 -4.214)" fill="#6d6d6d" opacity="0.714"/>
      <path id="Trazado_134842" data-name="Trazado 134842" d="M160.543,268.6a108.059,108.059,0,1,1,108.07-108.085A108.08,108.08,0,0,1,160.543,268.6Zm0-235.2A127.138,127.138,0,1,0,287.676,160.519,127.128,127.128,0,0,0,160.543,33.408Z" transform="translate(-2.545 -2.544)" fill="#646464" opacity="0.762"/>
      <path id="Trazado_134843" data-name="Trazado 134843" d="M158.866,265.289A106.42,106.42,0,1,1,265.3,158.842,106.437,106.437,0,0,1,158.866,265.289Zm0-231.625A125.2,125.2,0,1,0,284.074,158.842,125.2,125.2,0,0,0,158.866,33.664Z" transform="translate(-0.868 -0.867)" fill="#5a5a5a" opacity="0.81"/>
      <path id="Trazado_134844" data-name="Trazado 134844" d="M157.2,261.981A104.778,104.778,0,1,1,261.989,157.172,104.8,104.8,0,0,1,157.2,261.981Zm0-228.062A123.276,123.276,0,1,0,280.471,157.172,123.273,123.273,0,0,0,157.2,33.919Z" transform="translate(0.802 0.803)" fill="#505050" opacity="0.857"/>
      <path id="Trazado_134845" data-name="Trazado 134845" d="M155.519,258.665A103.14,103.14,0,1,1,258.674,155.5,103.163,103.163,0,0,1,155.519,258.665Zm0-224.49A121.347,121.347,0,1,0,276.869,155.5,121.336,121.336,0,0,0,155.519,34.175Z" transform="translate(2.479 2.48)" fill="#464646" opacity="0.905"/>
      <path id="Trazado_134846" data-name="Trazado 134846" d="M153.849,255.357A101.5,101.5,0,1,1,255.365,153.825,101.527,101.527,0,0,1,153.849,255.357Zm0-220.927a119.418,119.418,0,1,0,119.418,119.4A119.413,119.413,0,0,0,153.849,34.43Z" transform="translate(4.149 4.15)" fill="#3d3d3d" opacity="0.952"/>
      <path id="Trazado_134847" data-name="Trazado 134847" d="M152.172,252.048a99.863,99.863,0,1,1,99.878-99.893A99.89,99.89,0,0,1,152.172,252.048Zm0-217.363a117.492,117.492,0,1,0,117.492,117.47A117.483,117.483,0,0,0,152.172,34.685Z" transform="translate(5.826 5.821)" fill="#333"/>
    </g>
  </g>
</svg>
