<svg xmlns="http://www.w3.org/2000/svg" width="100" height="100" viewBox="0 0 100 100">
  <g id="Grupo_66175" data-name="Grupo 66175" transform="translate(-175.114 -100.652)">
    <path id="Trazado_137251" data-name="Trazado 137251" d="M242.855,150.652v-9.419a6.977,6.977,0,0,0-1.338-4.129,7.074,7.074,0,0,0-3.5-2.581l-1.339-1.339.258-.274,10.758-3.226s1.613,3.226,4.839,3.226,4.839-3.226,4.839-3.226l11.532,3.452a6.471,6.471,0,0,1,4.6,6.193v12.936H262.21v-1.613a9.684,9.684,0,0,0-9.677-9.677,9.691,9.691,0,0,0-9.678,9.677Zm0,0" fill="#d44f4a"/>
    <path id="Trazado_137252" data-name="Trazado 137252" d="M207.372,145.184v5.468a9.677,9.677,0,0,0-19.355,0v1.613H176.726V139.329a6.471,6.471,0,0,1,4.6-6.193l11.532-3.452s1.613,3.226,4.839,3.226,4.839-3.226,4.839-3.226l10.21,3.065a17.025,17.025,0,0,0-5.371,12.435Zm0,0" fill="#d44f4a"/>
    <path id="Trazado_137253" data-name="Trazado 137253" d="M263.823,190.975h-8.064a3.234,3.234,0,0,0-3.226,3.225V184.152a9.676,9.676,0,0,0-7.5-9.419l-10.065-2.323-.064-.016a6.735,6.735,0,0,1,1.258-.548l11.532-3.452s1.613,3.226,4.839,3.226,4.839-3.226,4.839-3.226l11.532,3.452a6.47,6.47,0,0,1,4.6,6.193v12.936Zm0,0" fill="#6bbcb1"/>
    <path id="Trazado_137254" data-name="Trazado 137254" d="M215.275,172.41l-10.081,2.323a9.676,9.676,0,0,0-7.5,9.419V194.2a3.234,3.234,0,0,0-3.226-3.225H176.726V178.039a6.47,6.47,0,0,1,4.6-6.193l11.532-3.452s1.613,3.226,4.839,3.226,4.839-3.226,4.839-3.226l11.532,3.452a6.735,6.735,0,0,1,1.258.548Zm0,0" fill="#6bbcb1"/>
    <path id="Trazado_137255" data-name="Trazado 137255" d="M208.985,199.039H197.694V184.152a9.676,9.676,0,0,1,7.5-9.419l10.081-2.323,3.387-.79h12.9l3.387.822.016-.032,10.065,2.323a9.676,9.676,0,0,1,7.5,9.419v14.887Zm0,0" fill="#e6e9ed"/>
    <path id="Trazado_137256" data-name="Trazado 137256" d="M228.339,184.523l1.613,14.516h-9.677l1.613-14.516Zm0,0" fill="#d44f4a"/>
    <path id="Trazado_137257" data-name="Trazado 137257" d="M230.1,179.443l-.145.241-1.613,4.839h-6.451l-1.613-4.839-.145-.241,4.984-2.985Zm0,0" fill="#d44f4a"/>
    <path id="Trazado_137258" data-name="Trazado 137258" d="M234.9,172.394l.064.016-.016.032-1.774,8.855-3.081-1.854-4.983-2.985,6.451-4.838Zm0,0" fill="#ccd1d9"/>
    <path id="Trazado_137259" data-name="Trazado 137259" d="M215.323,172.394l3.339-.774,6.452,4.838-4.984,2.985-3.081,1.854-1.774-8.887Zm0,0" fill="#ccd1d9"/>
    <path id="Trazado_137260" data-name="Trazado 137260" d="M262.21,111.942v1.613h-2.564a5.5,5.5,0,0,1-3.887-1.613,5.506,5.506,0,0,1-3.888,1.613h-9.016v-1.613a9.677,9.677,0,0,1,19.355,0Zm0,0" fill="#b27946"/>
    <path id="Trazado_137261" data-name="Trazado 137261" d="M207.372,113.555h-9.016a5.506,5.506,0,0,1-3.888-1.613,5.5,5.5,0,0,1-3.887,1.613h-2.564v-1.613a9.685,9.685,0,0,1,9.677-9.677,9.691,9.691,0,0,1,9.678,9.677Zm0,0" fill="#b27946"/>
    <path id="Trazado_137262" data-name="Trazado 137262" d="M247.694,125.152a9.618,9.618,0,0,0,9.678,0v4.532s-1.613,3.226-4.839,3.226-4.839-3.226-4.839-3.226Zm0,0" fill="#f0d0b4"/>
    <path id="Trazado_137263" data-name="Trazado 137263" d="M257.372,125.152a9.618,9.618,0,0,1-9.678,0,9.652,9.652,0,0,1-4.839-8.371v-3.226h9.016a5.506,5.506,0,0,0,3.888-1.613,5.5,5.5,0,0,0,3.887,1.613h2.564v3.226a9.587,9.587,0,0,1-2.838,6.839,9.294,9.294,0,0,1-2,1.532Zm0,0" fill="#f0d0b4"/>
    <path id="Trazado_137264" data-name="Trazado 137264" d="M192.855,125.152l4.839,1.306a9.442,9.442,0,0,0,4.839-1.306v4.532s-1.613,3.226-4.839,3.226-4.839-3.226-4.839-3.226Zm0,0" fill="#f0d0b4"/>
    <path id="Trazado_137265" data-name="Trazado 137265" d="M202.533,125.152a9.442,9.442,0,0,1-4.839,1.306l-4.839-1.306a9.319,9.319,0,0,1-2-1.532,9.587,9.587,0,0,1-2.838-6.839v-3.226h2.564a5.5,5.5,0,0,0,3.887-1.613,5.506,5.506,0,0,0,3.888,1.613h9.016v3.226a9.652,9.652,0,0,1-4.839,8.371Zm0,0" fill="#f0d0b4"/>
    <path id="Trazado_137266" data-name="Trazado 137266" d="M249.307,150.652a5.507,5.507,0,0,1-3.887,1.613h-2.565v-1.613a9.677,9.677,0,0,1,19.355,0v1.613h-9.016a5.509,5.509,0,0,1-3.887-1.613Zm0,0" fill="#b27946"/>
    <path id="Trazado_137267" data-name="Trazado 137267" d="M204.807,152.265a5.507,5.507,0,0,1-3.887-1.613,5.507,5.507,0,0,1-3.887,1.613h-9.016v-1.613a9.684,9.684,0,0,1,9.677-9.677,9.691,9.691,0,0,1,9.678,9.677v1.613Zm0,0" fill="#b27946"/>
    <path id="Trazado_137268" data-name="Trazado 137268" d="M212.743,132.749a17.069,17.069,0,0,1,18.29-3.371,17.264,17.264,0,0,1,5.548,3.709l1.436,1.436a7.074,7.074,0,0,1,3.5,2.581,6.977,6.977,0,0,1,1.338,4.129v12.645c0-.21-.015-.419-.032-.629a6.6,6.6,0,0,0-6.419-5.807,1.574,1.574,0,0,0-.274-.016h-2.952l-1.613-3.226a19.261,19.261,0,0,1-10.661,3.226H214.1a1.574,1.574,0,0,0-.274.016,6.6,6.6,0,0,0-6.419,5.807c-.017.21-.032.419-.032.629v-8.694a17.025,17.025,0,0,1,5.371-12.435Zm0,0" fill="#ffc200"/>
    <path id="Trazado_137269" data-name="Trazado 137269" d="M247.694,163.862a9.618,9.618,0,0,0,9.678,0v4.532s-1.613,3.226-4.839,3.226-4.839-3.226-4.839-3.226Zm0,0" fill="#f0d0b4"/>
    <path id="Trazado_137270" data-name="Trazado 137270" d="M192.855,163.862l4.839,1.306a9.452,9.452,0,0,0,4.839-1.306v4.532s-1.613,3.226-4.839,3.226-4.839-3.226-4.839-3.226Zm0,0" fill="#f0d0b4"/>
    <path id="Trazado_137271" data-name="Trazado 137271" d="M202.533,163.862a9.452,9.452,0,0,1-4.839,1.306l-4.839-1.306a9.319,9.319,0,0,1-2-1.532,9.589,9.589,0,0,1-2.838-6.839v-3.226h9.016a5.507,5.507,0,0,0,3.887-1.613,5.507,5.507,0,0,0,3.887,1.613h2.565v3.226a9.652,9.652,0,0,1-4.839,8.371Zm0,0" fill="#f0d0b4"/>
    <path id="Trazado_137272" data-name="Trazado 137272" d="M247.694,163.862a9.652,9.652,0,0,1-4.839-8.371v-3.226h2.565a5.507,5.507,0,0,0,3.887-1.613,5.509,5.509,0,0,0,3.887,1.613h9.016v3.226a9.589,9.589,0,0,1-2.838,6.839,9.3,9.3,0,0,1-2,1.532,9.618,9.618,0,0,1-9.678,0Zm0,0" fill="#f0d0b4"/>
    <path id="Trazado_137273" data-name="Trazado 137273" d="M218.662,171.62v-4.839l.145-.306c4.758,1.839,5.532,1.919,6.307,1.919a11.246,11.246,0,0,0,6.306-1.919l.145.306v4.839l-6.451,4.838Zm0,0" fill="#f0d0b4"/>
    <path id="Trazado_137274" data-name="Trazado 137274" d="M242.855,153.878v.016a6.446,6.446,0,0,1-6.451,6.435l-.436-.112a10.984,10.984,0,0,0,.436-3.113v-9.662a6.6,6.6,0,0,1,6.419,5.807c.017.21.032.419.032.629Zm0,0" fill="#f0d0b4"/>
    <path id="Trazado_137275" data-name="Trazado 137275" d="M213.823,157.1a10.984,10.984,0,0,0,.436,3.113l-.436.112a6.446,6.446,0,0,1-6.451-6.435v-.016c0-.21.015-.419.032-.629a6.6,6.6,0,0,1,6.419-5.807Zm0,0" fill="#f0d0b4"/>
    <path id="Trazado_137276" data-name="Trazado 137276" d="M236.4,147.442V157.1a10.984,10.984,0,0,1-.436,3.113,11.273,11.273,0,0,1-10.854,8.177c-.775,0-1.549-.08-6.307-1.919a11.714,11.714,0,0,1-1.678-1.387,11.233,11.233,0,0,1-2.87-4.871,10.984,10.984,0,0,1-.436-3.113v-9.662a1.574,1.574,0,0,1,.274-.016H220.9a19.261,19.261,0,0,0,10.661-3.226l1.613,3.226h2.952a1.574,1.574,0,0,1,.274.016Zm0,0" fill="#f0d0b4"/>
    <path id="Trazado_137277" data-name="Trazado 137277" d="M275.114,152.265V139.323a8.015,8.015,0,0,0-5.747-7.724l-10.382-3.115v-2.45a11.281,11.281,0,0,0,4.838-9.251v-4.841a11.29,11.29,0,1,0-22.58,0v4.839a11.273,11.273,0,0,0,4.838,9.251v2.45l-9.15,2.746a18.637,18.637,0,0,0-24.582-.282l-8.2-2.462v-2.45a11.279,11.279,0,0,0,4.839-9.251v-4.841a11.29,11.29,0,0,0-22.581,0v4.839a11.274,11.274,0,0,0,4.839,9.251v2.45L180.86,131.6a8.018,8.018,0,0,0-5.746,7.726v12.942h3.225V139.323a4.808,4.808,0,0,1,3.449-4.634l10.385-3.116a6.641,6.641,0,0,0,11.042,0l6.614,1.984a18.612,18.612,0,0,0-3.922,9.371,11.275,11.275,0,0,0-19.5,7.724v4.839a11.274,11.274,0,0,0,4.839,9.251v2.45l-10.383,3.115a8.017,8.017,0,0,0-5.746,7.726v14.554h19.354a1.616,1.616,0,0,1,1.613,1.613v6.452h58.065V194.2a1.616,1.616,0,0,1,1.613-1.613h19.355V178.033a8.016,8.016,0,0,0-5.747-7.725l-10.382-3.114v-2.45a11.281,11.281,0,0,0,4.838-9.252v-4.838a11.281,11.281,0,0,0-19.355-7.888v-1.528a8.671,8.671,0,0,0-4.432-7.569l6.976-2.1a6.642,6.642,0,0,0,11.042,0l10.387,3.116a4.808,4.808,0,0,1,3.447,4.634v12.942Zm-77.42-48.387a8.074,8.074,0,0,1,8.065,8.064h-7.4a3.917,3.917,0,0,1-2.753-1.14l-1.141-1.14-1.14,1.14a3.919,3.919,0,0,1-2.753,1.14h-.945a8.074,8.074,0,0,1,8.064-8.064Zm-8.064,12.9v-1.613h.945a7.059,7.059,0,0,0,3.893-1.156,7.064,7.064,0,0,0,3.894,1.156h7.4v1.613a8.064,8.064,0,1,1-16.129,0Zm8.064,14.516a4.128,4.128,0,0,1-3.226-2.056V127.6a11.2,11.2,0,0,0,6.452,0v1.643a4.12,4.12,0,0,1-3.226,2.058Zm44.335,28.309a11.345,11.345,0,0,0,4.052,5.138v2.45l-10.38,3.114a7.875,7.875,0,0,0-1,.381l-1.524-.351V167.16a12.972,12.972,0,0,0,3.917-5.29,8.031,8.031,0,0,0,4.934-2.264Zm-16.915,10.4a12.809,12.809,0,0,0,4.838-.95v1.756l-4.838,3.629-4.839-3.629v-1.756a12.815,12.815,0,0,0,4.839.95Zm-6.82,3.353,3.932,2.95-4.045,2.428-1.022-5.115Zm5.037,12.776H226.9l1.254,11.29h-6.073Zm3.845-3.226h-4.127l-.926-2.778,2.991-1.793,2.988,1.793Zm.825-6.6,3.932-2.95,1.136.262-1.023,5.114Zm11.984-19.177a4.831,4.831,0,0,1-2.038,1.3,13.038,13.038,0,0,0,.07-1.332v-7.718a4.87,4.87,0,0,1,3.2,4.01,4.815,4.815,0,0,1-1.233,3.737Zm-5.194-.029a9.677,9.677,0,0,1-19.355,0v-8.065h5.476a20.74,20.74,0,0,0,9.993-2.553l1.276,2.553h2.61Zm-22.511,1.332a4.768,4.768,0,0,1-.07-9.049V157.1a13.038,13.038,0,0,0,.07,1.332Zm.853,3.434a12.935,12.935,0,0,0,3.916,5.29v3.178l-1.524.351a8.418,8.418,0,0,0-1-.381l-10.382-3.114v-2.45a11.359,11.359,0,0,0,4.052-5.138,8.032,8.032,0,0,0,4.935,2.264Zm-15.439-19.283a8.074,8.074,0,0,1,8.065,8.065h-.945a3.924,3.924,0,0,1-2.754-1.14l-1.14-1.141-1.14,1.141a3.924,3.924,0,0,1-2.754,1.14h-7.4a8.074,8.074,0,0,1,8.064-8.065Zm-8.064,12.9v-1.613h7.4a7.064,7.064,0,0,0,3.894-1.156,7.064,7.064,0,0,0,3.894,1.156h.945v1.613a8.064,8.064,0,0,1-16.129,0Zm8.064,11.29a11.2,11.2,0,0,0,3.226-.476v1.644a3.558,3.558,0,0,1-6.452,0v-1.644a11.273,11.273,0,0,0,3.226.474Zm-3.226,22.581h-6.451V178.071h-3.226v11.291h-6.452V178.033a4.807,4.807,0,0,1,3.449-4.634l10.385-3.117a6.64,6.64,0,0,0,11.042,0l6.116,1.836-4.5,1.037a11.243,11.243,0,0,0-8.752,11v1.979h3.226v-1.979a8.029,8.029,0,0,1,6.252-7.858l8.455-1.952,1.9,9.51,3.375-2.024.954,2.864-1.413,12.729H210.6v-12.9h-3.225v12.9h-8.065V194.2a4.845,4.845,0,0,0-4.839-4.838ZM268.439,173.4a4.807,4.807,0,0,1,3.449,4.634v11.329h-6.452V178.071H262.21v11.291h-6.451a4.845,4.845,0,0,0-4.839,4.838v3.226h-8.065v-12.9H239.63v12.9H231.4L229.981,184.7l.955-2.864,3.375,2.024,1.9-9.51,8.456,1.952a8.029,8.029,0,0,1,6.252,7.858v1.979h3.226v-1.979a11.243,11.243,0,0,0-8.751-11l-4.5-1.037,6.116-1.836a6.64,6.64,0,0,0,11.042,0Zm-12.68-5.448a3.559,3.559,0,0,1-6.452,0V166.3a11.169,11.169,0,0,0,6.452,0Zm-3.226-4.4a8.074,8.074,0,0,1-8.065-8.064v-1.613h.946a7.064,7.064,0,0,0,3.893-1.156,7.064,7.064,0,0,0,3.894,1.156h7.4v1.613a8.074,8.074,0,0,1-8.064,8.064Zm0-20.968a8.074,8.074,0,0,1,8.064,8.065h-7.4a3.924,3.924,0,0,1-2.754-1.14l-1.14-1.141-1.14,1.141a3.923,3.923,0,0,1-2.753,1.14h-.946a8.074,8.074,0,0,1,8.065-8.065Zm-11.29,4.976a8.477,8.477,0,0,0-5.116-1.75h-1.952l-1.984-3.967-1.52,1.012a17.528,17.528,0,0,1-9.759,2.955H214.1a8.474,8.474,0,0,0-5.115,1.75v-2.385a15.494,15.494,0,0,1,26.449-10.957l1.712,1.712.361.121a5.456,5.456,0,0,1,3.736,5.182Zm11.29-43.685a8.074,8.074,0,0,1,8.064,8.064h-.945a3.919,3.919,0,0,1-2.753-1.14l-1.14-1.14-1.141,1.14a3.916,3.916,0,0,1-2.753,1.14h-7.4a8.074,8.074,0,0,1,8.065-8.064Zm-8.065,12.9v-1.613h7.4a7.064,7.064,0,0,0,3.894-1.156,7.059,7.059,0,0,0,3.893,1.156h.945v1.613a8.064,8.064,0,1,1-16.129,0Zm8.065,14.516a4.124,4.124,0,0,1-3.226-2.056V127.6a11.192,11.192,0,0,0,6.452,0v1.643a4.122,4.122,0,0,1-3.226,2.058Zm0,0"/>
    <rect id="Rectángulo_9583" data-name="Rectángulo 9583" width="3.226" height="3.226" transform="translate(212.21 100.652)"/>
    <rect id="Rectángulo_9584" data-name="Rectángulo 9584" width="3.226" height="17.742" transform="translate(212.21 107.104)"/>
    <rect id="Rectángulo_9585" data-name="Rectángulo 9585" width="3.226" height="3.226" transform="translate(234.791 100.652)"/>
    <rect id="Rectángulo_9586" data-name="Rectángulo 9586" width="3.226" height="17.742" transform="translate(234.791 107.104)"/>
    <rect id="Rectángulo_9587" data-name="Rectángulo 9587" width="3.226" height="11.29" transform="translate(218.662 107.104)"/>
    <rect id="Rectángulo_9588" data-name="Rectángulo 9588" width="3.226" height="3.226" transform="translate(218.662 121.62)"/>
    <rect id="Rectángulo_9589" data-name="Rectángulo 9589" width="3.226" height="11.29" transform="translate(228.339 107.104)"/>
    <rect id="Rectángulo_9590" data-name="Rectángulo 9590" width="3.226" height="3.226" transform="translate(228.339 121.62)"/>
  </g>
</svg>
