<svg xmlns="http://www.w3.org/2000/svg" width="100" height="100" viewBox="0 0 100 100">
  <g id="Grupo_66176" data-name="Grupo 66176" transform="translate(-170.718 -221.897)">
    <path id="Trazado_137278" data-name="Trazado 137278" d="M194.911,291.252l-11.29,29.033H177.17l11.29-29.033Zm0,0" fill="#d3a06c"/>
    <rect id="Rectángulo_9591" data-name="Rectángulo 9591" width="6.452" height="29.032" transform="translate(199.75 291.252)" fill="#d3a06c"/>
    <path id="Trazado_137279" data-name="Trazado 137279" d="M217.492,291.252l11.29,29.033h-6.451l-11.29-29.033Zm0,0" fill="#d3a06c"/>
    <rect id="Rectángulo_9592" data-name="Rectángulo 9592" width="29.032" height="6.452" transform="translate(188.46 284.801)" fill="#d3a06c"/>
    <rect id="Rectángulo_9593" data-name="Rectángulo 9593" width="61.29" height="6.452" transform="translate(172.331 278.349)" fill="#d44f4a"/>
    <path id="Trazado_137280" data-name="Trazado 137280" d="M211.041,223.51l6.451,6.452h16.129v6.452h-61.29v-6.452H188.46l6.451-6.452Zm0,0" fill="#d44f4a"/>
    <path id="Trazado_137281" data-name="Trazado 137281" d="M221.686,242.22a3.357,3.357,0,0,1,2.355-.968,3.4,3.4,0,0,1,2.516,1.13l3.838,4.386V236.414H175.557v41.935H230.4V258.188l-.9-1.13-8.048-10.048a3.394,3.394,0,0,1-.726-2.081v-.354a3.357,3.357,0,0,1,.968-2.355Zm0,0" fill="#e6e9ed"/>
    <path id="Trazado_137282" data-name="Trazado 137282" d="M215.879,255.768a8.064,8.064,0,1,1,0,16.129Zm0,0" fill="#ffc200"/>
    <path id="Trazado_137283" data-name="Trazado 137283" d="M215.879,263.833V271.9a8.067,8.067,0,0,1-8.064-8.064Zm0,0" fill="#ffc200"/>
    <path id="Trazado_137284" data-name="Trazado 137284" d="M215.879,255.768v8.065h-8.064a8.068,8.068,0,0,1,8.064-8.065Zm0,0" fill="#ef7385"/>
    <path id="Trazado_137285" data-name="Trazado 137285" d="M252.976,278.349H243.3v41.936h19.354V278.349Zm0,0" fill="#cf9e76"/>
    <path id="Trazado_137286" data-name="Trazado 137286" d="M254.509,255.51a6.488,6.488,0,0,0,3.306-2.967l7.129,1.016a4.843,4.843,0,0,1,4.161,4.79v10.323h-6.452v9.677H243.3V262.22H235.17a3.236,3.236,0,0,1-2.517-1.21l-2.258-2.822-.9-1.13,5.726-4.774,1.629,1.871,11.29-1.612a6.488,6.488,0,0,0,3.306,2.967Zm0,0" fill="#e6e9ed"/>
    <path id="Trazado_137287" data-name="Trazado 137287" d="M254.589,255.768l1.613,12.9-3.226,3.225-3.226-3.225,1.613-12.9.08-.258a4.683,4.683,0,0,0,3.066,0Zm0,0" fill="#ef7385"/>
    <path id="Trazado_137288" data-name="Trazado 137288" d="M269.105,268.672v14.516a3.235,3.235,0,0,1-3.226,3.226,3.251,3.251,0,0,1-3.226-3.226V268.672Zm0,0" fill="#f0d0b4"/>
    <path id="Trazado_137289" data-name="Trazado 137289" d="M257.815,247.7v4.839a6.488,6.488,0,0,1-3.306,2.967,4.683,4.683,0,0,1-3.066,0,6.488,6.488,0,0,1-3.306-2.967V247.7a8.065,8.065,0,0,0,9.678,0Zm0,0" fill="#f0d0b4"/>
    <path id="Trazado_137290" data-name="Trazado 137290" d="M261.041,238.026v3.226a8.083,8.083,0,0,1-3.226,6.452,8.065,8.065,0,0,1-9.678,0,8.083,8.083,0,0,1-3.226-6.452v-3.226a8.065,8.065,0,0,1,16.13,0Zm0,0" fill="#f0d0b4"/>
    <path id="Trazado_137291" data-name="Trazado 137291" d="M235.218,252.284l-5.726,4.774-8.048-10.048a3.394,3.394,0,0,1-.726-2.081v-.354a3.305,3.305,0,0,1,3.323-3.323,3.4,3.4,0,0,1,2.516,1.13l3.838,4.386v.017Zm0,0" fill="#f0d0b4"/>
    <rect id="Rectángulo_9594" data-name="Rectángulo 9594" width="16.129" height="3.226" transform="translate(194.911 228.349)"/>
    <path id="Trazado_137292" data-name="Trazado 137292" d="M199.75,241.252h-3.226v17.742H193.3v-12.9h-3.226v12.9h-3.226V250.93h-3.226v8.064H180.4v3.226h22.581v-3.226H199.75Zm0,0"/>
    <rect id="Rectángulo_9595" data-name="Rectángulo 9595" width="3.226" height="3.226" transform="translate(180.395 265.446)"/>
    <rect id="Rectángulo_9596" data-name="Rectángulo 9596" width="16.129" height="3.226" transform="translate(186.847 265.446)"/>
    <path id="Trazado_137293" data-name="Trazado 137293" d="M265.879,288.026a4.845,4.845,0,0,0,4.839-4.838V258.352a6.485,6.485,0,0,0-5.539-6.387l-5.751-.821v-2.7a9.646,9.646,0,0,0,3.225-7.194v-3.226a9.677,9.677,0,0,0-19.354,0v3.226a9.651,9.651,0,0,0,3.225,7.194v2.7l-9.038,1.292-5.552-6.345h.074v-8.065h3.226v-9.677H218.16l-6.452-6.452H194.244l-6.452,6.452H170.718v9.677h3.226v38.71h-3.226v9.678h16.129v4.535l-10.781,27.723h-5.348V321.9h100v-3.225h-6.452V287.729a4.753,4.753,0,0,0,1.613.3ZM254.5,268.09l-1.527,1.527-1.527-1.527,1.34-10.72c.063,0,.122.011.187.011s.124-.009.188-.011Zm-7.979-30.064a6.452,6.452,0,0,1,12.9,0v3.226a6.452,6.452,0,0,1-12.9,0Zm6.452,12.9a9.641,9.641,0,0,0,3.226-.565V252.1a3.559,3.559,0,0,1-6.452,0v-1.734a9.641,9.641,0,0,0,3.226.565Zm-5.634,3.355a8.364,8.364,0,0,0,2.311,2.153l-1.6,12.816,4.925,4.924,4.925-4.924-1.6-12.816a8.336,8.336,0,0,0,2.311-2.153l6.113.872a3.243,3.243,0,0,1,2.769,3.194v24.837a1.613,1.613,0,0,1-3.226,0V260.607h-3.225v16.129h-16.13V260.607h-9.74a1.607,1.607,0,0,1-1.259-.6L222.706,246a1.733,1.733,0,0,1-.375-1.073v-.342a1.716,1.716,0,0,1,3.006-1.131l10.871,12.425Zm-49.205,38.58v25.807H185.979l10.036-25.807Zm3.226,0h3.226v25.807h-3.226Zm6.452,0h2.122l10.036,25.807H207.815Zm5.583,0h2.991l10.036,25.807h-2.991Zm5.707-1.916v-4.535h16.129v-9.678h-3.226v-14.1a4.8,4.8,0,0,0,3.163,1.2h6.515v54.839h-11.8Zm25.806-10.987h6.452v38.71h-6.452Zm-70.967-48.387h15.184l6.451-6.452h14.794l6.451,6.452h15.184V234.8H173.944Zm3.226,6.451h51.612v4.464l-1.017-1.164a4.942,4.942,0,0,0-8.66,3.254v.341a4.969,4.969,0,0,0,1.082,3.088l8.6,10.745v17.982H177.17Zm-3.226,41.936h58.064v3.226H173.944Zm41.935,6.452v3.225H190.073v-3.225Zm-26.316,6.451h2.991l-10.036,25.807h-2.991Zm65.026,25.807v-38.71h6.452v38.71Zm0,0"/>
    <path id="Trazado_137294" data-name="Trazado 137294" d="M215.879,254.155a9.678,9.678,0,1,0,9.678,9.678,9.687,9.687,0,0,0-9.678-9.678Zm-1.613,3.456v4.609h-4.609a6.441,6.441,0,0,1,4.609-4.609Zm-4.609,7.835h4.609v4.609a6.441,6.441,0,0,1-4.609-4.609Zm7.835,4.609V257.611a6.42,6.42,0,0,1,0,12.444Zm0,0"/>
  </g>
</svg>
