<svg xmlns="http://www.w3.org/2000/svg" width="100" height="100" viewBox="0 0 100 100">
  <g id="Grupo_66184" data-name="Grupo 66184" transform="translate(-601.853 -116.037)">
    <rect id="Rectángulo_9663" data-name="Rectángulo 9663" width="11.29" height="10.484" transform="translate(655.079 205.553)" fill="#6bbcb1"/>
    <rect id="Rectángulo_9664" data-name="Rectángulo 9664" width="11.29" height="10.484" transform="translate(637.337 205.553)" fill="#6bbcb1"/>
    <path id="Trazado_137403" data-name="Trazado 137403" d="M687.45,182.682a21.026,21.026,0,0,0,1.5-7.774,2.419,2.419,0,1,1,4.839,0v5.209l-7.968,7-.1-.113Zm0,0" fill="#f0d0b4"/>
    <path id="Trazado_137404" data-name="Trazado 137404" d="M693.789,180.117l2.564-2.242a2.4,2.4,0,0,1,1.516-.548,2.376,2.376,0,0,1,2.372,2.371v.758a2.378,2.378,0,0,1-.6,1.58l-10.387,11.678a6.455,6.455,0,0,1-4.822,2.161h-10.2a6.433,6.433,0,0,0-6.113,4.42l-1.757,5.258H655.079V192.505a5.02,5.02,0,0,1,.807-2.694l4.742-7.1a4.7,4.7,0,0,1,2.436-1.887l14.16-4.951a2.465,2.465,0,0,1,.9-.162,2.767,2.767,0,0,1,2.758,2.758v.226a2.777,2.777,0,0,1-1.71,2.564l-7.983,3.258.015.065,3.5,2.9a4.784,4.784,0,0,0,3.1,1.129h4.484a4.778,4.778,0,0,0,3.194-1.209l.338-.291Zm0,0" fill="#f0d0b4"/>
    <path id="Trazado_137405" data-name="Trazado 137405" d="M617.886,187.117l-7.968-7v-5.209a2.419,2.419,0,1,1,4.839,0,21.026,21.026,0,0,0,1.5,7.774L617.983,187Zm0,0" fill="#f0d0b4"/>
    <path id="Trazado_137406" data-name="Trazado 137406" d="M609.918,180.117l7.968,7,.338.291a4.778,4.778,0,0,0,3.194,1.209H625.9a4.784,4.784,0,0,0,3.1-1.129l3.5-2.9.015-.065-7.983-3.258a2.777,2.777,0,0,1-1.71-2.564v-.226a2.767,2.767,0,0,1,2.758-2.758,2.465,2.465,0,0,1,.9.162l14.16,4.951a4.7,4.7,0,0,1,2.436,1.887l4.742,7.1a5.02,5.02,0,0,1,.807,2.694v13.048H637.337l-1.758-5.258a6.431,6.431,0,0,0-6.112-4.42h-10.2a6.455,6.455,0,0,1-4.822-2.161l-10.387-11.678a2.379,2.379,0,0,1-.6-1.58V179.7a2.376,2.376,0,0,1,2.372-2.371,2.4,2.4,0,0,1,1.516.548Zm0,0" fill="#f0d0b4"/>
    <path id="Trazado_137407" data-name="Trazado 137407" d="M667.983,172.488H635.724a6.443,6.443,0,0,1,6.452-6.451h19.355a6.45,6.45,0,0,1,6.452,6.451Zm0,0" fill="#ffc200"/>
    <rect id="Rectángulo_9665" data-name="Rectángulo 9665" width="6.452" height="19.355" transform="translate(648.628 146.682)" fill="#ffc200"/>
    <path id="Trazado_137408" data-name="Trazado 137408" d="M671.208,117.65v.548a32.657,32.657,0,0,1-.532,5.9H633.031a32.657,32.657,0,0,1-.532-5.9v-.548Zm0,0" fill="#ffc200"/>
    <path id="Trazado_137409" data-name="Trazado 137409" d="M633.031,124.1h37.645a33.2,33.2,0,0,1-15.6,22.581h-6.451a33.175,33.175,0,0,1-11.807-12.113,32.763,32.763,0,0,1-3.79-10.468Zm0,0" fill="#ffc200"/>
    <path id="Trazado_137410" data-name="Trazado 137410" d="M656.45,132.278l-1.532,2.5-.226,2.919L651.853,137l-2.838.694-.226-2.919-1.532-2.5,2.693-1.113,1.9-2.225,1.9,2.225Zm0,0" fill="#ed5565"/>
    <path id="Trazado_137411" data-name="Trazado 137411" d="M697.866,175.714a4.017,4.017,0,0,0-2.464.866v-1.672a4.033,4.033,0,1,0-8.065,0,19.254,19.254,0,0,1-1.382,7.177l-1.691,4.231a3.221,3.221,0,0,1-1.975.688H677.8a3.234,3.234,0,0,1-2.065-.748l-1.483-1.237,5.538-2.273a4.357,4.357,0,0,0,2.71-4.042v-.232a4.377,4.377,0,0,0-5.815-4.128L662.526,179.3a6.482,6.482,0,0,0-3.236,2.511l-4.74,7.11a6.433,6.433,0,0,0-1.084,3.58v23.535h3.226v-8.871h8.065v8.871h3.226V205.814l1.672-5.018a4.831,4.831,0,0,1,4.59-3.309h10.2a8.06,8.06,0,0,0,6.027-2.709L700.849,183.1a3.991,3.991,0,0,0,1-2.647V179.7a3.99,3.99,0,0,0-3.987-3.986Zm-6.5-1.613a.808.808,0,0,1,.806.807v4.483l-2.7,2.37a22.445,22.445,0,0,0,1.085-6.853.809.809,0,0,1,.807-.807Zm7.258,6.355a.758.758,0,0,1-.192.505l-10.38,11.676a4.841,4.841,0,0,1-3.615,1.624h-10.2a8.052,8.052,0,0,0-7.649,5.514l-1.388,4.163h-8.516V192.5a3.219,3.219,0,0,1,.542-1.789l4.74-7.111a3.24,3.24,0,0,1,1.618-1.254l14.157-4.955a1.173,1.173,0,0,1,1.524,1.081v.232a1.143,1.143,0,0,1-.71,1.06l-9.309,3.824a6.431,6.431,0,0,0-4.5,6.148v1.3h3.226v-1.3a3.274,3.274,0,0,1,2.371-3.12l.518-.212,2.8,2.33a6.458,6.458,0,0,0,4.131,1.5h4.49a6.45,6.45,0,0,0,4.256-1.6l10.838-9.513a.787.787,0,0,1,1.245.586Zm0,0"/>
    <path id="Trazado_137412" data-name="Trazado 137412" d="M644.418,181.814a6.49,6.49,0,0,0-3.238-2.514l-14.157-4.956a4.377,4.377,0,0,0-5.815,4.128v.232a4.357,4.357,0,0,0,2.712,4.044l5.54,2.271-1.487,1.239a3.243,3.243,0,0,1-2.065.746h-4.49a3.221,3.221,0,0,1-1.975-.688l-1.691-4.232a19.244,19.244,0,0,1-1.382-7.176,4.033,4.033,0,1,0-8.065,0v1.668a3.979,3.979,0,0,0-6.452,3.125v.756a4,4,0,0,0,1.007,2.649l10.379,11.675a8.066,8.066,0,0,0,6.027,2.709h10.2a4.831,4.831,0,0,1,4.59,3.31l1.672,5.014v10.223h3.226v-8.871h8.065v8.871h3.226V192.5a6.431,6.431,0,0,0-1.084-3.58ZM612.337,174.1a.809.809,0,0,1,.807.807,22.445,22.445,0,0,0,1.085,6.854l-2.7-2.369v-4.485a.808.808,0,0,1,.806-.807Zm17.125,20.161h-10.2a4.84,4.84,0,0,1-3.615-1.624l-10.378-11.676a.753.753,0,0,1-.194-.506V179.7a.762.762,0,0,1,.762-.76.736.736,0,0,1,.445.142l10.876,9.546a6.45,6.45,0,0,0,4.256,1.6h4.49a6.467,6.467,0,0,0,4.131-1.495l2.8-2.334.637.262a3.214,3.214,0,0,1,2.248,3.072v1.3h3.226v-1.3a6.376,6.376,0,0,0-4.372-6.1l-9.433-3.87a1.143,1.143,0,0,1-.711-1.06v-.232a1.182,1.182,0,0,1,1.523-1.082l14.157,4.954a3.26,3.26,0,0,1,1.619,1.257l4.74,7.11a3.224,3.224,0,0,1,.542,1.789v11.44H638.5l-1.388-4.163a8.057,8.057,0,0,0-7.651-5.515Zm0,0"/>
    <path id="Trazado_137413" data-name="Trazado 137413" d="M651.853,126.451l-2.872,3.376-4.1,1.689,2.32,3.774.341,4.416,4.307-1.042,4.307,1.042.338-4.416,2.323-3.774-4.1-1.689Zm1.489,7.811-.108,1.419-1.381-.336-1.38.336-.11-1.419-.745-1.21,1.315-.541.92-1.082.921,1.082,1.313.541Zm0,0"/>
    <path id="Trazado_137414" data-name="Trazado 137414" d="M633.56,140.48a1.713,1.713,0,0,1,.552,1.363,1.613,1.613,0,0,1-3.226,0V140.23H627.66v1.613a4.84,4.84,0,1,0,8.026-3.792l-9.908-8.669a3.933,3.933,0,0,1,2.59-6.894h2.793a35.038,35.038,0,0,0,15.854,25.071v16.865h-4.839a8.073,8.073,0,0,0-8.064,8.064V174.1h35.483v-1.613a8.074,8.074,0,0,0-8.064-8.064h-4.839V147.559a35.044,35.044,0,0,0,15.854-25.071h2.793a3.933,3.933,0,0,1,2.59,6.894l-9.908,8.669a4.937,4.937,0,0,0-1.651,3.792,4.839,4.839,0,1,0,9.677,0V140.23h-3.226v1.613a1.615,1.615,0,0,1-1.613,1.613,1.654,1.654,0,0,1-1.613-1.763,1.615,1.615,0,0,1,.552-1.213l9.906-8.67a7.159,7.159,0,0,0-4.714-12.548h-2.553c.011-.356.035-.709.035-1.068v-2.157H630.886v2.157c0,.359.024.712.035,1.068h-2.553a7.159,7.159,0,0,0-4.714,12.548Zm32.534,30.4H637.613a4.847,4.847,0,0,1,4.563-3.225h19.355a4.847,4.847,0,0,1,4.563,3.225Zm-15.853-6.451V148.295h3.225v16.129Zm19.336-45.162a31.162,31.162,0,0,1-.293,3.226h-4.527v3.226h3.906a31.791,31.791,0,0,1-14.035,19.355h-5.545a31.777,31.777,0,0,1-14.036-19.355h26.484v-3.226H634.423a31.162,31.162,0,0,1-.293-3.226Zm0,0"/>
    <path id="Trazado_137415" data-name="Trazado 137415" d="M617.983,146.682v4.171l-2.951-2.949-2.28,2.281,2.95,2.948h-4.171v3.226H615.7l-2.95,2.949,2.28,2.281,2.951-2.949v4.171h3.225V158.64l2.951,2.949,2.28-2.281-2.95-2.949h4.171v-3.226h-4.171l2.95-2.948-2.28-2.281-2.951,2.949v-4.171Zm2.948,4.839,1.89,1.89v2.671l-1.89,1.89H618.26l-1.89-1.89v-2.671l1.89-1.89Zm0,0"/>
    <path id="Trazado_137416" data-name="Trazado 137416" d="M697.683,133.779l2.95-2.949-2.281-2.281L695.4,131.5v-4.171h-3.226V131.5l-2.95-2.949-2.281,2.281,2.95,2.949h-4.171V137H689.9l-2.95,2.949,2.281,2.281,2.95-2.949v4.171H695.4v-4.171l2.95,2.949,2.281-2.281L697.683,137h4.17v-3.225Zm-.668.277v2.671l-1.89,1.89h-2.672l-1.89-1.89v-2.671l1.89-1.89h2.672Zm0,0"/>
    <rect id="Rectángulo_9666" data-name="Rectángulo 9666" width="3.226" height="3.226" transform="translate(676.047 149.908)"/>
    <rect id="Rectángulo_9667" data-name="Rectángulo 9667" width="3.226" height="3.226" transform="translate(672.821 153.133)"/>
    <rect id="Rectángulo_9668" data-name="Rectángulo 9668" width="3.226" height="3.226" transform="translate(676.047 156.359)"/>
    <rect id="Rectángulo_9669" data-name="Rectángulo 9669" width="3.226" height="3.226" transform="translate(679.273 153.133)"/>
    <rect id="Rectángulo_9670" data-name="Rectángulo 9670" width="3.226" height="3.226" transform="translate(611.531 116.037)"/>
    <rect id="Rectángulo_9671" data-name="Rectángulo 9671" width="3.226" height="3.226" transform="translate(608.305 119.262)"/>
    <rect id="Rectángulo_9672" data-name="Rectángulo 9672" width="3.226" height="3.226" transform="translate(611.531 122.488)"/>
    <rect id="Rectángulo_9673" data-name="Rectángulo 9673" width="3.226" height="3.226" transform="translate(614.757 119.262)"/>
  </g>
</svg>
