<svg xmlns="http://www.w3.org/2000/svg" width="453" height="392" viewBox="0 0 453 392">
  <g id="Grupo_65474" data-name="Grupo 65474" transform="translate(-318 -24664)">
    <rect id="Rectángulo_9236" data-name="Rectángulo 9236" width="453" height="392" transform="translate(318 24664)" fill="none"/>
    <g id="layer_08" data-name="layer 08" transform="translate(303.651 24707.568)">
      <path id="path5154-3" d="M358.09,260.56a22.858,22.858,0,0,1,19.5-34.367" fill="none" stroke="#000" stroke-width="0.6"/>
      <path id="path5154-1-1" d="M377.881,218.574a30.477,30.477,0,0,1,26.332,45.751" fill="none" stroke="#000" stroke-width="0.6"/>
      <path id="path5154-1-5-2" d="M410.751,268.238a38.1,38.1,0,0,1-65.85-.045" fill="none" stroke="#000" stroke-width="0.6"/>
      <path id="path8056-4-2-2" d="M92.114,112.608,221.643,37.825" fill="none" stroke="blue" stroke-width="1"/>
      <path id="path8056-4-8-0-4" d="M221.643,112.608,92.114,37.824" fill="none" stroke="blue" stroke-width="1"/>
      <path id="path2898-4-7-0-9-6" d="M248.308,75.216c0,29.154-40.935,52.788-91.432,52.788S65.444,104.37,65.444,75.216s40.935-52.788,91.432-52.788S248.308,46.062,248.308,75.216Z" fill="none" stroke="blue" stroke-linecap="round" stroke-linejoin="round" stroke-width="1"/>
      <path id="path8056-4-8-4-73-1" d="M286.407,75.216,156.878.432" fill="none" stroke="blue" stroke-width="1"/>
      <path id="path8056-4-8-4-2-7-8" d="M156.878,150,27.349,75.216" fill="none" stroke="blue" stroke-width="1"/>
      <path id="path8056-4-8-4-7-2-2" d="M156.878.432,27.349,75.216" fill="none" stroke="blue" stroke-width="1"/>
      <path id="path8056-4-8-4-7-9-6-1" d="M286.407,75.216,156.878,150" fill="none" stroke="blue" stroke-width="1"/>
      <path id="path8056-4-2-1-1" d="M156.878,224.784,27.349,150" fill="none" stroke="blue" stroke-width="1"/>
      <path id="path8056-4-8-0-2-9" d="M92.114,112.608V262.175" fill="none" stroke="blue" stroke-width="1"/>
      <path id="path2898-4-7-0-9-0-7" d="M46.4,108.213C71.646,93.636,112.582,117.269,137.83,161s25.248,91,0,105.574S71.647,257.517,46.4,213.788,21.15,122.791,46.4,108.213Z" fill="none" stroke="blue" stroke-linecap="round" stroke-linejoin="round" stroke-width="1"/>
      <path id="path8056-4-8-4-73-0-6" d="M27.349,75.216V224.783" fill="none" stroke="blue" stroke-width="1"/>
      <path id="path8056-4-8-4-2-7-1-2" d="M156.878,150V299.567" fill="none" stroke="blue" stroke-width="1"/>
      <path id="path8056-4-8-4-7-2-4-9" d="M27.349,224.784l129.529,74.783" fill="none" stroke="blue" stroke-width="1"/>
      <path id="path8056-4-2-17-5" d="M221.642,112.608V262.175" fill="none" stroke="blue" stroke-width="1"/>
      <path id="path8056-4-8-0-7-2" d="M156.878,224.784,286.407,150" fill="none" stroke="blue" stroke-width="1"/>
      <path id="path2898-4-7-0-9-7-0" d="M175.927,266.568c-25.248-14.577-25.248-61.845,0-105.575s66.184-67.363,91.432-52.786,25.247,61.846,0,105.575S201.175,281.145,175.927,266.568Z" fill="none" stroke="blue" stroke-linecap="round" stroke-linejoin="round" stroke-width="1"/>
      <path id="path8056-4-8-4-73-7-0" d="M156.878,299.567l129.529-74.783" fill="none" stroke="blue" stroke-width="1"/>
      <path id="path8056-4-8-4-7-2-3-3" d="M286.407,224.784V75.217" fill="none" stroke="blue" stroke-width="1"/>
      <path id="path8056-1-2-7-1-89" d="M377.839,249.051V172.858" fill="none" stroke="blue" stroke-width="1"/>
      <path id="path8056-1-2-7-1-89-4" d="M377.839,249.051l-65.983,38.1" fill="none" stroke="blue" stroke-width="1"/>
      <path id="path8056-1-2-7-1-89-5" d="M377.839,249.051l65.985,38.1" fill="none" stroke="blue" stroke-width="1"/>
      <g id="text3764-63-0-7-3-9-0-7-1-14-3-3-8-7-7-1-1-6-88-7-2-6-1-1-2-1-1-1-7-65" style="isolation: isolate">
        <text id="_120_" data-name="120º" transform="translate(332.123 232.622)" font-size="12" font-family="ArialMT, Arial" style="isolation: isolate"><tspan x="0" y="0">120º</tspan></text>
      </g>
      <g id="text3764-63-0-7-3-9-0-7-1-14-3-3-8-7-7-1-1-6-88-7-2-6-1-1-2-1-1-1-7-3-54" style="isolation: isolate">
        <text id="_120_2" data-name="120º" transform="translate(408.316 232.622)" font-size="12" font-family="ArialMT, Arial" style="isolation: isolate"><tspan x="0" y="0">120º</tspan></text>
      </g>
      <g id="text3764-63-0-7-3-9-0-7-1-14-3-3-8-7-7-1-1-6-88-7-2-6-1-1-2-1-1-1-7-33-2" style="isolation: isolate">
        <text id="_120_3" data-name="120º" transform="translate(362.6 301.196)" font-size="12" font-family="ArialMT, Arial" style="isolation: isolate"><tspan x="0" y="0">120º</tspan></text>
      </g>
      <g id="text3764-63-0-7-3-9-0-7-1-14-3-3-8-7-7-1-1-6-88-7-2-6-1-1-2-1-1-1-7-11-01" style="isolation: isolate">
        <text id="z" transform="translate(385.458 177.286)" font-size="10" font-family="ArialMT, Arial" style="isolation: isolate"><tspan x="0" y="0">z</tspan></text>
      </g>
      <g id="text3764-63-0-7-3-9-0-7-1-14-3-3-8-7-7-1-1-6-88-7-2-6-1-1-2-1-1-1-7-11-2-0" style="isolation: isolate">
        <text id="x" transform="translate(316.884 291.576)" font-size="10" font-family="ArialMT, Arial" style="isolation: isolate"><tspan x="0" y="0">x</tspan></text>
      </g>
      <g id="text3764-63-0-7-3-9-0-7-1-14-3-3-8-7-7-1-1-6-88-7-2-6-1-1-2-1-1-1-7-11-1-1" style="isolation: isolate">
        <text id="y" transform="translate(446.413 276.338)" font-size="10" font-family="ArialMT, Arial" style="isolation: isolate"><tspan x="0" y="0">y</tspan></text>
      </g>
    </g>
  </g>
</svg>
