<svg xmlns="http://www.w3.org/2000/svg" width="453" height="392" viewBox="0 0 453 392">
  <g id="Grupo_65459" data-name="Grupo 65459" transform="translate(-307 -22621)">
    <rect id="Rectángulo_9236" data-name="Rectángulo 9236" width="453" height="392" transform="translate(307 22621)" fill="none"/>
    <g id="_1ptPerspective" data-name=" 1ptPerspective" transform="translate(327 22624)">
      <g id="layer3" transform="translate(21.382 -0.001)">
        <g id="g4675">
          <rect id="rect3215" width="18.795" height="79.121" transform="translate(118.153 219.397)" fill="#fff" stroke="#000" stroke-width="0.433"/>
          <path id="path3217" d="M173.745,240.972l2.637,3.588-.056,73.414-2.584,1.617v-78.62Z" transform="translate(-36.844 -21.444)" fill="#fff" stroke="#000" stroke-width="0.433" fill-rule="evenodd"/>
          <rect id="rect3167" width="48.284" height="207.968" transform="translate(7.838 134.515)" fill="#fff" stroke="#000" stroke-width="1.299"/>
          <path id="path3191" d="M85.022,147.332l15.588,16.9.067,184.289-15.166,8.009Z" transform="translate(-28.949 -13.111)" fill="#fff" stroke="#000" stroke-width="1.039" fill-rule="evenodd"/>
          <path id="path3203" d="M226.748,171.7V0" transform="translate(-41.561 0.001)" fill="none" stroke="#000" stroke-width="0.671"/>
          <rect id="rect3211" width="26.49" height="114.75" transform="translate(87.614 196.025)" fill="#fff" stroke="#000" stroke-width="1.039"/>
          <path id="path3213" d="M148.8,215.358l5.557,5.612.118,105.209-5.679,3.994V215.358Z" transform="translate(-34.624 -19.164)" fill="#fff" stroke="#000" stroke-width="0.866" fill-rule="evenodd"/>
          <path id="path3815" d="M176.489,239.743s-1.193-26.055,17.79-40.158c18.019-13.386,28.228-10.947,28.228-10.947m45.656,51.108s1.193-26.055-17.79-40.158C232.353,186.2,222.5,188.708,222.5,188.708v-.073" transform="translate(-37.087 -16.771)" fill="none" stroke="#000" stroke-width="0.433"/>
          <path id="path3822" d="M173.745,234.256s-3.486-48.2,48.5-67.906m48.314,67.988s3.7-48.323-48.291-68.027" transform="translate(-36.84 -14.8)" fill="none" stroke="#000" stroke-width="0.433"/>
          <path id="path3827" d="M174.321,229.851l2.7,3.6" transform="translate(-36.896 -20.454)" fill="none" stroke="#000" stroke-width="0.433"/>
          <path id="path3829" d="M177.46,223.681l-2.915-4.653H154.989" transform="translate(-35.175 -19.491)" fill="none" stroke="#000" stroke-width="0.433"/>
          <path id="path3831" d="M180.955,206.847l3.28,6.279" transform="translate(-37.486 -18.407)" fill="none" stroke="#000" stroke-width="0.443"/>
          <path id="path3833" d="M187.527,195.755l3.013,8.4" transform="translate(-38.071 -17.42)" fill="none" stroke="#000" stroke-width="0.433"/>
          <path id="path3835" d="M196.624,185.313l3,11.24" transform="translate(-38.88 -16.491)" fill="none" stroke="#000" stroke-width="0.433"/>
          <path id="path3837" d="M205.37,177.746,208,191.724" transform="translate(-39.659 -15.817)" fill="none" stroke="#000" stroke-width="0.433"/>
          <path id="path3839" d="M216.027,171.268l1.34,16.641" transform="translate(-40.607 -15.241)" fill="none" stroke="#000" stroke-width="0.433"/>
          <path id="path3857" d="M154.83,216.546c-.342-43.562,36.084-58.493,65.7-50.351" transform="translate(-35.161 -14.6)" fill="none" stroke="#000" stroke-width="0.866"/>
          <path id="path3859" d="M148.668,204.385s1.895-80.871,71.388-111.466" transform="translate(-34.613 -8.268)" fill="none" stroke="#000" stroke-width="1.039"/>
          <path id="path3861" d="M150.275,199.553l5.284,6.985" transform="translate(-34.756 -17.758)" fill="none" stroke="#000" stroke-width="0.909"/>
          <path id="path3863" d="M153.723,183.916l5.922,8.871" transform="translate(-35.063 -16.366)" fill="none" stroke="#000" stroke-width="1.03"/>
          <path id="path3865" d="M159.778,165.052l7.744,14.975" transform="translate(-35.601 -14.688)" fill="none" stroke="#000" stroke-width="0.866"/>
          <path id="path3867" d="M168.376,147.028l9.055,22.988" transform="translate(-36.367 -13.084)" fill="none" stroke="#000" stroke-width="0.866"/>
          <path id="path3869" d="M181.418,128.224l9.292,34.983" transform="translate(-37.527 -11.41)" fill="none" stroke="#000" stroke-width="0.866"/>
          <path id="path3871" d="M194.178,114.377l7.944,45.436" transform="translate(-38.663 -10.178)" fill="none" stroke="#000" stroke-width="0.866"/>
          <path id="path3873" d="M210.357,101.919,214.7,158.8" transform="translate(-40.103 -9.069)" fill="none" stroke="#000" stroke-width="0.866"/>
          <path id="path3923" d="M102.379,158.771c-.61-64.752,56.493-99.069,113.5-67.033" transform="translate(-30.493 -7.081)" fill="none" stroke="#000" stroke-width="1.039"/>
          <path id="path3925" d="M84.722,140.282S87.2,87.352,95.386,64.2" transform="translate(-28.922 -5.712)" fill="none" stroke="#000" stroke-width="1.299"/>
          <path id="path3927" d="M31.408,140.282s1.24-48.958-7.937-76.082" transform="translate(-23.471 -5.712)" fill="none" stroke="#000" stroke-width="1.299"/>
          <path id="path3929" d="M87.319,119.21l16.1,20.277" transform="translate(-29.153 -10.608)" fill="none" stroke="#000" stroke-width="1.299"/>
          <path id="path3931" d="M91.333,85.229l19.822,30.256" transform="translate(-29.51 -7.584)" fill="none" stroke="#000" stroke-width="1.299"/>
          <path id="path3933" d="M109.606,65.129l16.026,31.937" transform="translate(-31.136 -5.795)" fill="none" stroke="#000" stroke-width="1.299"/>
          <path id="path3935" d="M131.208,46.974,145.022,83.63" transform="translate(-33.059 -4.179)" fill="none" stroke="#000" stroke-width="1.299"/>
          <path id="path3937" d="M157.463,42.529l9.292,34.984" transform="translate(-35.395 -3.784)" fill="none" stroke="#000" stroke-width="0.866"/>
          <path id="path3939" d="M179.055,30.619l7.835,45" transform="translate(-37.317 -2.724)" fill="none" stroke="#000" stroke-width="0.866"/>
          <path id="path3941" d="M204.1,21.707l4.345,56.884" transform="translate(-39.545 -1.931)" fill="none" stroke="#000" stroke-width="0.866"/>
          <path id="path3943" d="M81.848,119.139H31.682" transform="translate(-24.202 -10.602)" fill="none" stroke="#000" stroke-width="1.125"/>
          <path id="path3945" d="M85.579,85.34H28.687" transform="translate(-23.935 -7.594)" fill="none" stroke="#000" stroke-width="0.75"/>
          <path id="path3947" d="M118.708,207.333s.92-47.049-9.544-79.781" transform="translate(-31.097 -11.35)" fill="none" stroke="#000" stroke-width="1.039"/>
          <path id="path3949" d="M147.427,199.866H119.309" transform="translate(-32 -17.786)" fill="none" stroke="#000" stroke-width="0.75"/>
          <path id="path3951" d="M150.561,184.039H118.585" transform="translate(-31.935 -16.377)" fill="none" stroke="#000" stroke-width="0.75"/>
          <path id="path3953" d="M155.923,165.316H116.888" transform="translate(-31.784 -14.711)" fill="none" stroke="#000" stroke-width="0.75"/>
          <path id="path3955" d="M163.494,147.072h-49.51" transform="translate(-31.526 -13.087)" fill="none" stroke="#000" stroke-width="0.75"/>
          <path id="path3957" d="M174.9,127.7H109.5" transform="translate(-31.127 -11.363)" fill="none" stroke="#000" stroke-width="0.75"/>
          <path id="path3959" d="M187.108,113.812H116.647" transform="translate(-31.763 -10.128)" fill="none" stroke="#000" stroke-width="0.75"/>
          <path id="path3961" d="M202.735,101.381H126.21" transform="translate(-32.614 -9.021)" fill="none" stroke="#000" stroke-width="0.75"/>
          <path id="path3963" d="M218.668,92.825H136.739" transform="translate(-33.551 -8.26)" fill="none" stroke="#000" stroke-width="0.75"/>
          <path id="path3965" d="M203.574,84.858H151.3" transform="translate(-34.847 -7.551)" fill="none" stroke="#000" stroke-width="0.75"/>
          <path id="path3967" d="M172.523,229.79H154.806" transform="translate(-35.159 -20.449)" fill="none" stroke="#000" stroke-width="0.375"/>
          <path id="path3969" d="M178.726,206.949H156.271" transform="translate(-35.289 -18.416)" fill="none" stroke="#000" stroke-width="0.375"/>
          <path id="path3971" d="M185.014,195.761H159.556" transform="translate(-35.582 -17.42)" fill="none" stroke="#000" stroke-width="0.376"/>
          <path id="path3973" d="M193.683,185.166H165.457" transform="translate(-36.107 -16.478)" fill="none" stroke="#000" stroke-width="0.375"/>
          <path id="path3975" d="M202.255,177.734H172.048" transform="translate(-36.693 -15.816)" fill="none" stroke="#000" stroke-width="0.375"/>
          <path id="path3977" d="M212.864,171.119H181.427" transform="translate(-37.528 -15.227)" fill="none" stroke="#000" stroke-width="0.378"/>
          <path id="path2587" d="M223.7,166.4H192.819" transform="translate(-38.542 -14.807)" fill="none" stroke="#000" stroke-width="0.388"/>
          <rect id="rect3359" width="18.795" height="79.121" transform="translate(233.956 219.208)" fill="#fff" stroke="#000" stroke-width="0.433"/>
          <path id="path3361" d="M280.075,240.766l-2.637,3.588.056,73.414,2.584,1.617v-78.62Z" transform="translate(-46.072 -21.425)" fill="#fff" stroke="#000" stroke-width="0.433" fill-rule="evenodd"/>
          <rect id="rect3363" width="48.284" height="207.968" transform="translate(314.782 134.326)" fill="#fff" stroke="#000" stroke-width="1.299"/>
          <path id="path3365" d="M367.528,147.126l-15.588,16.9-.067,184.289,15.166,8.009Z" transform="translate(-52.696 -13.092)" fill="#fff" stroke="#000" stroke-width="1.039" fill-rule="evenodd"/>
          <rect id="rect3367" width="26.49" height="114.75" transform="translate(256.8 195.836)" fill="#fff" stroke="#000" stroke-width="1.039"/>
          <path id="path3369" d="M304.72,215.152l-5.557,5.612-.118,105.209,5.679,3.994V215.152Z" transform="translate(-47.995 -19.146)" fill="#fff" stroke="#000" stroke-width="0.866" fill-rule="evenodd"/>
          <path id="path3371" d="M279.495,229.641l-2.7,3.6" transform="translate(-46.015 -20.436)" fill="none" stroke="#000" stroke-width="0.433"/>
          <path id="path3373" d="M274.423,223.475l2.915-4.653H296.9" transform="translate(-45.804 -19.473)" fill="none" stroke="#000" stroke-width="0.433"/>
          <path id="path3375" d="M272.8,206.641l-3.28,6.279" transform="translate(-45.368 -18.389)" fill="none" stroke="#000" stroke-width="0.443"/>
          <path id="path3377" d="M266.257,195.545l-3.014,8.4" transform="translate(-44.809 -17.401)" fill="none" stroke="#000" stroke-width="0.433"/>
          <path id="path3379" d="M257.161,185.107l-3,11.235" transform="translate(-44.001 -16.472)" fill="none" stroke="#000" stroke-width="0.433"/>
          <path id="path3381" d="M248.452,177.544l-2.627,13.978" transform="translate(-43.259 -15.799)" fill="none" stroke="#000" stroke-width="0.433"/>
          <path id="path3383" d="M237.92,171.062,236.58,187.7" transform="translate(-42.436 -15.222)" fill="none" stroke="#000" stroke-width="0.433"/>
          <path id="path3385" d="M292.831,216.339c.342-43.562-36.084-58.493-65.7-50.35" transform="translate(-41.595 -14.582)" fill="none" stroke="#000" stroke-width="0.866"/>
          <path id="path3387" d="M298.437,204.179s-1.895-80.871-71.388-111.466" transform="translate(-41.588 -8.25)" fill="none" stroke="#000" stroke-width="1.039"/>
          <path id="path3389" d="M303.288,199.347,298,206.332" transform="translate(-47.903 -17.74)" fill="none" stroke="#000" stroke-width="0.909"/>
          <path id="path3391" d="M299.777,183.71l-5.922,8.871" transform="translate(-47.533 -16.348)" fill="none" stroke="#000" stroke-width="1.03"/>
          <path id="path3393" d="M293.547,164.846,285.8,179.821" transform="translate(-46.817 -14.669)" fill="none" stroke="#000" stroke-width="0.866"/>
          <path id="path3395" d="M284.814,146.823l-9.052,22.989" transform="translate(-45.923 -13.065)" fill="none" stroke="#000" stroke-width="0.866"/>
          <path id="path3397" d="M271.753,128.018,262.461,163" transform="translate(-44.739 -11.392)" fill="none" stroke="#000" stroke-width="0.866"/>
          <path id="path3399" d="M259.124,114.171l-7.944,45.436" transform="translate(-43.736 -10.16)" fill="none" stroke="#000" stroke-width="0.866"/>
          <path id="path3401" d="M243.294,101.713,238.948,158.6" transform="translate(-42.647 -9.051)" fill="none" stroke="#000" stroke-width="0.866"/>
          <path id="path3403" d="M340.612,158.566c.61-64.752-56.492-99.067-113.5-67.033" transform="translate(-41.594 -7.063)" fill="none" stroke="#000" stroke-width="1.039"/>
          <path id="path3405" d="M368.314,140.078s-2.481-52.93-10.667-76.087" transform="translate(-53.21 -5.694)" fill="none" stroke="#000" stroke-width="1.299"/>
          <path id="path3407" d="M421.889,140.079S420.649,91.12,429.824,64" transform="translate(-58.922 -5.694)" fill="none" stroke="#000" stroke-width="1.299"/>
          <path id="path3409" d="M365.186,119l-16.1,20.277" transform="translate(-52.448 -10.59)" fill="none" stroke="#000" stroke-width="1.299"/>
          <path id="path3411" d="M360.809,85.024,340.987,115.28" transform="translate(-51.728 -7.566)" fill="none" stroke="#000" stroke-width="1.299"/>
          <path id="path3413" d="M342.906,64.919,326.88,96.855" transform="translate(-50.472 -5.776)" fill="none" stroke="#000" stroke-width="1.299"/>
          <path id="path3415" d="M321.521,46.767,307.706,83.42" transform="translate(-48.766 -4.161)" fill="none" stroke="#000" stroke-width="1.299"/>
          <path id="path3417" d="M295.712,42.323,286.42,77.307" transform="translate(-46.872 -3.766)" fill="none" stroke="#000" stroke-width="0.866"/>
          <path id="path3419" d="M274.258,30.413l-7.835,45" transform="translate(-45.092 -2.706)" fill="none" stroke="#000" stroke-width="0.866"/>
          <path id="path3421" d="M249.559,21.5l-4.346,56.882" transform="translate(-43.204 -1.913)" fill="none" stroke="#000" stroke-width="0.866"/>
          <path id="path3423" d="M367.331,118.932H417.5" transform="translate(-54.072 -10.583)" fill="none" stroke="#000" stroke-width="1.125"/>
          <path id="path3425" d="M362.942,85.134h56.892" transform="translate(-53.682 -7.575)" fill="none" stroke="#000" stroke-width="0.75"/>
          <path id="path3427" d="M334.436,207.127s-.921-47.049,9.544-79.781" transform="translate(-51.143 -11.332)" fill="none" stroke="#000" stroke-width="1.039"/>
          <path id="path3429" d="M303.9,199.659h28.118" transform="translate(-48.428 -17.767)" fill="none" stroke="#000" stroke-width="0.75"/>
          <path id="path3431" d="M300.394,183.837H332.37" transform="translate(-48.115 -16.359)" fill="none" stroke="#000" stroke-width="0.75"/>
          <path id="path3433" d="M294.342,165.107h39.035" transform="translate(-47.577 -14.692)" fill="none" stroke="#000" stroke-width="0.75"/>
          <path id="path3435" d="M285.748,146.865h49.511" transform="translate(-46.812 -13.069)" fill="none" stroke="#000" stroke-width="0.75"/>
          <path id="path3437" d="M272.8,127.491h65.388" transform="translate(-45.659 -11.345)" fill="none" stroke="#000" stroke-width="0.75"/>
          <path id="path3439" d="M260.087,113.606h70.461" transform="translate(-44.528 -10.109)" fill="none" stroke="#000" stroke-width="0.75"/>
          <path id="path3441" d="M243.869,101.175h76.525" transform="translate(-43.085 -9.003)" fill="none" stroke="#000" stroke-width="0.75"/>
          <path id="path3443" d="M227.407,92.618h81.929" transform="translate(-41.62 -8.241)" fill="none" stroke="#000" stroke-width="0.75"/>
          <path id="path3445" d="M245.4,84.65H297.67" transform="translate(-43.221 -7.532)" fill="none" stroke="#000" stroke-width="0.75"/>
          <path id="path3447" d="M279.824,229.588h17.717" transform="translate(-46.285 -20.431)" fill="none" stroke="#000" stroke-width="0.375"/>
          <path id="path3449" d="M273.159,206.744h22.455" transform="translate(-45.691 -18.398)" fill="none" stroke="#000" stroke-width="0.375"/>
          <path id="path3451" d="M266.577,195.555h25.458" transform="translate(-45.106 -17.402)" fill="none" stroke="#000" stroke-width="0.376"/>
          <path id="path3453" d="M257.638,184.959h28.226" transform="translate(-44.31 -16.459)" fill="none" stroke="#000" stroke-width="0.375"/>
          <path id="path3455" d="M248.872,177.528h30.207" transform="translate(-43.53 -15.798)" fill="none" stroke="#000" stroke-width="0.375"/>
          <path id="path3457" d="M238.139,170.912h31.439" transform="translate(-42.575 -15.209)" fill="none" stroke="#000" stroke-width="0.378"/>
          <path id="path3459" d="M227.366,166.193h30.878" transform="translate(-41.616 -14.789)" fill="none" stroke="#000" stroke-width="0.388"/>
        </g>
      </g>
      <g id="layer1" transform="translate(0 271.36)">
        <path id="path2383" d="M0,297.868H410.773" transform="translate(0 -297.868)" fill="blue" stroke="#0000c7" stroke-width="0.866" fill-rule="evenodd"/>
      </g>
      <g id="layer2" transform="translate(2.038 54.222)">
        <path id="path3158" d="M2.237,59.519,206.513,276.741" transform="translate(-2.237 -59.519)" fill="none" stroke="red" stroke-width="0.799"/>
        <path id="path3160" d="M427.018,64.28l-200,212.907" transform="translate(-22.241 -59.943)" fill="none" stroke="red" stroke-width="0.783"/>
        <path id="path3162" d="M227.04,298.293h0c202.664,111,188.716,109.839,188.716,109.839" transform="translate(-22.243 -80.768)" fill="none" stroke="red" stroke-width="0.919"/>
        <path id="path3164" d="M207.476,298.166h0c-209.637,114.7-195.209,113.5-195.209,113.5" transform="translate(-3.111 -80.757)" fill="none" stroke="red" stroke-width="0.95"/>
        <path id="path3209" d="M227.3,298.09l205.472,83.471" transform="translate(-22.266 -80.75)" fill="none" stroke="red" stroke-width="0.856"/>
      </g>
    </g>
  </g>
</svg>
