<svg xmlns="http://www.w3.org/2000/svg" width="36" height="36" viewBox="0 0 36 36">
  <g id="Grupo_67495" data-name="Grupo 67495" transform="translate(-285 -3918)">
    <circle id="Elipse_5675" data-name="Elipse 5675" cx="18" cy="18" r="18" transform="translate(285 3918)" fill="#d44f4a"/>
    <path id="Trazado_138563" data-name="Trazado 138563" d="M12.773,14.055l.869-7.273h8.311V9.34H16.318L16,12.164a3.882,3.882,0,0,1,.923-.363,4.211,4.211,0,0,1,1.118-.157A4.171,4.171,0,0,1,21.294,12.9a5.055,5.055,0,0,1,1.138,3.521,5.046,5.046,0,0,1-.61,2.476,4.2,4.2,0,0,1-1.714,1.7,5.411,5.411,0,0,1-2.607.6,5.822,5.822,0,0,1-2.51-.551,4.5,4.5,0,0,1-1.836-1.512,3.675,3.675,0,0,1-.654-2.171h3.3a1.867,1.867,0,0,0,.5,1.238,1.581,1.581,0,0,0,1.182.458q1.66,0,1.66-2.456,0-2.271-2.031-2.271a2.027,2.027,0,0,0-1.719.741Z" transform="translate(286 3925)" fill="#fff"/>
  </g>
</svg>
