<svg xmlns="http://www.w3.org/2000/svg" width="36" height="36" viewBox="0 0 36 36">
  <g id="Grupo_67498" data-name="Grupo 67498" transform="translate(-285 -4053)">
    <circle id="Elipse_5679" data-name="Elipse 5679" cx="18" cy="18" r="18" transform="translate(285 4053)" fill="#d44f4a"/>
    <path id="Trazado_138566" data-name="Trazado 138566" d="M22.168,10.58a3.283,3.283,0,0,1-.513,1.826,3.734,3.734,0,0,1-1.411,1.27,4.109,4.109,0,0,1,1.611,1.362,3.515,3.515,0,0,1,.6,2.046,3.721,3.721,0,0,1-1.313,3.008,5.454,5.454,0,0,1-3.618,1.1,5.554,5.554,0,0,1-3.652-1.108,3.7,3.7,0,0,1-1.338-3,3.56,3.56,0,0,1,.586-2.021,3.984,3.984,0,0,1,1.66-1.387,3.755,3.755,0,0,1-1.426-1.27,3.26,3.26,0,0,1-.518-1.826,3.648,3.648,0,0,1,1.26-2.93,5.064,5.064,0,0,1,3.4-1.074A5.1,5.1,0,0,1,20.908,7.65,3.648,3.648,0,0,1,22.168,10.58ZM19.15,16.82a1.877,1.877,0,0,0-.454-1.353,1.581,1.581,0,0,0-1.2-.474,1.6,1.6,0,0,0-1.2.474,1.865,1.865,0,0,0-.459,1.353,1.881,1.881,0,0,0,.464,1.343,1.592,1.592,0,0,0,1.216.493,1.53,1.53,0,0,0,1.182-.488A1.915,1.915,0,0,0,19.15,16.82ZM17.49,9.115a1.216,1.216,0,0,0-1.011.435,1.886,1.886,0,0,0-.347,1.206,2,2,0,0,0,.352,1.23,1.213,1.213,0,0,0,1.035.469,1.163,1.163,0,0,0,1.011-.469,2.062,2.062,0,0,0,.337-1.23,1.89,1.89,0,0,0-.347-1.2A1.233,1.233,0,0,0,17.49,9.115Z" transform="translate(286 4060)" fill="#fff"/>
  </g>
</svg>
